<?xml version="1.0" standalone="no"?>
<!DOCTYPE svg PUBLIC "-//W3C//DTD SVG 1.1//EN" "http://www.w3.org/Graphics/SVG/1.1/DTD/svg11.dtd" >
<svg xmlns="http://www.w3.org/2000/svg" xmlns:xlink="http://www.w3.org/1999/xlink" version="1.1">
<metadata>
Created by FontForge 20170731 at Fri Feb  9 14:28:47 2018
 By Aleksey,,,
Copyright (c) 2015 by Kostas Bartsokas. All rights reserved.
</metadata>
<defs>
<font id="Parramatta-Extrabold" horiz-adv-x="586" >
  <font-face 
    font-family="Parramatta Extrabold"
    font-weight="800"
    font-stretch="normal"
    units-per-em="1000"
    panose-1="0 0 9 0 0 0 0 0 0 0"
    ascent="800"
    descent="-200"
    x-height="489"
    cap-height="710"
    bbox="-710 -258 1433 1063"
    underline-thickness="58"
    underline-position="-213"
    unicode-range="U+000D-2E18"
  />
<missing-glyph horiz-adv-x="441" 
 />
    <glyph glyph-name=".notdef" horiz-adv-x="441" 
 />
    <glyph glyph-name=".null" horiz-adv-x="0" 
 />
    <glyph glyph-name="nonmarkingreturn" horiz-adv-x="333" 
 />
    <glyph glyph-name="CR" unicode="&#xd;" horiz-adv-x="0" 
 />
    <glyph glyph-name="space" unicode=" " horiz-adv-x="242" 
 />
    <glyph glyph-name="exclam" unicode="!" horiz-adv-x="289" 
d="M89 245l-27 491h166l-27 -491h-112zM145 -9q-38 0 -64 25.5t-26 62.5t26.5 63t63.5 26t63.5 -26t26.5 -63t-26.5 -62.5t-63.5 -25.5z" />
    <glyph glyph-name="quotedbl" unicode="&#x22;" horiz-adv-x="444" 
d="M28 440l30 270h154l-68 -270h-116zM237 440l30 270h155l-69 -270h-116z" />
    <glyph glyph-name="numbersign" unicode="#" horiz-adv-x="643" 
d="M98 -48l28 179h-99v115h117l20 128h-111v114h129l26 168h104l-26 -168h125l26 168h104l-26 -168h103l-1 -114h-120l-20 -128h114l-1 -115h-130l-28 -179h-105l28 179h-124l-27 -179h-106zM248 246h125l20 128h-124z" />
    <glyph glyph-name="dollar" unicode="$" horiz-adv-x="564" 
d="M534 202q0 -85 -53 -139t-143 -66v-114h-107v115q-117 19 -202 104l96 117q79 -75 170 -75q29 0 45.5 12.5t16.5 32.5q0 22 -20 37t-76 32q-51 15 -83 29t-65.5 37t-50 57.5t-16.5 81.5q0 81 49.5 135.5t136.5 66.5v117h108v-121q102 -20 182 -85l-93 -116
q-77 54 -146 54q-62 0 -62 -40q0 -18 19.5 -32t67.5 -29q61 -18 95.5 -32.5t68 -38t48 -58t14.5 -82.5z" />
    <glyph glyph-name="percent" unicode="%" horiz-adv-x="1010" 
d="M404 -26l-112 48l317 705l111 -48zM230 319q-85 0 -143.5 56t-58.5 145q0 84 56.5 141.5t145.5 57.5q86 0 144.5 -55.5t58.5 -143.5q0 -84 -56.5 -142.5t-146.5 -58.5zM231 423q38 0 62 27.5t24 67.5q0 42 -24.5 68.5t-61.5 26.5q-38 0 -62 -27.5t-24 -67.5q0 -41 25 -68
t61 -27zM780 -9q-85 0 -143.5 56t-58.5 144q0 84 56.5 142t145.5 58q86 0 144.5 -56t58.5 -144q0 -84 -56.5 -142t-146.5 -58zM781 95q38 0 62 27.5t24 67.5q0 41 -24.5 67.5t-61.5 26.5q-38 0 -62 -27t-24 -67q0 -41 25 -68t61 -27z" />
    <glyph glyph-name="ampersand" unicode="&#x26;" horiz-adv-x="657" 
d="M263 -9q-101 0 -168.5 61.5t-67.5 159.5q0 130 125 208v2l-73 96q8 90 69.5 146t156.5 56q162 0 233 -155l-126 -46q-31 69 -92 70q-34 0 -52 -19.5t-22 -43.5l199 -264l3 1q16 43 16 83l142 3q0 -123 -61 -217v-4l96 -128h-171l-32 41h-3q-68 -50 -172 -50zM280 130
q40 0 75 19v3l-121 160q-54 -31 -54 -90q0 -42 28 -67t72 -25z" />
    <glyph glyph-name="quotesingle" unicode="'" horiz-adv-x="234" 
d="M28 440l30 270h154l-68 -270h-116z" />
    <glyph glyph-name="parenleft" unicode="(" horiz-adv-x="312" 
d="M169 -161q-125 187 -125 455q0 273 126 457l111 -50q-99 -181 -99 -407q0 -218 99 -405z" />
    <glyph glyph-name="parenright" unicode=")" horiz-adv-x="312" 
d="M143 -161l-112 50q99 187 99 405q0 226 -99 407l111 50q126 -184 126 -457q0 -268 -125 -455z" />
    <glyph glyph-name="asterisk" unicode="*" horiz-adv-x="390" 
d="M150 379l5 95l-80 -50l-46 78l84 42l-84 44l46 79l80 -51l-5 94h90l-5 -94l80 49l46 -77l-84 -43l84 -43l-46 -79l-78 51l3 -95h-90z" />
    <glyph glyph-name="plus" unicode="+" horiz-adv-x="573" 
d="M220 40v172h-173v131h173v173h132v-173h173v-131h-173v-172h-132z" />
    <glyph glyph-name="comma" unicode="," horiz-adv-x="245" 
d="M18 -134l30 270h154l-72 -270h-112z" />
    <glyph glyph-name="hyphen" unicode="-" horiz-adv-x="384" 
d="M39 238v142h306v-142h-306z" />
    <glyph glyph-name="period" unicode="." horiz-adv-x="268" 
d="M134 -9q-38 0 -64 25.5t-26 62.5t26.5 63t63.5 26t63.5 -26t26.5 -63t-26.5 -62.5t-63.5 -25.5z" />
    <glyph glyph-name="slash" unicode="/" horiz-adv-x="441" 
d="M83 -111l-110 50l380 854l109 -50z" />
    <glyph glyph-name="zero" unicode="0" horiz-adv-x="623" 
d="M311 -9q-124 0 -198.5 94.5t-74.5 258.5q0 160 74 256t199 96q124 0 199 -94.5t75 -257.5q0 -162 -74 -257.5t-200 -95.5zM311 143q50 0 78 50.5t28 150.5q0 93 -27 146.5t-79 53.5q-49 0 -77.5 -51t-28.5 -149q0 -92 27.5 -146.5t78.5 -54.5z" />
    <glyph glyph-name="one" unicode="1" horiz-adv-x="420" 
d="M186 0v491l-104 -77l-77 120l216 153h129v-687h-164z" />
    <glyph glyph-name="two" unicode="2" horiz-adv-x="524" 
d="M32 0l-2 106l204 217q44 46 64 79.5t20 68.5q0 32 -20.5 53.5t-51.5 21.5q-63 0 -105 -63l-116 83q75 130 234 130q92 0 157.5 -56.5t65.5 -149.5q0 -62 -23.5 -112t-89.5 -119l-105 -109l1 -3h223v-147h-456z" />
    <glyph glyph-name="three" unicode="3" horiz-adv-x="531" 
d="M261 -9q-92 0 -159 44t-93 114l141 56q23 -72 99 -72q33 0 56.5 20.5t23.5 56.5q0 34 -24 56t-69 22h-45v126h56q35 0 54 19t19 49q0 31 -21 50.5t-53 19.5q-56 0 -81 -54l-130 69q23 57 82 93t134 36q97 0 161 -49.5t64 -135.5q0 -101 -85 -154v-3q106 -49 106 -166
q0 -89 -66 -143t-170 -54z" />
    <glyph glyph-name="four" unicode="4" horiz-adv-x="564" 
d="M293 0v108h-278v97l309 482h127v-445h88v-134h-88v-108h-158zM181 232h126v203z" />
    <glyph glyph-name="five" unicode="5" horiz-adv-x="536" 
d="M292 446q88 0 148.5 -61.5t60.5 -159.5q0 -104 -69.5 -169t-178.5 -65q-152 0 -243 105l116 93q46 -53 111 -53q43 0 72 26.5t29 64.5q0 44 -31 68.5t-67 24.5q-47 0 -93 -34l-85 32l22 369h380v-146h-245l-7 -109q45 14 80 14z" />
    <glyph glyph-name="six" unicode="6" horiz-adv-x="572" 
d="M331 443q86 0 146.5 -59.5t60.5 -162.5t-71 -166.5t-181 -63.5t-179 77.5t-69 203.5q0 105 43.5 196t128 156t197.5 86l45 -126q-179 -51 -232 -166l1 -1q52 26 110 26zM289 133q43 0 68.5 26.5t25.5 66.5t-26 65t-69 25q-56 0 -98 -50v-10q0 -55 29 -89t70 -34z" />
    <glyph glyph-name="seven" unicode="7" horiz-adv-x="473" 
d="M16 687h429v-105l-222 -599l-161 30l207 529h-253v145z" />
    <glyph glyph-name="eight" unicode="8" horiz-adv-x="561" 
d="M280 -9q-109 0 -180.5 54.5t-71.5 144.5q0 66 33 112.5t87 68.5v3q-34 16 -58 54.5t-24 85.5q0 87 60 134.5t154 47.5q95 0 155.5 -48t60.5 -134q0 -48 -24 -86.5t-59 -53.5v-3q54 -21 87.5 -67.5t33.5 -113.5q0 -91 -72 -145t-182 -54zM280 433q30 0 49.5 18.5
t19.5 47.5t-19.5 49t-49.5 20q-29 0 -48.5 -20t-19.5 -49t19 -47.5t49 -18.5zM280 125q38 0 63.5 25.5t25.5 61.5q0 38 -25 62t-64 24t-64 -24t-25 -62q0 -37 25.5 -62t63.5 -25z" />
    <glyph glyph-name="nine" unicode="9" horiz-adv-x="571" 
d="M280 696q113 0 183 -78t70 -204q0 -162 -101 -285t-272 -155l-45 126q181 50 234 167l-1 1q-52 -26 -111 -26q-86 0 -146 59.5t-60 162.5t71 167.5t178 64.5zM186 459q0 -40 25.5 -65t69.5 -25q56 0 98 52v8q0 56 -28 90t-69 34q-43 0 -69.5 -27t-26.5 -67z" />
    <glyph glyph-name="colon" unicode=":" horiz-adv-x="271" 
d="M135 321q-38 0 -64 25.5t-26 62.5t26.5 63t63.5 26t63.5 -26t26.5 -63t-26.5 -62.5t-63.5 -25.5zM135 -9q-38 0 -64 25.5t-26 62.5t26.5 63t63.5 26t63.5 -26t26.5 -63t-26.5 -62.5t-63.5 -25.5z" />
    <glyph glyph-name="semicolon" unicode=";" horiz-adv-x="253" 
d="M132 321q-38 0 -64 25.5t-26 62.5t26.5 63t63.5 26t63.5 -26t26.5 -63t-26.5 -62.5t-63.5 -25.5zM24 -134l30 270h154l-72 -270h-112z" />
    <glyph glyph-name="less" unicode="&#x3c;" horiz-adv-x="572" 
d="M524 19l-471 198v108l471 203v-145l-278 -111l278 -112v-141z" />
    <glyph glyph-name="equal" unicode="=" horiz-adv-x="582" 
d="M55 327v131h478v-131h-478zM55 97v131h478v-131h-478z" />
    <glyph glyph-name="greater" unicode="&#x3e;" horiz-adv-x="572" 
d="M56 19v141l278 112l-278 111v145l471 -203v-108z" />
    <glyph glyph-name="question" unicode="?" horiz-adv-x="467" 
d="M127 241l-1 49q0 15 4 30.5t8 25.5t15.5 25.5t16.5 21t21 22.5t19 20q21 22 30.5 33.5t20.5 32t11 38.5q0 30 -17.5 46.5t-48.5 16.5q-51 0 -93 -47l-108 99q35 42 92.5 67t121.5 25q94 0 156 -51t62 -147q0 -88 -89 -171q-4 -3 -16.5 -14t-16 -15t-13 -13t-13 -14
t-9 -12.5t-7.5 -14t-3 -13.5l-4 -40h-139zM199 -9q-38 0 -64 25.5t-26 62.5t26.5 63t63.5 26t63.5 -26t26.5 -63t-26.5 -62.5t-63.5 -25.5z" />
    <glyph glyph-name="at" unicode="@" horiz-adv-x="887" 
d="M410 -151q-160 0 -266.5 109t-106.5 277q0 57 14 114t48 114t83 100.5t125.5 71t170.5 27.5q172 0 274 -105t102 -265q0 -31 -5.5 -62.5t-21.5 -66.5t-40.5 -62t-67 -44.5t-96.5 -17.5q-101 0 -123 66l-3 1q-43 -57 -114 -57q-74 0 -118 52t-44 137q0 34 10 72.5t30 77
t58 63.5t86 25q68 0 106 -55h2l5 46h149l-27 -273q-2 -16 -2 -22q0 -40 31 -40q44 0 69 53t25 106q0 122 -75.5 203t-209.5 81q-91 0 -161 -31.5t-109 -83t-58.5 -109t-19.5 -117.5q0 -130 81.5 -213.5t207.5 -83.5q104 0 196 57l44 -68q-107 -77 -249 -77zM429 180
q31 0 54.5 27t23.5 67q0 31 -16.5 50.5t-40.5 19.5q-31 0 -55.5 -26.5t-24.5 -66.5q0 -32 17 -51.5t42 -19.5z" />
    <glyph glyph-name="A" unicode="A" horiz-adv-x="694" 
d="M6 0l261 710h160l260 -710h-174l-42 128h-248l-42 -128h-175zM268 268h159l-79 240h-2z" />
    <glyph glyph-name="B" unicode="B" horiz-adv-x="633" 
d="M64 0v710h269q116 0 174.5 -45t58.5 -128q0 -115 -107 -157v-2q144 -37 144 -180q0 -90 -59.5 -144t-174.5 -54h-305zM227 425h91q82 0 82 70q0 69 -91 69h-82v-139zM227 145h114q42 0 65.5 19.5t23.5 56.5q0 36 -24.5 56.5t-70.5 20.5h-108v-153z" />
    <glyph glyph-name="C" unicode="C" horiz-adv-x="714" 
d="M405 -9q-159 0 -263 96t-104 267q0 158 98 262t268 104q79 0 154.5 -34.5t131.5 -102.5l-122 -105q-69 82 -164 82q-80 0 -135 -56t-55 -150q0 -87 53 -145t138 -58q97 0 164 80l122 -105q-49 -60 -122.5 -97.5t-163.5 -37.5z" />
    <glyph glyph-name="D" unicode="D" horiz-adv-x="717" 
d="M64 0v710h246q167 0 268 -98.5t101 -257.5t-98 -256.5t-268 -97.5h-249zM227 149h75q90 0 146 58.5t56 146.5q0 89 -54 148t-136 59h-87v-412z" />
    <glyph glyph-name="E" unicode="E" horiz-adv-x="585" 
d="M64 0v710h463v-149h-300v-136h237v-144h-237v-132h321v-149h-484z" />
    <glyph glyph-name="F" unicode="F" horiz-adv-x="574" 
d="M64 0v710h480v-149h-317v-160h262v-148h-262v-253h-163z" />
    <glyph glyph-name="G" unicode="G" horiz-adv-x="737" 
d="M405 -8q-159 0 -263 97t-104 265q0 159 97 262.5t263 103.5q80 0 157.5 -33t130.5 -94l-118 -100q-72 70 -170 70q-79 0 -132 -56.5t-53 -152.5q0 -89 52 -149t140 -60q65 0 123 31v84h-138v138h298v-319q-50 -39 -126.5 -63t-156.5 -24z" />
    <glyph glyph-name="H" unicode="H" horiz-adv-x="715" 
d="M64 0v710h169v-294h250v294h168v-710h-168v268h-250v-268h-169z" />
    <glyph glyph-name="I" unicode="I" horiz-adv-x="308" 
d="M68 0v710h171v-710h-171z" />
    <glyph glyph-name="J" unicode="J" horiz-adv-x="502" 
d="M218 -9q-130 0 -205 95l97 115q41 -54 94 -54q70 0 70 102v461h170v-458q0 -261 -226 -261z" />
    <glyph glyph-name="K" unicode="K" horiz-adv-x="662" 
d="M64 0v710h167v-272h2l206 272h211l-256 -308l265 -402h-205l-170 270l-53 -65v-205h-167z" />
    <glyph glyph-name="L" unicode="L" horiz-adv-x="553" 
d="M64 0v710h171v-561h295v-149h-466z" />
    <glyph glyph-name="M" unicode="M" horiz-adv-x="860" 
d="M65 0v710h168l197 -377h2l195 377h169v-710h-166v391h-2l-144 -260h-107l-144 261h-3v-392h-165z" />
    <glyph glyph-name="N" unicode="N" horiz-adv-x="739" 
d="M64 0v710h161l283 -438l2 1v437h165v-710h-166l-278 426h-2v-426h-165z" />
    <glyph glyph-name="O" unicode="O" horiz-adv-x="808" 
d="M404 -9q-162 0 -264 101.5t-102 262.5t102 263t264 102q160 0 262.5 -101.5t102.5 -263.5t-102.5 -263t-262.5 -101zM404 146q82 0 136 60t54 149t-54 149t-136 60q-83 0 -137 -60.5t-54 -148.5t54 -148.5t137 -60.5z" />
    <glyph glyph-name="P" unicode="P" horiz-adv-x="612" 
d="M64 0v710h270q126 0 189.5 -66.5t63.5 -178.5q0 -116 -71 -176t-195 -60h-94v-229h-163zM227 375h75q55 0 83.5 24.5t28.5 69.5q0 43 -27.5 68.5t-81.5 25.5h-78v-188z" />
    <glyph glyph-name="Q" unicode="Q" horiz-adv-x="819" 
d="M789 84l-84 -108l-85 78q-91 -63 -215 -63q-163 0 -265 101.5t-102 262.5t102.5 263t264.5 102q160 0 262 -101t102 -264q0 -115 -55 -205zM213 355q0 -91 54.5 -151t137.5 -60q54 0 101 29l-62 56l71 84l61 -54q19 46 19 96q0 88 -53.5 148.5t-136.5 60.5t-137.5 -59.5
t-54.5 -149.5z" />
    <glyph glyph-name="R" unicode="R" horiz-adv-x="649" 
d="M64 0v710h277q127 0 190.5 -66.5t63.5 -178.5q0 -158 -134 -213l169 -252h-196l-146 229h-61v-229h-163zM227 375h84q54 0 82.5 24.5t28.5 69.5q0 43 -27 68.5t-81 25.5h-87v-188z" />
    <glyph glyph-name="S" unicode="S" horiz-adv-x="570" 
d="M280 -9q-151 0 -261 113l98 119q77 -84 168 -84q40 0 60 17t20 43q0 29 -22 45.5t-83 37.5q-48 16 -80.5 32t-66.5 42.5t-51.5 65t-17.5 88.5q0 88 67 147.5t166 61.5q135 3 246 -92l-94 -122q-85 67 -145 67q-31 0 -48.5 -14.5t-17.5 -40.5q-1 -25 21 -42t81 -40
q110 -42 146 -67q74 -52 75 -150q0 -60 -23.5 -105.5t-63 -71t-83.5 -38t-91 -12.5z" />
    <glyph glyph-name="T" unicode="T" 
d="M208 0v561h-185v149h541v-149h-186v-561h-170z" />
    <glyph glyph-name="U" unicode="U" horiz-adv-x="700" 
d="M349 -9q-134 0 -213.5 80t-79.5 225v414h168v-404q0 -69 32.5 -114t92.5 -45q57 0 92.5 42.5t35.5 116.5v404h167v-414q0 -141 -77.5 -223t-217.5 -82z" />
    <glyph glyph-name="V" unicode="V" horiz-adv-x="688" 
d="M272 0l-262 710h181l154 -471h2l154 471h179l-261 -710h-147z" />
    <glyph glyph-name="W" unicode="W" horiz-adv-x="1025" 
d="M238 0l-223 710h179l119 -436h3l109 436h176l108 -435h3l120 435h178l-223 -710h-153l-118 466h-2l-123 -466h-153z" />
    <glyph glyph-name="X" unicode="X" horiz-adv-x="706" 
d="M15 0l227 357l-218 353h193l136 -225h3l137 225h189l-218 -353l227 -357h-197l-141 229h-3l-142 -229h-193z" />
    <glyph glyph-name="Y" unicode="Y" horiz-adv-x="636" 
d="M232 0v309l-231 401h191l125 -236h2l123 236h193l-233 -401v-309h-170z" />
    <glyph glyph-name="Z" unicode="Z" horiz-adv-x="613" 
d="M41 0v130l308 429l-2 2h-295v149h519v-126l-316 -432l2 -3h315v-149h-531z" />
    <glyph glyph-name="bracketleft" unicode="[" horiz-adv-x="353" 
d="M58 -150v885h258v-113h-127v-657h127v-115h-258z" />
    <glyph glyph-name="backslash" unicode="\" horiz-adv-x="443" 
d="M366 -111l-379 854l109 50l380 -854z" />
    <glyph glyph-name="bracketright" unicode="]" horiz-adv-x="353" 
d="M295 -150h-258v115h127v657h-127v113h258v-885z" />
    <glyph glyph-name="asciicircum" unicode="^" horiz-adv-x="456" 
d="M41 500l134 210h105l135 -210h-120l-67 118l-72 -118h-115z" />
    <glyph glyph-name="underscore" unicode="_" horiz-adv-x="528" 
d="M-7 -131v104h541v-104h-541z" />
    <glyph glyph-name="grave" unicode="`" horiz-adv-x="492" 
d="M216 524l-123 149l159 -1l106 -148h-142z" />
    <glyph glyph-name="a" unicode="a" horiz-adv-x="596" 
d="M259 -9q-101 0 -166 70t-65 183q0 111 63.5 182.5t159.5 71.5q83 0 135 -61l2 1v51h157v-489h-149v51l-2 1q-48 -61 -135 -61zM292 129q43 0 73 32t30 83q0 50 -29.5 83t-73.5 33q-46 0 -75.5 -32t-29.5 -84t29 -83.5t76 -31.5z" />
    <glyph glyph-name="b" unicode="b" horiz-adv-x="604" 
d="M343 -9q-91 0 -139 61h-2v-52h-148v736h156v-299h2q52 61 139 61q96 0 159.5 -71t63.5 -183q0 -113 -64.5 -183t-166.5 -70zM312 129q45 0 74.5 32t29.5 83q0 52 -29.5 84t-75.5 32q-47 0 -77.5 -33t-30.5 -83q0 -52 31 -83.5t78 -31.5z" />
    <glyph glyph-name="c" unicode="c" horiz-adv-x="522" 
d="M286 -9q-112 0 -184 70t-72 182q0 115 71.5 185t188.5 70q136 0 211 -85l-101 -100q-35 46 -97 46q-51 0 -83 -31.5t-32 -83.5q0 -51 32.5 -82.5t83.5 -31.5q61 0 104 46l96 -100q-73 -85 -218 -85z" />
    <glyph glyph-name="d" unicode="d" horiz-adv-x="603" 
d="M260 -9q-102 0 -166.5 70t-64.5 183q0 111 63.5 182.5t159.5 71.5q87 0 140 -61h1v299h157v-736h-149v52h-2q-49 -61 -139 -61zM292 129q46 0 76.5 31.5t30.5 83.5q0 50 -30 83t-77 33q-45 0 -75 -32t-30 -84q0 -51 29.5 -83t75.5 -32z" />
    <glyph glyph-name="e" unicode="e" horiz-adv-x="550" 
d="M521 250q0 -17 -3 -47h-333q7 -41 39 -63t78 -22q68 2 114 53l90 -92q-71 -88 -220 -88q-112 0 -184 70.5t-72 183.5q0 111 70.5 182t181.5 71q104 0 171.5 -70t67.5 -178zM280 374q-36 0 -61.5 -20.5t-32.5 -57.5h183q-8 36 -31 57t-58 21z" />
    <glyph glyph-name="f" unicode="f" horiz-adv-x="347" 
d="M71 0v363h-47v126h47v77q0 89 43 134.5t118 45.5q78 0 132 -38l-29 -113q-34 18 -61 18q-46 0 -46 -53v-71h93v-126h-93v-363h-157z" />
    <glyph glyph-name="g" unicode="g" horiz-adv-x="594" 
d="M280 -207q-116 0 -201 47l35 127q73 -43 149 -43q61 0 94.5 26.5t33.5 66.5v45l-2 1q-52 -54 -135 -54q-99 0 -162.5 68t-63.5 173q0 108 62 178t155 70q85 0 140 -57h2v48h157v-425q0 -271 -264 -271zM291 148q44 0 73.5 30t29.5 76t-29.5 75.5t-73.5 29.5
q-45 0 -74.5 -29.5t-29.5 -76.5t29.5 -76t74.5 -29z" />
    <glyph glyph-name="h" unicode="h" horiz-adv-x="587" 
d="M54 0v736h156v-302l2 -1q57 65 151 65q176 0 176 -203v-295h-156v256q0 57 -19.5 80t-62.5 23t-67 -28t-24 -84v-247h-156z" />
    <glyph glyph-name="i" unicode="i" horiz-adv-x="274" 
d="M137 550q-40 0 -66.5 26t-26.5 64q0 37 26.5 62.5t66.5 25.5t67 -25.5t27 -62.5q0 -38 -27 -64t-67 -26zM59 0v489h156v-489h-156z" />
    <glyph glyph-name="j" unicode="j" horiz-adv-x="261" 
d="M132 550q-40 0 -66.5 26t-26.5 64q0 37 26.5 62.5t66.5 25.5t67 -25.5t27 -62.5q0 -38 -27 -64t-67 -26zM55 -207q-61 0 -111 18l25 124q21 -9 45 -9q22 0 30.5 15t8.5 48v500h156v-513q0 -90 -40 -136.5t-114 -46.5z" />
    <glyph glyph-name="k" unicode="k" horiz-adv-x="538" 
d="M54 0v736h154v-423h2l143 176h181l-165 -195l170 -294h-173l-109 192l-49 -54v-138h-154z" />
    <glyph glyph-name="l" unicode="l" horiz-adv-x="274" 
d="M59 0v736h156v-736h-156z" />
    <glyph glyph-name="m" unicode="m" horiz-adv-x="880" 
d="M54 0v489h156v-58h1q58 67 138 67q100 0 142 -73h2q58 73 165 73q173 0 173 -213v-285h-156v249q0 110 -71 110q-36 0 -59 -29.5t-23 -84.5v-245h-156v249q0 110 -71 110q-38 0 -61.5 -29t-23.5 -85v-245h-156z" />
    <glyph glyph-name="n" unicode="n" horiz-adv-x="582" 
d="M54 0v489h156v-57h2q57 66 147 66q175 0 175 -205v-293h-156v255q0 58 -19 81t-59 23q-42 0 -66 -28.5t-24 -84.5v-246h-156z" />
    <glyph glyph-name="o" unicode="o" horiz-adv-x="589" 
d="M295 -9q-118 0 -191.5 70.5t-73.5 182.5t73.5 183t191.5 71q116 0 190 -70.5t74 -183.5q0 -112 -74 -182.5t-190 -70.5zM295 129q45 0 75.5 32.5t30.5 82.5q0 51 -30 83t-76 32q-47 0 -77 -32.5t-30 -82.5q0 -49 30.5 -82t76.5 -33z" />
    <glyph glyph-name="p" unicode="p" horiz-adv-x="604" 
d="M54 -198v687h156v-52h2q53 61 139 61q96 0 159.5 -71t63.5 -183q0 -113 -64.5 -183t-166.5 -70q-82 0 -131 57l-2 -1v-245h-156zM312 129q45 0 74.5 32t29.5 83q0 52 -29.5 84t-75.5 32q-47 0 -77.5 -33t-30.5 -83q0 -52 31 -83.5t78 -31.5z" />
    <glyph glyph-name="q" unicode="q" horiz-adv-x="604" 
d="M395 -198v246l-2 1q-47 -58 -133 -58q-101 0 -165.5 70t-64.5 183q0 112 63.5 183t159.5 71q86 0 139 -61h2v52h157v-687h-156zM293 129q46 0 76.5 31.5t30.5 83.5q0 50 -30.5 83t-76.5 33t-75.5 -32t-29.5 -84q0 -51 29.5 -83t75.5 -32z" />
    <glyph glyph-name="r" unicode="r" horiz-adv-x="373" 
d="M54 0v489h156v-68h2q55 77 141 77h6v-169q-30 2 -37 2q-54 0 -83 -30.5t-29 -80.5v-220h-156z" />
    <glyph glyph-name="s" unicode="s" horiz-adv-x="440" 
d="M215 -9q-118 0 -199 72l73 101q61 -55 128 -55q47 0 47 29q0 12 -15.5 21.5t-60.5 23.5q-72 22 -113 58t-41 101q0 72 52 114t131 42q102 0 185 -61l-74 -109q-51 51 -109 51q-15 0 -27 -7t-12 -20q0 -20 67 -43q92 -31 129.5 -62.5t37.5 -98.5q0 -71 -51 -114t-148 -43z
" />
    <glyph glyph-name="t" unicode="t" horiz-adv-x="374" 
d="M213 -9q-66 0 -105 41.5t-39 121.5v209h-55v126h55v157l157 16v-173h118v-126h-118v-180q0 -55 37 -55q25 0 48 11l39 -115q-59 -33 -137 -33z" />
    <glyph glyph-name="u" unicode="u" horiz-adv-x="570" 
d="M222 -9q-176 0 -176 208v290h156v-251q0 -59 17.5 -84t57.5 -25q37 0 61.5 30.5t24.5 87.5v242h157v-489h-157v55l-2 1q-53 -65 -139 -65z" />
    <glyph glyph-name="v" unicode="v" horiz-adv-x="540" 
d="M198 0l-189 489h165l96 -301h1l97 301h163l-190 -489h-143z" />
    <glyph glyph-name="w" unicode="w" horiz-adv-x="766" 
d="M176 0l-165 489h156l80 -265h1l74 265h121l74 -265h2l81 265h155l-166 -489h-126l-80 284h-1l-78 -284h-128z" />
    <glyph glyph-name="x" unicode="x" horiz-adv-x="525" 
d="M10 0l165 252l-162 237h176l72 -121h1l74 121h175l-162 -238l165 -251h-168l-83 122h-1l-84 -122h-168z" />
    <glyph glyph-name="y" unicode="y" horiz-adv-x="536" 
d="M116 -198l84 231l-191 456h167l98 -263h3l94 263h156l-257 -687h-154z" />
    <glyph glyph-name="z" unicode="z" horiz-adv-x="478" 
d="M29 0v104l213 259v3h-194v123h402v-103l-217 -260v-2h209v-124h-413z" />
    <glyph glyph-name="braceleft" unicode="{" horiz-adv-x="354" 
d="M241 -148q-51 0 -86.5 37.5t-35.5 96.5v171q0 21 -1.5 31.5t-9 23t-26 18.5t-48.5 6v113q30 0 48.5 7t26 20.5t9 23.5t1.5 28v173q0 57 34 95.5t88 38.5h82v-100h-21q-31 0 -42.5 -20t-11.5 -43v-168q0 -85 -52 -110v-1q20 -9 29.5 -17.5t16 -31.5t6.5 -63v-162
q0 -34 10.5 -50.5t43.5 -16.5h21v-100h-82z" />
    <glyph glyph-name="bar" unicode="|" horiz-adv-x="315" 
d="M96 -115v852h123v-852h-123z" />
    <glyph glyph-name="braceright" unicode="}" horiz-adv-x="354" 
d="M113 -148h-82v100h21q33 0 43.5 16.5t10.5 50.5v162q0 40 6.5 63t16 31.5t29.5 17.5v1q-52 25 -52 110v168q0 13 -3 25.5t-16 25t-35 12.5h-21v100h82q54 0 88 -38.5t34 -95.5v-173q0 -18 1.5 -28t9 -23.5t26 -20.5t48.5 -7v-113q-30 0 -48.5 -6t-26 -18.5t-9 -23
t-1.5 -31.5v-171q0 -59 -35.5 -96.5t-86.5 -37.5z" />
    <glyph glyph-name="asciitilde" unicode="~" horiz-adv-x="565" 
d="M376 190q-42 0 -103 24q-40 17 -62 17q-38 0 -64 -43l-104 42q20 61 58.5 98.5t90.5 37.5q46 0 103 -25q27 -15 58 -15q40 0 65 43l103 -35q-19 -63 -57 -103.5t-88 -40.5z" />
    <glyph glyph-name="uni00A0" unicode="&#xa0;" horiz-adv-x="242" 
 />
    <glyph glyph-name="exclamdown" unicode="&#xa1;" horiz-adv-x="289" 
d="M145 497q37 0 63.5 -25.5t26.5 -62.5t-26.5 -63t-63.5 -26t-63.5 26t-26.5 63t26 62.5t64 25.5zM89 243h112l27 -491h-166z" />
    <glyph glyph-name="cent" unicode="&#xa2;" horiz-adv-x="531" 
d="M510 135q-60 -70 -167 -87v-95h-104v95q-93 15 -150.5 83t-57.5 167q0 98 57 165t151 84v91h104v-90q107 -17 165 -93l-105 -89q-40 47 -102 47q-50 0 -81 -31.5t-31 -81.5q0 -51 31.5 -83.5t81.5 -32.5q62 0 101 45z" />
    <glyph glyph-name="sterling" unicode="&#xa3;" horiz-adv-x="562" 
d="M39 0v147h60v150h-52v111h52v41q0 127 60 186.5t155 59.5q59 0 114 -25.5t92 -71.5l-81 -103q-48 54 -102 54q-72 0 -72 -107v-34h143v-111h-141v-150h272v-147h-500z" />
    <glyph glyph-name="currency" unicode="&#xa4;" horiz-adv-x="509" 
d="M438 388q0 -47 -24 -90l80 -81l-69 -70l-81 82q-43 -24 -91 -24q-47 0 -90 24l-81 -81l-69 69l81 82q-23 40 -23 89t23 89l-81 83l69 69l82 -81q43 24 90 24t90 -24l81 82l69 -70l-80 -82q24 -43 24 -90zM254 313q32 1 54 23t23 54q0 32 -22.5 55t-54.5 23
q-32 -1 -54.5 -23.5t-23.5 -54.5q0 -31 23 -53.5t55 -23.5z" />
    <glyph glyph-name="yen" unicode="&#xa5;" horiz-adv-x="607" 
d="M607 687l-173 -318h89v-87h-135v-49h135v-86h-135v-147h-170v147h-144v86h144v49h-144v87h98l-172 318h193l109 -239h2l108 239h195z" />
    <glyph glyph-name="brokenbar" unicode="&#xa6;" horiz-adv-x="315" 
d="M96 384v353h123v-353h-123zM96 -114v351h123v-351h-123z" />
    <glyph glyph-name="section" unicode="&#xa7;" horiz-adv-x="541" 
d="M433 145q50 -42 50 -118q0 -84 -58 -132.5t-153 -48.5q-134 0 -231 98l88 106q70 -67 141 -67q22 0 36 11.5t14 29.5q0 19 -15 31t-61 29q-51 20 -80.5 34t-61.5 36t-46 49t-14 62q0 88 70 132q-49 44 -49 114q0 78 55 127.5t148 49.5q55 0 114.5 -22.5t101.5 -59.5
l-85 -106q-71 49 -123 49q-25 0 -37 -10t-12 -25q0 -16 13.5 -26.5t55.5 -28.5q8 -3 22 -9q108 -45 140 -71q47 -40 47 -110q0 -76 -70 -124zM192 293q0 -21 18.5 -37t76.5 -38q20 -8 29 -11q36 10 36 42q0 21 -18.5 35.5t-82.5 39.5l-23 9q-36 -9 -36 -40z" />
    <glyph glyph-name="dieresis" unicode="&#xa8;" horiz-adv-x="532" 
d="M154 527q-40 0 -66.5 25.5t-26.5 63.5q0 36 26.5 61.5t66.5 25.5t67 -25t27 -62q0 -38 -27 -63.5t-67 -25.5zM378 527q-40 0 -66.5 25.5t-26.5 63.5q0 36 26.5 61.5t66.5 25.5t66.5 -25t26.5 -62q0 -38 -26.5 -63.5t-66.5 -25.5z" />
    <glyph glyph-name="copyright" unicode="&#xa9;" horiz-adv-x="723" 
d="M361 -6q-135 0 -229 95.5t-94 229.5t94.5 230t229.5 96q136 0 229.5 -96t93.5 -230q0 -133 -94.5 -229t-229.5 -96zM361 89q96 0 161.5 67.5t65.5 162.5q0 97 -65 163.5t-161 66.5q-97 0 -162.5 -67.5t-65.5 -163.5t65 -162.5t162 -66.5zM368 154q-71 0 -118.5 43
t-47.5 120q0 70 44 116.5t122 46.5q79 0 130 -62l-61 -52q-30 34 -69 34q-33 0 -55 -22.5t-22 -60.5q0 -36 21 -59.5t56 -23.5q42 0 69 34l61 -54q-51 -60 -130 -60z" />
    <glyph glyph-name="ordfeminine" unicode="&#xaa;" horiz-adv-x="390" 
d="M158 385q-62 0 -99.5 43t-37.5 112q0 68 36.5 110.5t94.5 42.5q53 0 90 -42h2v36h106v-295h-106v28h-2q-29 -35 -84 -35zM187 485q23 0 38.5 15t15.5 39t-15.5 39.5t-38.5 15.5q-24 0 -40 -15.5t-16 -39.5t16 -39t40 -15z" />
    <glyph glyph-name="guillemotleft" unicode="&#xab;" horiz-adv-x="530" 
d="M290 46h-146l-115 201l117 205h145l-117 -205zM516 46h-147l-114 201l116 205h146l-118 -205z" />
    <glyph glyph-name="logicalnot" unicode="&#xac;" horiz-adv-x="541" 
d="M368 139v163h-327v130h459v-293h-132z" />
    <glyph glyph-name="registered" unicode="&#xae;" horiz-adv-x="723" 
d="M362 645q136 0 229.5 -96t93.5 -230q0 -133 -94.5 -229t-229.5 -96t-229 95.5t-94 229.5t94.5 230t229.5 96zM361 89q96 0 161.5 67.5t65.5 162.5q0 97 -65 163.5t-161 66.5q-97 0 -162.5 -67.5t-65.5 -163.5t65 -162.5t162 -66.5zM489 369q0 -71 -56 -97l72 -113h-96
l-61 100h-22v-100h-82v324h129q58 0 87 -31t29 -83zM326 408v-75h28q22 0 35 10t13 28q0 16 -12.5 26.5t-35.5 10.5h-28z" />
    <glyph glyph-name="macron" unicode="&#xaf;" horiz-adv-x="439" 
d="M63 549v120h313v-120h-313z" />
    <glyph glyph-name="degree" unicode="&#xb0;" horiz-adv-x="373" 
d="M187 438q-59 0 -101 41.5t-42 99.5q0 57 43 99t100 42t100 -42t43 -101q0 -57 -42 -98t-101 -41zM187 526q22 0 37 15t15 38q0 22 -15.5 38t-36.5 16q-22 0 -37.5 -16t-15.5 -39q0 -22 15.5 -37t37.5 -15z" />
    <glyph glyph-name="plusminus" unicode="&#xb1;" horiz-adv-x="584" 
d="M226 186v172h-173v131h173v173h132v-173h173v-131h-173v-172h-132zM53 0v131h478v-131h-478z" />
    <glyph glyph-name="uni00B2" unicode="&#xb2;" horiz-adv-x="330" 
d="M17 435l-1 76l122 126q50 50 50 77q0 15 -9.5 24t-24.5 9q-32 0 -57 -32l-86 61q50 78 153 78q59 0 101.5 -34.5t42.5 -90.5q0 -39 -14 -68.5t-58 -69.5l-55 -50l1 -2h129v-104h-294z" />
    <glyph glyph-name="uni00B3" unicode="&#xb3;" horiz-adv-x="338" 
d="M168 427q-58 0 -102.5 29t-59.5 73l104 41q12 -42 50 -42q18 0 29 10.5t11 25.5q0 38 -50 38h-26v84h33q18 0 29 9t11 23q0 15 -10.5 25t-26.5 10q-30 0 -41 -33l-96 50q13 37 51.5 60.5t86.5 23.5q63 0 104 -30t41 -84q0 -59 -49 -92v-1q63 -28 63 -98q0 -56 -42 -89
t-110 -33z" />
    <glyph glyph-name="acute" unicode="&#xb4;" horiz-adv-x="493" 
d="M131 533l111 149l158 1l-124 -150h-145z" />
    <glyph glyph-name="uni00B5" unicode="&#xb5;" horiz-adv-x="576" 
d="M52 -198v687h156v-247q0 -59 19 -86t59 -27q37 0 60 29.5t23 85.5v245h157v-489h-144l-10 54h-1q-50 -63 -121 -63q-36 0 -55 15l-2 -2q15 -62 15 -119v-83h-156z" />
    <glyph glyph-name="paragraph" unicode="&#xb6;" horiz-adv-x="526" 
d="M275 0v274q-98 8 -157.5 60.5t-59.5 141.5q0 92 64.5 148t176.5 56h162v-680h-186z" />
    <glyph glyph-name="periodcentered" unicode="&#xb7;" horiz-adv-x="277" 
d="M144 154q-38 0 -64 25.5t-26 62.5t26.5 63t63.5 26t63.5 -26t26.5 -63t-26.5 -62.5t-63.5 -25.5z" />
    <glyph glyph-name="cedilla" unicode="&#xb8;" horiz-adv-x="361" 
d="M150 -193q-35 0 -65 6v64q23 -7 46 -7q44 0 44 27q0 14 -20 22t-53 8v38l22 41h80l-20 -35l1 -2q104 -3 104 -80q0 -37 -35.5 -59.5t-103.5 -22.5z" />
    <glyph glyph-name="uni00B9" unicode="&#xb9;" horiz-adv-x="281" 
d="M119 435v269l-56 -39l-57 88l140 94h88v-412h-115z" />
    <glyph glyph-name="ordmasculine" unicode="&#xba;" horiz-adv-x="379" 
d="M184 385q-72 0 -117.5 43t-45.5 112q0 68 45.5 110.5t117.5 42.5q73 0 118.5 -42.5t45.5 -110.5q0 -69 -45.5 -112t-118.5 -43zM184 484q23 0 38 16t15 40t-14.5 39.5t-38.5 15.5q-23 0 -37.5 -15.5t-14.5 -39.5q0 -25 14.5 -40.5t37.5 -15.5z" />
    <glyph glyph-name="guillemotright" unicode="&#xbb;" horiz-adv-x="530" 
d="M14 46l117 201l-118 205h146l116 -205l-114 -201h-147zM240 46l116 201l-117 205h145l117 -205l-115 -201h-146z" />
    <glyph glyph-name="onequarter" unicode="&#xbc;" horiz-adv-x="806" 
d="M304 -26l-112 48l316 705l112 -48zM119 298v269l-56 -39l-57 88l140 94h88v-412h-115zM626 0v61h-159v68l184 283h90v-253h53v-98h-53v-61h-115zM569 151h67v106z" />
    <glyph glyph-name="onehalf" unicode="&#xbd;" horiz-adv-x="839" 
d="M304 -26l-112 48l316 705l112 -48zM119 298v269l-56 -39l-57 88l140 94h88v-412h-115zM526 0l-1 76l122 126q50 50 50 77q0 15 -9.5 24t-24.5 9q-32 0 -57 -32l-86 61q50 78 153 78q59 0 101.5 -34.5t42.5 -90.5q0 -39 -14 -68.5t-58 -69.5l-55 -50l1 -2h129v-104h-294z
" />
    <glyph glyph-name="threequarters" unicode="&#xbe;" horiz-adv-x="838" 
d="M336 -26l-112 48l316 705l112 -48zM168 290q-58 0 -102.5 29t-59.5 73l104 41q12 -42 50 -42q18 0 29 10.5t11 25.5q0 38 -50 38h-26v84h33q18 0 29 9t11 23q0 15 -10.5 25t-26.5 10q-30 0 -41 -33l-96 50q13 37 51.5 60.5t86.5 23.5q63 0 104 -30t41 -84q0 -59 -49 -92
v-1q63 -28 63 -98q0 -56 -42 -89t-110 -33zM658 0v61h-159v68l184 283h90v-253h53v-98h-53v-61h-115zM601 151h67v106z" />
    <glyph glyph-name="questiondown" unicode="&#xbf;" horiz-adv-x="446" 
d="M268 497q38 0 64 -25.5t26 -62.5t-26.5 -63t-63.5 -26t-63.5 26t-26.5 63t26.5 62.5t63.5 25.5zM340 247l1 -49q0 -15 -4 -30.5t-8 -25.5t-15.5 -25.5t-16.5 -21t-21 -22.5t-19 -20q-21 -22 -30.5 -33.5t-20.5 -32t-11 -38.5q0 -30 17.5 -46.5t48.5 -16.5q51 0 93 47
l108 -99q-35 -42 -92.5 -67t-121.5 -25q-94 0 -156 51t-62 147q0 88 89 171q4 3 16.5 14t16 15t13 13t13 14t9 12.5t7.5 14t3 13.5l4 40h139z" />
    <glyph glyph-name="Agrave" unicode="&#xc0;" horiz-adv-x="694" 
d="M285 761l-126 140h160l108 -140h-142zM6 0l261 710h160l260 -710h-174l-42 128h-248l-42 -128h-175zM268 268h159l-79 240h-2z" />
    <glyph glyph-name="Aacute" unicode="&#xc1;" horiz-adv-x="694" 
d="M278 761l108 140h159l-126 -140h-141zM6 0l261 710h160l260 -710h-174l-42 128h-248l-42 -128h-175zM268 268h159l-79 240h-2z" />
    <glyph glyph-name="Acircumflex" unicode="&#xc2;" horiz-adv-x="694" 
d="M166 761l95 140h168l98 -140h-136l-45 65h-2l-45 -65h-133zM6 0l261 710h160l260 -710h-174l-42 128h-248l-42 -128h-175zM268 268h159l-79 240h-2z" />
    <glyph glyph-name="Atilde" unicode="&#xc3;" horiz-adv-x="694" 
d="M432 761q-34 0 -86 27q-38 20 -55 20q-33 0 -54 -46l-90 35q17 50 49.5 82.5t77.5 32.5q50 0 90 -27q31 -18 51 -18q32 0 53 46l90 -29q-18 -55 -50 -89t-76 -34zM6 0l261 710h160l260 -710h-174l-42 128h-248l-42 -128h-175zM268 268h159l-79 240h-2z" />
    <glyph glyph-name="Adieresis" unicode="&#xc4;" horiz-adv-x="694" 
d="M234 756q-40 0 -66.5 25.5t-26.5 63.5q0 36 26.5 61.5t66.5 25.5t67 -25t27 -62q0 -38 -27 -63.5t-67 -25.5zM458 756q-40 0 -66.5 25.5t-26.5 63.5q0 36 26.5 61.5t66.5 25.5t66.5 -25t26.5 -62q0 -38 -26.5 -63.5t-66.5 -25.5zM6 0l261 710h160l260 -710h-174l-42 128
h-248l-42 -128h-175zM268 268h159l-79 240h-2z" />
    <glyph glyph-name="Aring" unicode="&#xc5;" horiz-adv-x="694" 
d="M347 745q-46 0 -78 30t-32 76q0 44 30.5 74.5t79.5 30.5q46 0 78 -29.5t32 -75.5q0 -45 -30.5 -75.5t-79.5 -30.5zM347 816q15 0 25.5 11t10.5 25q0 15 -10.5 25.5t-25.5 10.5t-25 -10.5t-10 -25.5t10 -25.5t25 -10.5zM6 0l261 710h160l260 -710h-174l-42 128h-248
l-42 -128h-175zM268 268h159l-79 240h-2z" />
    <glyph glyph-name="AE" unicode="&#xc6;" horiz-adv-x="940" 
d="M2 0l322 710h565v-149h-303v-136h245v-145h-245v-131h324v-149h-485v128h-191l-56 -128h-176zM292 262h139v312h-2z" />
    <glyph glyph-name="Ccedilla" unicode="&#xc7;" horiz-adv-x="714" 
d="M691 126q-105 -129 -274 -135l-12 -20l1 -2q104 -3 104 -80q0 -37 -35.5 -59.5t-103.5 -22.5q-35 0 -65 6v64q23 -7 46 -7q44 0 44 27q0 14 -20 22t-53 8v38l16 31q-134 19 -217.5 112.5t-83.5 245.5q0 158 98 262t268 104q79 0 154.5 -34.5t131.5 -102.5l-122 -105
q-69 82 -164 82q-80 0 -135 -56t-55 -150q0 -87 53 -145t138 -58q97 0 164 80z" />
    <glyph glyph-name="Egrave" unicode="&#xc8;" horiz-adv-x="585" 
d="M265 760l-126 140h160l108 -140h-142zM64 0v710h463v-149h-300v-136h237v-144h-237v-132h321v-149h-484z" />
    <glyph glyph-name="Eacute" unicode="&#xc9;" horiz-adv-x="585" 
d="M185 760l108 140h159l-126 -140h-141zM64 0v710h463v-149h-300v-136h237v-144h-237v-132h321v-149h-484z" />
    <glyph glyph-name="Ecircumflex" unicode="&#xca;" horiz-adv-x="585" 
d="M118 760l95 140h168l98 -140h-136l-45 65h-2l-45 -65h-133zM64 0v710h463v-149h-300v-136h237v-144h-237v-132h321v-149h-484z" />
    <glyph glyph-name="Edieresis" unicode="&#xcb;" horiz-adv-x="585" 
d="M186 755q-40 0 -66.5 25.5t-26.5 63.5q0 36 26.5 61.5t66.5 25.5t67 -25t27 -62q0 -38 -27 -63.5t-67 -25.5zM410 755q-40 0 -66.5 25.5t-26.5 63.5q0 36 26.5 61.5t66.5 25.5t66.5 -25t26.5 -62q0 -38 -26.5 -63.5t-66.5 -25.5zM64 0v710h463v-149h-300v-136h237v-144
h-237v-132h321v-149h-484z" />
    <glyph glyph-name="Igrave" unicode="&#xcc;" horiz-adv-x="308" 
d="M90 759l-126 140h160l108 -140h-142zM68 0v710h171v-710h-171z" />
    <glyph glyph-name="Iacute" unicode="&#xcd;" horiz-adv-x="308" 
d="M77 759l108 140h159l-126 -140h-141zM68 0v710h171v-710h-171z" />
    <glyph glyph-name="Icircumflex" unicode="&#xce;" horiz-adv-x="308" 
d="M-27 760l95 140h168l98 -140h-136l-45 65h-2l-45 -65h-133zM68 0v710h171v-710h-171z" />
    <glyph glyph-name="Idieresis" unicode="&#xcf;" horiz-adv-x="308" 
d="M41 755q-40 0 -66.5 25.5t-26.5 63.5q0 36 26.5 61.5t66.5 25.5t67 -25t27 -62q0 -38 -27 -63.5t-67 -25.5zM265 755q-40 0 -66.5 25.5t-26.5 63.5q0 36 26.5 61.5t66.5 25.5t66.5 -25t26.5 -62q0 -38 -26.5 -63.5t-66.5 -25.5zM68 0v710h171v-710h-171z" />
    <glyph glyph-name="Eth" unicode="&#xd0;" horiz-adv-x="717" 
d="M310 710q167 0 268 -98.5t101 -257.5t-98 -256.5t-268 -97.5h-249v278h-48v140h48v292h246zM302 149q90 0 146 58.5t56 146.5q0 89 -54 148t-136 59h-87v-143h135v-140h-135v-129h75z" />
    <glyph glyph-name="Ntilde" unicode="&#xd1;" horiz-adv-x="739" 
d="M457 761q-34 0 -86 27q-38 20 -55 20q-33 0 -54 -46l-90 35q17 50 49.5 82.5t77.5 32.5q49 0 90 -27q31 -18 51 -18q32 0 53 46l90 -29q-18 -55 -50 -89t-76 -34zM64 0v710h161l283 -438l2 1v437h165v-710h-166l-278 426h-2v-426h-165z" />
    <glyph glyph-name="Ograve" unicode="&#xd2;" horiz-adv-x="808" 
d="M351 761l-126 140h160l108 -140h-142zM404 -9q-162 0 -264 101.5t-102 262.5t102 263t264 102q160 0 262.5 -101.5t102.5 -263.5t-102.5 -263t-262.5 -101zM404 146q82 0 136 60t54 149t-54 149t-136 60q-83 0 -137 -60.5t-54 -148.5t54 -148.5t137 -60.5z" />
    <glyph glyph-name="Oacute" unicode="&#xd3;" horiz-adv-x="808" 
d="M323 761l108 140h159l-126 -140h-141zM404 -9q-162 0 -264 101.5t-102 262.5t102 263t264 102q160 0 262.5 -101.5t102.5 -263.5t-102.5 -263t-262.5 -101zM404 146q82 0 136 60t54 149t-54 149t-136 60q-83 0 -137 -60.5t-54 -148.5t54 -148.5t137 -60.5z" />
    <glyph glyph-name="Ocircumflex" unicode="&#xd4;" horiz-adv-x="808" 
d="M224 761l95 140h168l98 -140h-136l-45 65h-2l-45 -65h-133zM404 -9q-162 0 -264 101.5t-102 262.5t102 263t264 102q160 0 262.5 -101.5t102.5 -263.5t-102.5 -263t-262.5 -101zM404 146q82 0 136 60t54 149t-54 149t-136 60q-83 0 -137 -60.5t-54 -148.5t54 -148.5
t137 -60.5z" />
    <glyph glyph-name="Otilde" unicode="&#xd5;" horiz-adv-x="808" 
d="M490 761q-34 0 -86 27q-38 20 -55 20q-33 0 -54 -46l-90 35q17 50 49.5 82.5t77.5 32.5q50 0 90 -27q31 -18 51 -18q32 0 53 46l90 -29q-18 -55 -50 -89t-76 -34zM404 -9q-162 0 -264 101.5t-102 262.5t102 263t264 102q160 0 262.5 -101.5t102.5 -263.5t-102.5 -263
t-262.5 -101zM404 146q82 0 136 60t54 149t-54 149t-136 60q-83 0 -137 -60.5t-54 -148.5t54 -148.5t137 -60.5z" />
    <glyph glyph-name="Odieresis" unicode="&#xd6;" horiz-adv-x="808" 
d="M292 756q-40 0 -66.5 25.5t-26.5 63.5q0 36 26.5 61.5t66.5 25.5t67 -25t27 -62q0 -38 -27 -63.5t-67 -25.5zM516 756q-40 0 -66.5 25.5t-26.5 63.5q0 36 26.5 61.5t66.5 25.5t66.5 -25t26.5 -62q0 -38 -26.5 -63.5t-66.5 -25.5zM404 -9q-162 0 -264 101.5t-102 262.5
t102 263t264 102q160 0 262.5 -101.5t102.5 -263.5t-102.5 -263t-262.5 -101zM404 146q82 0 136 60t54 149t-54 149t-136 60q-83 0 -137 -60.5t-54 -148.5t54 -148.5t137 -60.5z" />
    <glyph glyph-name="multiply" unicode="&#xd7;" horiz-adv-x="525" 
d="M131 53l-93 94l132 131l-132 131l93 92l131 -131l131 132l94 -93l-132 -132l131 -132l-92 -92l-131 132z" />
    <glyph glyph-name="Oslash" unicode="&#xd8;" horiz-adv-x="808" 
d="M691 592q78 -99 78 -237q0 -162 -102.5 -263t-262.5 -101q-118 0 -208 57l-78 -85l-69 64l75 82q-86 99 -86 246q0 161 102 263t264 102q126 0 219 -65l77 85l68 -63zM213 355q0 -64 30 -116l266 292q-46 33 -105 33q-83 0 -137 -60.5t-54 -148.5zM404 146q82 0 136 60
t54 149q0 55 -24 105l-262 -288q43 -26 96 -26z" />
    <glyph glyph-name="Ugrave" unicode="&#xd9;" horiz-adv-x="700" 
d="M285 761l-126 140h160l108 -140h-142zM349 -9q-134 0 -213.5 80t-79.5 225v414h168v-404q0 -69 32.5 -114t92.5 -45q57 0 92.5 42.5t35.5 116.5v404h167v-414q0 -141 -77.5 -223t-217.5 -82z" />
    <glyph glyph-name="Uacute" unicode="&#xda;" horiz-adv-x="700" 
d="M266 761l108 140h159l-126 -140h-141zM349 -9q-134 0 -213.5 80t-79.5 225v414h168v-404q0 -69 32.5 -114t92.5 -45q57 0 92.5 42.5t35.5 116.5v404h167v-414q0 -141 -77.5 -223t-217.5 -82z" />
    <glyph glyph-name="Ucircumflex" unicode="&#xdb;" horiz-adv-x="700" 
d="M169 761l95 140h168l98 -140h-136l-45 65h-2l-45 -65h-133zM349 -9q-134 0 -213.5 80t-79.5 225v414h168v-404q0 -69 32.5 -114t92.5 -45q57 0 92.5 42.5t35.5 116.5v404h167v-414q0 -141 -77.5 -223t-217.5 -82z" />
    <glyph glyph-name="Udieresis" unicode="&#xdc;" horiz-adv-x="700" 
d="M237 756q-40 0 -66.5 25.5t-26.5 63.5q0 36 26.5 61.5t66.5 25.5t67 -25t27 -62q0 -38 -27 -63.5t-67 -25.5zM461 756q-40 0 -66.5 25.5t-26.5 63.5q0 36 26.5 61.5t66.5 25.5t66.5 -25t26.5 -62q0 -38 -26.5 -63.5t-66.5 -25.5zM349 -9q-134 0 -213.5 80t-79.5 225v414
h168v-404q0 -69 32.5 -114t92.5 -45q57 0 92.5 42.5t35.5 116.5v404h167v-414q0 -141 -77.5 -223t-217.5 -82z" />
    <glyph glyph-name="Yacute" unicode="&#xdd;" horiz-adv-x="636" 
d="M235 761l108 140h159l-126 -140h-141zM232 0v309l-231 401h191l125 -236h2l123 236h193l-233 -401v-309h-170z" />
    <glyph glyph-name="Thorn" unicode="&#xde;" horiz-adv-x="636" 
d="M64 0v710h163v-118h129q126 0 189 -67t63 -178q0 -114 -71 -173.5t-194 -59.5h-116v-114h-163zM227 260h97q54 0 82.5 24.5t28.5 66.5t-27 67.5t-81 25.5h-100v-184z" />
    <glyph glyph-name="germandbls" unicode="&#xdf;" horiz-adv-x="627" 
d="M288 -9v137h50q49 0 78.5 29t29.5 74q0 47 -32 76t-87 29h-29v127h22q44 0 66.5 23.5t22.5 52.5q0 32 -24.5 52.5t-67.5 20.5q-106 0 -106 -118v-494h-157v483q0 130 68 196.5t191 66.5q120 0 184 -55.5t64 -134.5q0 -90 -73 -136v-2q54 -26 84.5 -78.5t30.5 -117.5
q0 -106 -61.5 -168.5t-166.5 -62.5h-87z" />
    <glyph glyph-name="agrave" unicode="&#xe0;" horiz-adv-x="596" 
d="M248 548l-123 149l159 -1l106 -148h-142zM259 -9q-101 0 -166 70t-65 183q0 111 63.5 182.5t159.5 71.5q83 0 135 -61l2 1v51h157v-489h-149v51l-2 1q-48 -61 -135 -61zM292 129q43 0 73 32t30 83q0 50 -29.5 83t-73.5 33q-46 0 -75.5 -32t-29.5 -84t29 -83.5t76 -31.5z
" />
    <glyph glyph-name="aacute" unicode="&#xe1;" horiz-adv-x="596" 
d="M204 549l111 149l158 1l-124 -150h-145zM259 -9q-101 0 -166 70t-65 183q0 111 63.5 182.5t159.5 71.5q83 0 135 -61l2 1v51h157v-489h-149v51l-2 1q-48 -61 -135 -61zM292 129q43 0 73 32t30 83q0 50 -29.5 83t-73.5 33q-46 0 -75.5 -32t-29.5 -84t29 -83.5t76 -31.5z
" />
    <glyph glyph-name="acircumflex" unicode="&#xe2;" horiz-adv-x="596" 
d="M116 548l95 149h168l97 -149h-136l-44 72h-2l-45 -72h-133zM259 -9q-101 0 -166 70t-65 183q0 111 63.5 182.5t159.5 71.5q83 0 135 -61l2 1v51h157v-489h-149v51l-2 1q-48 -61 -135 -61zM292 129q43 0 73 32t30 83q0 50 -29.5 83t-73.5 33q-46 0 -75.5 -32t-29.5 -84
t29 -83.5t76 -31.5z" />
    <glyph glyph-name="atilde" unicode="&#xe3;" horiz-adv-x="596" 
d="M382 549q-40 0 -88 27q-36 20 -53 20q-33 0 -55 -48l-90 38q17 55 50 89t78 34q42 0 88 -26q30 -19 50 -19q34 0 55 46l90 -29q-17 -59 -49.5 -95.5t-75.5 -36.5zM259 -9q-101 0 -166 70t-65 183q0 111 63.5 182.5t159.5 71.5q83 0 135 -61l2 1v51h157v-489h-149v51l-2 1
q-48 -61 -135 -61zM292 129q43 0 73 32t30 83q0 50 -29.5 83t-73.5 33q-46 0 -75.5 -32t-29.5 -84t29 -83.5t76 -31.5z" />
    <glyph glyph-name="adieresis" unicode="&#xe4;" horiz-adv-x="596" 
d="M183 551q-40 0 -66.5 25.5t-26.5 63.5q0 36 26.5 61.5t66.5 25.5t67 -25t27 -62q0 -38 -27 -63.5t-67 -25.5zM407 551q-40 0 -66.5 25.5t-26.5 63.5q0 36 26.5 61.5t66.5 25.5t66.5 -25t26.5 -62q0 -38 -26.5 -63.5t-66.5 -25.5zM259 -9q-101 0 -166 70t-65 183
q0 111 63.5 182.5t159.5 71.5q83 0 135 -61l2 1v51h157v-489h-149v51l-2 1q-48 -61 -135 -61zM292 129q43 0 73 32t30 83q0 50 -29.5 83t-73.5 33q-46 0 -75.5 -32t-29.5 -84t29 -83.5t76 -31.5z" />
    <glyph glyph-name="aring" unicode="&#xe5;" horiz-adv-x="596" 
d="M296 538q-46 0 -78 30t-32 76q0 44 30.5 74.5t79.5 30.5q46 0 78 -29.5t32 -75.5q0 -44 -31 -75t-79 -31zM296 609q15 0 25.5 11t10.5 25q0 15 -10.5 25.5t-25.5 10.5t-25 -10.5t-10 -25.5t10 -25.5t25 -10.5zM259 -9q-101 0 -166 70t-65 183q0 111 63.5 182.5
t159.5 71.5q83 0 135 -61l2 1v51h157v-489h-149v51l-2 1q-48 -61 -135 -61zM292 129q43 0 73 32t30 83q0 50 -29.5 83t-73.5 33q-46 0 -75.5 -32t-29.5 -84t29 -83.5t76 -31.5z" />
    <glyph glyph-name="ae" unicode="&#xe6;" horiz-adv-x="790" 
d="M766 247q0 -22 -4 -44h-315q21 -83 113 -83q56 0 101 53l91 -95q-69 -87 -200 -87q-111 0 -171 64h-2q-29 -29 -75.5 -46.5t-98.5 -17.5q-91 0 -137 41.5t-46 109.5q0 152 200 152l74 1v4q0 41 -16 57t-50 16q-59 0 -123 -33l-55 113q83 46 193 46q95 0 139 -58h3
q61 58 154 58q99 0 162 -71t63 -180zM534 373q-71 0 -88 -78h169q-16 78 -81 78zM224 105q33 0 52.5 18.5t19.5 42.5v40l-57 -1q-69 -2 -69 -52q0 -22 14 -35t40 -13z" />
    <glyph glyph-name="ccedilla" unicode="&#xe7;" horiz-adv-x="522" 
d="M504 76q-69 -79 -202 -85l-12 -20l1 -2q104 -3 104 -80q0 -37 -35.5 -59.5t-103.5 -22.5q-35 0 -65 6v64q23 -7 46 -7q44 0 44 27q0 14 -20 22t-53 8v38l17 32q-88 18 -141.5 84t-53.5 162q0 115 71.5 185t188.5 70q136 0 211 -85l-101 -100q-35 46 -97 46
q-51 0 -83 -31.5t-32 -83.5q0 -51 32.5 -82.5t83.5 -31.5q61 0 104 46z" />
    <glyph glyph-name="egrave" unicode="&#xe8;" horiz-adv-x="550" 
d="M374 548h-142l-123 149l159 -1zM521 250q0 -17 -3 -47h-333q7 -41 39 -63t78 -22q68 2 114 53l90 -92q-71 -88 -220 -88q-112 0 -184 70.5t-72 183.5q0 111 70.5 182t181.5 71q104 0 171.5 -70t67.5 -178zM280 374q-36 0 -61.5 -20.5t-32.5 -57.5h183q-8 36 -31 57
t-58 21z" />
    <glyph glyph-name="eacute" unicode="&#xe9;" horiz-adv-x="550" 
d="M481 699l-124 -150h-145l111 149zM521 250q0 -17 -3 -47h-333q7 -41 39 -63t78 -22q68 2 114 53l90 -92q-71 -88 -220 -88q-112 0 -184 70.5t-72 183.5q0 111 70.5 182t181.5 71q104 0 171.5 -70t67.5 -178zM280 374q-36 0 -61.5 -20.5t-32.5 -57.5h183q-8 36 -31 57
t-58 21z" />
    <glyph glyph-name="ecircumflex" unicode="&#xea;" horiz-adv-x="550" 
d="M280 620l-45 -72h-133l95 149h168l97 -149h-136l-44 72h-2zM521 250q0 -17 -3 -47h-333q7 -41 39 -63t78 -22q68 2 114 53l90 -92q-71 -88 -220 -88q-112 0 -184 70.5t-72 183.5q0 111 70.5 182t181.5 71q104 0 171.5 -70t67.5 -178zM280 374q-36 0 -61.5 -20.5
t-32.5 -57.5h183q-8 36 -31 57t-58 21z" />
    <glyph glyph-name="edieresis" unicode="&#xeb;" horiz-adv-x="550" 
d="M169 551q-40 0 -66.5 25.5t-26.5 63.5q0 36 26.5 61.5t66.5 25.5t67 -25t27 -62q0 -38 -27 -63.5t-67 -25.5zM393 551q-40 0 -66.5 25.5t-26.5 63.5q0 36 26.5 61.5t66.5 25.5t66.5 -25t26.5 -62q0 -38 -26.5 -63.5t-66.5 -25.5zM521 250q0 -17 -3 -47h-333q7 -41 39 -63
t78 -22q68 2 114 53l90 -92q-71 -88 -220 -88q-112 0 -184 70.5t-72 183.5q0 111 70.5 182t181.5 71q104 0 171.5 -70t67.5 -178zM280 374q-36 0 -61.5 -20.5t-32.5 -57.5h183q-8 36 -31 57t-58 21z" />
    <glyph glyph-name="igrave" unicode="&#xec;" horiz-adv-x="274" 
d="M68 557l-83 150l157 -1l70 -149h-144zM59 0v489h156v-489h-156z" />
    <glyph glyph-name="iacute" unicode="&#xed;" horiz-adv-x="274" 
d="M68 549l111 149l158 1l-124 -150h-145zM59 0v489h156v-489h-156z" />
    <glyph glyph-name="icircumflex" unicode="&#xee;" horiz-adv-x="274" 
d="M-43 548l95 149h168l97 -149h-136l-44 72h-2l-45 -72h-133zM59 0v489h156v-489h-156z" />
    <glyph glyph-name="idieresis" unicode="&#xef;" horiz-adv-x="274" 
d="M36 550q-38 0 -65 26.5t-27 63.5q0 36 27 62t65 26q36 0 62.5 -26t26.5 -62q0 -37 -26.5 -63.5t-62.5 -26.5zM238 551q-37 0 -63.5 26t-26.5 63q0 35 26.5 61.5t63.5 26.5t63.5 -26.5t26.5 -61.5q0 -37 -26.5 -63t-63.5 -26zM59 0v489h156v-489h-156z" />
    <glyph glyph-name="eth" unicode="&#xf0;" horiz-adv-x="585" 
d="M408 589q148 -145 148 -320q0 -135 -71.5 -206.5t-191.5 -71.5q-114 0 -188.5 69t-74.5 174q0 110 63.5 178t154.5 68q47 0 89 -21l1 1q-72 97 -226 175l59 113q79 -37 144 -83l74 100l100 -72zM293 129q46 0 76 32.5t30 81.5t-29.5 80t-76.5 31q-46 0 -75.5 -31.5
t-29.5 -79.5q0 -49 30 -81.5t75 -32.5z" />
    <glyph glyph-name="ntilde" unicode="&#xf1;" horiz-adv-x="582" 
d="M386 549q-40 0 -88 27q-36 20 -53 20q-33 0 -55 -48l-90 38q17 55 50 89t78 34q42 0 88 -26q30 -19 50 -19q34 0 55 46l90 -29q-17 -59 -49.5 -95.5t-75.5 -36.5zM54 0v489h156v-57h2q57 66 147 66q175 0 175 -205v-293h-156v255q0 58 -19 81t-59 23q-42 0 -66 -28.5
t-24 -84.5v-246h-156z" />
    <glyph glyph-name="ograve" unicode="&#xf2;" horiz-adv-x="589" 
d="M241 548l-123 149l159 -1l106 -148h-142zM295 -9q-118 0 -191.5 70.5t-73.5 182.5t73.5 183t191.5 71q116 0 190 -70.5t74 -183.5q0 -112 -74 -182.5t-190 -70.5zM295 129q45 0 75.5 32.5t30.5 82.5q0 51 -30 83t-76 32q-47 0 -77 -32.5t-30 -82.5q0 -49 30.5 -82
t76.5 -33z" />
    <glyph glyph-name="oacute" unicode="&#xf3;" horiz-adv-x="589" 
d="M223 549l111 149l158 1l-124 -150h-145zM295 -9q-118 0 -191.5 70.5t-73.5 182.5t73.5 183t191.5 71q116 0 190 -70.5t74 -183.5q0 -112 -74 -182.5t-190 -70.5zM295 129q45 0 75.5 32.5t30.5 82.5q0 51 -30 83t-76 32q-47 0 -77 -32.5t-30 -82.5q0 -49 30.5 -82
t76.5 -33z" />
    <glyph glyph-name="ocircumflex" unicode="&#xf4;" horiz-adv-x="589" 
d="M115 548l95 149h168l97 -149h-136l-44 72h-2l-45 -72h-133zM295 -9q-118 0 -191.5 70.5t-73.5 182.5t73.5 183t191.5 71q116 0 190 -70.5t74 -183.5q0 -112 -74 -182.5t-190 -70.5zM295 129q45 0 75.5 32.5t30.5 82.5q0 51 -30 83t-76 32q-47 0 -77 -32.5t-30 -82.5
q0 -49 30.5 -82t76.5 -33z" />
    <glyph glyph-name="otilde" unicode="&#xf5;" horiz-adv-x="589" 
d="M381 549q-40 0 -88 27q-36 20 -53 20q-33 0 -55 -48l-90 38q17 55 50 89t78 34q43 0 88 -26q30 -19 50 -19q34 0 55 46l90 -29q-17 -59 -49.5 -95.5t-75.5 -36.5zM295 -9q-118 0 -191.5 70.5t-73.5 182.5t73.5 183t191.5 71q116 0 190 -70.5t74 -183.5q0 -112 -74 -182.5
t-190 -70.5zM295 129q45 0 75.5 32.5t30.5 82.5q0 51 -30 83t-76 32q-47 0 -77 -32.5t-30 -82.5q0 -49 30.5 -82t76.5 -33z" />
    <glyph glyph-name="odieresis" unicode="&#xf6;" horiz-adv-x="589" 
d="M182 551q-40 0 -66.5 25.5t-26.5 63.5q0 36 26.5 61.5t66.5 25.5t67 -25t27 -62q0 -38 -27 -63.5t-67 -25.5zM406 551q-40 0 -66.5 25.5t-26.5 63.5q0 36 26.5 61.5t66.5 25.5t66.5 -25t26.5 -62q0 -38 -26.5 -63.5t-66.5 -25.5zM295 -9q-118 0 -191.5 70.5t-73.5 182.5
t73.5 183t191.5 71q116 0 190 -70.5t74 -183.5q0 -112 -74 -182.5t-190 -70.5zM295 129q45 0 75.5 32.5t30.5 82.5q0 51 -30 83t-76 32q-47 0 -77 -32.5t-30 -82.5q0 -49 30.5 -82t76.5 -33z" />
    <glyph glyph-name="divide" unicode="&#xf7;" horiz-adv-x="560" 
d="M279 392q-37 0 -62 24t-25 60q0 34 25 58t62 24q38 0 63 -23.5t25 -58.5q0 -36 -25 -60t-63 -24zM44 212v131h478v-131h-478zM279 -8q-37 0 -62 24t-25 60q0 34 25 58t62 24q38 0 63 -23.5t25 -58.5q0 -36 -25 -60t-63 -24z" />
    <glyph glyph-name="oslash" unicode="&#xf8;" horiz-adv-x="589" 
d="M502 410q57 -68 57 -166q0 -112 -74 -182.5t-190 -70.5q-84 0 -146 37l-52 -56l-58 54l49 53q-58 67 -58 165q0 112 73.5 183t191.5 71q83 0 146 -37l50 54l58 -54zM188 244q0 -26 9 -47l142 153q-21 9 -44 9q-47 0 -77 -32.5t-30 -82.5zM295 129q45 0 75.5 32.5
t30.5 82.5q0 26 -8 48l-142 -154q20 -9 44 -9z" />
    <glyph glyph-name="ugrave" unicode="&#xf9;" horiz-adv-x="570" 
d="M232 548l-123 149l159 -1l106 -148h-142zM222 -9q-176 0 -176 208v290h156v-251q0 -59 17.5 -84t57.5 -25q37 0 61.5 30.5t24.5 87.5v242h157v-489h-157v55l-2 1q-53 -65 -139 -65z" />
    <glyph glyph-name="uacute" unicode="&#xfa;" horiz-adv-x="570" 
d="M208 549l111 149l158 1l-124 -150h-145zM222 -9q-176 0 -176 208v290h156v-251q0 -59 17.5 -84t57.5 -25q37 0 61.5 30.5t24.5 87.5v242h157v-489h-157v55l-2 1q-53 -65 -139 -65z" />
    <glyph glyph-name="ucircumflex" unicode="&#xfb;" horiz-adv-x="570" 
d="M106 548l95 149h168l97 -149h-136l-44 72h-2l-45 -72h-133zM222 -9q-176 0 -176 208v290h156v-251q0 -59 17.5 -84t57.5 -25q37 0 61.5 30.5t24.5 87.5v242h157v-489h-157v55l-2 1q-53 -65 -139 -65z" />
    <glyph glyph-name="udieresis" unicode="&#xfc;" horiz-adv-x="570" 
d="M173 551q-40 0 -66.5 25.5t-26.5 63.5q0 36 26.5 61.5t66.5 25.5t67 -25t27 -62q0 -38 -27 -63.5t-67 -25.5zM397 551q-40 0 -66.5 25.5t-26.5 63.5q0 36 26.5 61.5t66.5 25.5t66.5 -25t26.5 -62q0 -38 -26.5 -63.5t-66.5 -25.5zM222 -9q-176 0 -176 208v290h156v-251
q0 -59 17.5 -84t57.5 -25q37 0 61.5 30.5t24.5 87.5v242h157v-489h-157v55l-2 1q-53 -65 -139 -65z" />
    <glyph glyph-name="yacute" unicode="&#xfd;" horiz-adv-x="536" 
d="M184 549l111 149l158 1l-124 -150h-145zM116 -198l84 231l-191 456h167l98 -263h3l94 263h156l-257 -687h-154z" />
    <glyph glyph-name="thorn" unicode="&#xfe;" horiz-adv-x="604" 
d="M54 -198v934h156v-298h2q52 60 139 60q96 0 159.5 -71t63.5 -183q0 -113 -64.5 -183t-166.5 -70q-83 0 -131 57l-2 -1v-245h-156zM312 129q45 0 74.5 32t29.5 83q0 52 -29.5 84t-75.5 32q-47 0 -77.5 -33t-30.5 -83q0 -52 31 -83.5t78 -31.5z" />
    <glyph glyph-name="ydieresis" unicode="&#xff;" horiz-adv-x="536" 
d="M157 551q-40 0 -66.5 25.5t-26.5 63.5q0 36 26.5 61.5t66.5 25.5t67 -25t27 -62q0 -38 -27 -63.5t-67 -25.5zM381 551q-40 0 -66.5 25.5t-26.5 63.5q0 36 26.5 61.5t66.5 25.5t66.5 -25t26.5 -62q0 -38 -26.5 -63.5t-66.5 -25.5zM116 -198l84 231l-191 456h167l98 -263h3
l94 263h156l-257 -687h-154z" />
    <glyph glyph-name="Amacron" unicode="&#x100;" horiz-adv-x="694" 
d="M190 777v114h313v-114h-313zM6 0l261 710h160l260 -710h-174l-42 128h-248l-42 -128h-175zM268 268h159l-79 240h-2z" />
    <glyph glyph-name="amacron" unicode="&#x101;" horiz-adv-x="596" 
d="M139 573v120h313v-120h-313zM259 -9q-101 0 -166 70t-65 183q0 111 63.5 182.5t159.5 71.5q83 0 135 -61l2 1v51h157v-489h-149v51l-2 1q-48 -61 -135 -61zM292 129q43 0 73 32t30 83q0 50 -29.5 83t-73.5 33q-46 0 -75.5 -32t-29.5 -84t29 -83.5t76 -31.5z" />
    <glyph glyph-name="Abreve" unicode="&#x102;" horiz-adv-x="694" 
d="M346 754q-76 0 -120.5 38t-51.5 109h114q2 -20 18 -33t40 -13q25 0 41 13.5t18 32.5h114q-6 -68 -49 -107.5t-124 -39.5zM6 0l261 710h160l260 -710h-174l-42 128h-248l-42 -128h-175zM268 268h159l-79 240h-2z" />
    <glyph glyph-name="abreve" unicode="&#x103;" horiz-adv-x="596" 
d="M295 539q-71 0 -118.5 41.5t-53.5 115.5h114q2 -21 18 -35t40 -14q25 0 41 14.5t18 34.5h114q-5 -70 -50.5 -113.5t-122.5 -43.5zM259 -9q-101 0 -166 70t-65 183q0 111 63.5 182.5t159.5 71.5q83 0 135 -61l2 1v51h157v-489h-149v51l-2 1q-48 -61 -135 -61zM292 129
q43 0 73 32t30 83q0 50 -29.5 83t-73.5 33q-46 0 -75.5 -32t-29.5 -84t29 -83.5t76 -31.5z" />
    <glyph glyph-name="Aogonek" unicode="&#x104;" horiz-adv-x="694" 
d="M659 0q-42 -2 -68 -23t-26 -46q0 -39 39 -39q12 0 37 5l7 -77q-29 -11 -76 -11q-55 0 -87.5 26t-32.5 68q0 60 60 99l-41 126h-248l-42 -128h-175l261 710h160l260 -710h-28zM268 268h159l-79 240h-2z" />
    <glyph glyph-name="aogonek" unicode="&#x105;" horiz-adv-x="596" 
d="M388 489h157v-489h-9q-42 -2 -68 -23t-26 -46q0 -39 39 -39q12 0 37 5l7 -77q-29 -11 -76 -11q-55 0 -87.5 26t-32.5 68q0 64 67 104v44l-2 1q-48 -61 -135 -61q-101 0 -166 70t-65 183q0 111 63.5 182.5t159.5 71.5q83 0 135 -61l2 1v51zM292 129q43 0 73 32t30 83
q0 50 -29.5 83t-73.5 33q-46 0 -75.5 -32t-29.5 -84t29 -83.5t76 -31.5z" />
    <glyph glyph-name="Cacute" unicode="&#x106;" horiz-adv-x="714" 
d="M317 761l108 140h159l-126 -140h-141zM405 -9q-159 0 -263 96t-104 267q0 158 98 262t268 104q79 0 154.5 -34.5t131.5 -102.5l-122 -105q-69 82 -164 82q-80 0 -135 -56t-55 -150q0 -87 53 -145t138 -58q97 0 164 80l122 -105q-49 -60 -122.5 -97.5t-163.5 -37.5z" />
    <glyph glyph-name="cacute" unicode="&#x107;" horiz-adv-x="522" 
d="M211 549l111 149l158 1l-124 -150h-145zM286 -9q-112 0 -184 70t-72 182q0 115 71.5 185t188.5 70q136 0 211 -85l-101 -100q-35 46 -97 46q-51 0 -83 -31.5t-32 -83.5q0 -51 32.5 -82.5t83.5 -31.5q61 0 104 46l96 -100q-73 -85 -218 -85z" />
    <glyph glyph-name="Ccircumflex" unicode="&#x108;" horiz-adv-x="714" 
d="M223 761l95 140h168l98 -140h-136l-45 65h-2l-45 -65h-133zM405 -9q-159 0 -263 96t-104 267q0 158 98 262t268 104q79 0 154.5 -34.5t131.5 -102.5l-122 -105q-69 82 -164 82q-80 0 -135 -56t-55 -150q0 -87 53 -145t138 -58q97 0 164 80l122 -105q-49 -60 -122.5 -97.5
t-163.5 -37.5z" />
    <glyph glyph-name="ccircumflex" unicode="&#x109;" horiz-adv-x="522" 
d="M110 548l95 149h168l97 -149h-136l-44 72h-2l-45 -72h-133zM286 -9q-112 0 -184 70t-72 182q0 115 71.5 185t188.5 70q136 0 211 -85l-101 -100q-35 46 -97 46q-51 0 -83 -31.5t-32 -83.5q0 -51 32.5 -82.5t83.5 -31.5q61 0 104 46l96 -100q-73 -85 -218 -85z" />
    <glyph glyph-name="Cdotaccent" unicode="&#x10a;" horiz-adv-x="714" 
d="M404 755q-40 0 -66.5 26t-26.5 64q0 37 26.5 62.5t66.5 25.5t67 -25.5t27 -62.5q0 -38 -27 -64t-67 -26zM405 -9q-159 0 -263 96t-104 267q0 158 98 262t268 104q79 0 154.5 -34.5t131.5 -102.5l-122 -105q-69 82 -164 82q-80 0 -135 -56t-55 -150q0 -87 53 -145t138 -58
q97 0 164 80l122 -105q-49 -60 -122.5 -97.5t-163.5 -37.5z" />
    <glyph glyph-name="cdotaccent" unicode="&#x10b;" horiz-adv-x="522" 
d="M290 550q-40 0 -66.5 26t-26.5 64q0 37 26.5 62.5t66.5 25.5t67 -25.5t27 -62.5q0 -38 -27 -64t-67 -26zM286 -9q-112 0 -184 70t-72 182q0 115 71.5 185t188.5 70q136 0 211 -85l-101 -100q-35 46 -97 46q-51 0 -83 -31.5t-32 -83.5q0 -51 32.5 -82.5t83.5 -31.5
q61 0 104 46l96 -100q-73 -85 -218 -85z" />
    <glyph glyph-name="Ccaron" unicode="&#x10c;" horiz-adv-x="714" 
d="M321 761l-98 140h136l45 -65h2l45 65h133l-95 -140h-168zM405 -9q-159 0 -263 96t-104 267q0 158 98 262t268 104q79 0 154.5 -34.5t131.5 -102.5l-122 -105q-69 82 -164 82q-80 0 -135 -56t-55 -150q0 -87 53 -145t138 -58q97 0 164 80l122 -105q-49 -60 -122.5 -97.5
t-163.5 -37.5z" />
    <glyph glyph-name="ccaron" unicode="&#x10d;" horiz-adv-x="522" 
d="M207 547l-97 149h137l44 -72h2l44 72h133l-94 -149h-169zM286 -9q-112 0 -184 70t-72 182q0 115 71.5 185t188.5 70q136 0 211 -85l-101 -100q-35 46 -97 46q-51 0 -83 -31.5t-32 -83.5q0 -51 32.5 -82.5t83.5 -31.5q61 0 104 46l96 -100q-73 -85 -218 -85z" />
    <glyph glyph-name="Dcaron" unicode="&#x10e;" horiz-adv-x="717" 
d="M257 760l-98 140h136l45 -65h2l45 65h133l-95 -140h-168zM64 0v710h246q167 0 268 -98.5t101 -257.5t-98 -256.5t-268 -97.5h-249zM227 149h75q90 0 146 58.5t56 146.5q0 89 -54 148t-136 59h-87v-412z" />
    <glyph glyph-name="dcaron" unicode="&#x10f;" horiz-adv-x="670" 
d="M602 577l32 217h148l-71 -217h-109zM260 -9q-102 0 -166.5 70t-64.5 183q0 111 63.5 182.5t159.5 71.5q87 0 140 -61h1v299h157v-736h-149v52h-2q-49 -61 -139 -61zM292 129q46 0 76.5 31.5t30.5 83.5q0 50 -30 83t-77 33q-45 0 -75 -32t-30 -84q0 -51 29.5 -83t75.5 -32
z" />
    <glyph glyph-name="Dcroat" unicode="&#x110;" horiz-adv-x="717" 
d="M310 710q167 0 268 -98.5t101 -257.5t-98 -256.5t-268 -97.5h-249v278h-48v140h48v292h246zM302 149q90 0 146 58.5t56 146.5q0 89 -54 148t-136 59h-87v-143h135v-140h-135v-129h75z" />
    <glyph glyph-name="dcroat" unicode="&#x111;" horiz-adv-x="601" 
d="M606 638v-93h-56v-545h-149v52h-2q-49 -61 -139 -61q-102 0 -166.5 70t-64.5 183q0 111 63.5 182.5t159.5 71.5q87 0 140 -61h1v108h-165v93h165v98h157v-98h56zM292 129q46 0 76.5 31.5t30.5 83.5q0 50 -30 83t-77 33q-45 0 -75 -32t-30 -84q0 -51 29.5 -83t75.5 -32z
" />
    <glyph glyph-name="Emacron" unicode="&#x112;" horiz-adv-x="585" 
d="M142 776v114h313v-114h-313zM64 0v710h463v-149h-300v-136h237v-144h-237v-132h321v-149h-484z" />
    <glyph glyph-name="emacron" unicode="&#x113;" horiz-adv-x="550" 
d="M438 693v-120h-313v120h313zM521 250q0 -17 -3 -47h-333q7 -41 39 -63t78 -22q68 2 114 53l90 -92q-71 -88 -220 -88q-112 0 -184 70.5t-72 183.5q0 111 70.5 182t181.5 71q104 0 171.5 -70t67.5 -178zM280 374q-36 0 -61.5 -20.5t-32.5 -57.5h183q-8 36 -31 57t-58 21z
" />
    <glyph glyph-name="Ebreve" unicode="&#x114;" horiz-adv-x="585" 
d="M298 753q-76 0 -120.5 38t-51.5 109h114q2 -20 18 -33t40 -13q25 0 41 13.5t18 32.5h114q-6 -68 -49 -107.5t-124 -39.5zM64 0v710h463v-149h-300v-136h237v-144h-237v-132h321v-149h-484z" />
    <glyph glyph-name="ebreve" unicode="&#x115;" horiz-adv-x="550" 
d="M281 539q-71 0 -118.5 41.5t-53.5 115.5h114q2 -21 18 -35t40 -14q25 0 41 14.5t18 34.5h114q-5 -70 -50.5 -113.5t-122.5 -43.5zM521 250q0 -17 -3 -47h-333q7 -41 39 -63t78 -22q68 2 114 53l90 -92q-71 -88 -220 -88q-112 0 -184 70.5t-72 183.5q0 111 70.5 182
t181.5 71q104 0 171.5 -70t67.5 -178zM280 374q-36 0 -61.5 -20.5t-32.5 -57.5h183q-8 36 -31 57t-58 21z" />
    <glyph glyph-name="Edotaccent" unicode="&#x116;" horiz-adv-x="585" 
d="M299 754q-40 0 -66.5 26t-26.5 64q0 37 26.5 62.5t66.5 25.5t67 -25.5t27 -62.5q0 -38 -27 -64t-67 -26zM64 0v710h463v-149h-300v-136h237v-144h-237v-132h321v-149h-484z" />
    <glyph glyph-name="edotaccent" unicode="&#x117;" horiz-adv-x="550" 
d="M282 550q-40 0 -66.5 26t-26.5 64q0 37 26.5 62.5t66.5 25.5t67 -25.5t27 -62.5q0 -38 -27 -64t-67 -26zM521 250q0 -17 -3 -47h-333q7 -41 39 -63t78 -22q68 2 114 53l90 -92q-71 -88 -220 -88q-112 0 -184 70.5t-72 183.5q0 111 70.5 182t181.5 71q104 0 171.5 -70
t67.5 -178zM280 374q-36 0 -61.5 -20.5t-32.5 -57.5h183q-8 36 -31 57t-58 21z" />
    <glyph glyph-name="Eogonek" unicode="&#x118;" horiz-adv-x="585" 
d="M227 149h321v-149h-3q-42 -2 -68 -23t-26 -46q0 -39 39 -39q12 0 37 5l7 -77q-29 -11 -76 -11q-55 0 -87.5 26t-32.5 68q0 59 57 97h-331v710h463v-149h-300v-136h237v-144h-237v-132z" />
    <glyph glyph-name="eogonek" unicode="&#x119;" horiz-adv-x="550" 
d="M521 250q0 -17 -3 -47h-333q7 -41 39 -63t78 -22q68 2 114 53l90 -92q-52 -63 -144 -81q-65 -27 -65 -65q0 -18 10.5 -28t27.5 -10q10 0 38 5l6 -78q-28 -12 -75 -12q-57 0 -90 26.5t-33 68.5q0 50 46 89v3q-89 17 -143 84t-54 164q0 111 70.5 182t181.5 71
q104 0 171.5 -70t67.5 -178zM280 374q-36 0 -61.5 -20.5t-32.5 -57.5h183q-8 36 -31 57t-58 21z" />
    <glyph glyph-name="Ecaron" unicode="&#x11a;" horiz-adv-x="585" 
d="M216 760l-98 140h136l45 -65h2l45 65h133l-95 -140h-168zM64 0v710h463v-149h-300v-136h237v-144h-237v-132h321v-149h-484z" />
    <glyph glyph-name="ecaron" unicode="&#x11b;" horiz-adv-x="550" 
d="M368 547h-169l-97 149h137l44 -72h2l44 72h133zM521 250q0 -17 -3 -47h-333q7 -41 39 -63t78 -22q68 2 114 53l90 -92q-71 -88 -220 -88q-112 0 -184 70.5t-72 183.5q0 111 70.5 182t181.5 71q104 0 171.5 -70t67.5 -178zM280 374q-36 0 -61.5 -20.5t-32.5 -57.5h183
q-8 36 -31 57t-58 21z" />
    <glyph glyph-name="Gcircumflex" unicode="&#x11c;" horiz-adv-x="737" 
d="M207 760l95 140h168l98 -140h-136l-45 65h-2l-45 -65h-133zM405 -8q-159 0 -263 97t-104 265q0 159 97 262.5t263 103.5q80 0 157.5 -33t130.5 -94l-118 -100q-72 70 -170 70q-79 0 -132 -56.5t-53 -152.5q0 -89 52 -149t140 -60q65 0 123 31v84h-138v138h298v-319
q-50 -39 -126.5 -63t-156.5 -24z" />
    <glyph glyph-name="gcircumflex" unicode="&#x11d;" horiz-adv-x="594" 
d="M116 548l95 149h168l97 -149h-136l-44 72h-2l-45 -72h-133zM280 -207q-116 0 -201 47l35 127q73 -43 149 -43q61 0 94.5 26.5t33.5 66.5v45l-2 1q-52 -54 -135 -54q-99 0 -162.5 68t-63.5 173q0 108 62 178t155 70q85 0 140 -57h2v48h157v-425q0 -271 -264 -271zM291 148
q44 0 73.5 30t29.5 76t-29.5 75.5t-73.5 29.5q-45 0 -74.5 -29.5t-29.5 -76.5t29.5 -76t74.5 -29z" />
    <glyph glyph-name="Gbreve" unicode="&#x11e;" horiz-adv-x="737" 
d="M387 753q-76 0 -120.5 38t-51.5 109h114q2 -20 18 -33t40 -13q25 0 41 13.5t18 32.5h114q-6 -68 -49 -107.5t-124 -39.5zM405 -8q-159 0 -263 97t-104 265q0 159 97 262.5t263 103.5q80 0 157.5 -33t130.5 -94l-118 -100q-72 70 -170 70q-79 0 -132 -56.5t-53 -152.5
q0 -89 52 -149t140 -60q65 0 123 31v84h-138v138h298v-319q-50 -39 -126.5 -63t-156.5 -24z" />
    <glyph glyph-name="gbreve" unicode="&#x11f;" horiz-adv-x="594" 
d="M295 539q-71 0 -118.5 41.5t-53.5 115.5h114q2 -21 18 -35t40 -14q25 0 41 14.5t18 34.5h114q-5 -70 -50.5 -113.5t-122.5 -43.5zM280 -207q-116 0 -201 47l35 127q73 -43 149 -43q61 0 94.5 26.5t33.5 66.5v45l-2 1q-52 -54 -135 -54q-99 0 -162.5 68t-63.5 173
q0 108 62 178t155 70q85 0 140 -57h2v48h157v-425q0 -271 -264 -271zM291 148q44 0 73.5 30t29.5 76t-29.5 75.5t-73.5 29.5q-45 0 -74.5 -29.5t-29.5 -76.5t29.5 -76t74.5 -29z" />
    <glyph glyph-name="Gdotaccent" unicode="&#x120;" horiz-adv-x="737" 
d="M388 754q-40 0 -66.5 26t-26.5 64q0 37 26.5 62.5t66.5 25.5t67 -25.5t27 -62.5q0 -38 -27 -64t-67 -26zM405 -8q-159 0 -263 97t-104 265q0 159 97 262.5t263 103.5q80 0 157.5 -33t130.5 -94l-118 -100q-72 70 -170 70q-79 0 -132 -56.5t-53 -152.5q0 -89 52 -149
t140 -60q65 0 123 31v84h-138v138h298v-319q-50 -39 -126.5 -63t-156.5 -24z" />
    <glyph glyph-name="gdotaccent" unicode="&#x121;" horiz-adv-x="594" 
d="M296 550q-40 0 -66.5 26t-26.5 64q0 37 26.5 62.5t66.5 25.5t67 -25.5t27 -62.5q0 -38 -27 -64t-67 -26zM280 -207q-116 0 -201 47l35 127q73 -43 149 -43q61 0 94.5 26.5t33.5 66.5v45l-2 1q-52 -54 -135 -54q-99 0 -162.5 68t-63.5 173q0 108 62 178t155 70
q85 0 140 -57h2v48h157v-425q0 -271 -264 -271zM291 148q44 0 73.5 30t29.5 76t-29.5 75.5t-73.5 29.5q-45 0 -74.5 -29.5t-29.5 -76.5t29.5 -76t74.5 -29z" />
    <glyph glyph-name="Gcommaaccent" unicode="&#x122;" horiz-adv-x="737" 
d="M405 -8q-159 0 -263 97t-104 265q0 159 97 262.5t263 103.5q80 0 157.5 -33t130.5 -94l-118 -100q-72 70 -170 70q-79 0 -132 -56.5t-53 -152.5q0 -89 52 -149t140 -60q65 0 123 31v84h-138v138h298v-319q-50 -39 -126.5 -63t-156.5 -24zM302 -221l-28 85q29 6 41.5 16.5
t12.5 30.5q0 15 -7 36h128q5 -23 5 -42q0 -60 -39.5 -92t-112.5 -34z" />
    <glyph glyph-name="gcommaaccent" unicode="&#x123;" horiz-adv-x="594" 
d="M381 734l28 -85q-29 -6 -41.5 -16.5t-12.5 -30.5q0 -15 7 -36h-128q-5 23 -5 42q0 60 39.5 92t112.5 34zM280 -207q-116 0 -201 47l35 127q73 -43 149 -43q61 0 94.5 26.5t33.5 66.5v45l-2 1q-52 -54 -135 -54q-99 0 -162.5 68t-63.5 173q0 108 62 178t155 70
q85 0 140 -57h2v48h157v-425q0 -271 -264 -271zM291 148q44 0 73.5 30t29.5 76t-29.5 75.5t-73.5 29.5q-45 0 -74.5 -29.5t-29.5 -76.5t29.5 -76t74.5 -29z" />
    <glyph glyph-name="Hcircumflex" unicode="&#x124;" horiz-adv-x="715" 
d="M180 761l95 140h168l98 -140h-136l-45 65h-2l-45 -65h-133zM64 0v710h169v-294h250v294h168v-710h-168v268h-250v-268h-169z" />
    <glyph glyph-name="hcircumflex" unicode="&#x125;" horiz-adv-x="587" 
d="M79 773l95 140h168l98 -140h-136l-45 65h-2l-45 -65h-133zM54 0v736h156v-302l2 -1q57 65 151 65q176 0 176 -203v-295h-156v256q0 57 -19.5 80t-62.5 23t-67 -28t-24 -84v-247h-156z" />
    <glyph glyph-name="Hbar" unicode="&#x126;" horiz-adv-x="734" 
d="M712 617v-108h-52v-509h-168v268h-250v-268h-169v509h-48v108h48v93h169v-93h250v93h168v-93h52zM492 416v93h-250v-93h250z" />
    <glyph glyph-name="hbar" unicode="&#x127;" horiz-adv-x="587" 
d="M363 498q176 0 176 -203v-295h-156v256q0 57 -19.5 80t-62.5 23t-67 -28t-24 -84v-247h-156v545h-54v93h54v98h156v-98h166v-93h-166v-111l2 -1q57 65 151 65z" />
    <glyph glyph-name="Itilde" unicode="&#x128;" horiz-adv-x="308" 
d="M239 760q-34 0 -86 27q-38 20 -55 20q-33 0 -54 -46l-90 35q17 50 49.5 82.5t77.5 32.5q49 0 90 -27q31 -18 51 -18q32 0 53 46l90 -29q-18 -55 -50 -89t-76 -34zM68 0v710h171v-710h-171z" />
    <glyph glyph-name="itilde" unicode="&#x129;" horiz-adv-x="274" 
d="M36 542l-91 38q42 113 124 113q33 0 79 -26q32 -18 44 -18q28 0 51 46l89 -29q-17 -52 -48.5 -87t-74.5 -35q-31 0 -73 25q-34 21 -52 20q-28 0 -48 -47zM59 0v489h156v-489h-156z" />
    <glyph glyph-name="Imacron" unicode="&#x12a;" horiz-adv-x="308" 
d="M-3 776v114h313v-114h-313zM68 0v710h171v-710h-171z" />
    <glyph glyph-name="imacron" unicode="&#x12b;" horiz-adv-x="274" 
d="M-20 573v120h313v-120h-313zM59 0v489h156v-489h-156z" />
    <glyph glyph-name="Ibreve" unicode="&#x12c;" horiz-adv-x="308" 
d="M153 753q-76 0 -120.5 38t-51.5 109h114q2 -20 18 -33t40 -13q25 0 41 13.5t18 32.5h114q-6 -68 -49 -107.5t-124 -39.5zM68 0v710h171v-710h-171z" />
    <glyph glyph-name="ibreve" unicode="&#x12d;" horiz-adv-x="274" 
d="M137 550q-62 0 -103.5 41t-47.5 115h110q5 -57 41 -57q37 0 40 57h112q-6 -69 -45 -112.5t-107 -43.5zM59 0v489h156v-489h-156z" />
    <glyph glyph-name="Iogonek" unicode="&#x12e;" horiz-adv-x="308" 
d="M68 710h171v-710h-20q-42 -2 -68 -23t-26 -46q0 -39 39 -39q12 0 37 5l7 -77q-29 -11 -76 -11q-55 0 -87.5 26t-32.5 68q0 59 57 97h-1v710z" />
    <glyph glyph-name="iogonek" unicode="&#x12f;" horiz-adv-x="274" 
d="M137 550q-40 0 -66.5 26t-26.5 64q0 37 26.5 62.5t66.5 25.5t67 -25.5t27 -62.5q0 -38 -27 -64t-67 -26zM59 2v487h156v-489h-8q-42 -2 -68 -23t-26 -46q0 -39 39 -39q12 0 37 5l7 -77q-29 -11 -76 -11q-55 0 -87.5 26t-32.5 68q0 59 59 99z" />
    <glyph glyph-name="Idotaccent" unicode="&#x130;" horiz-adv-x="308" 
d="M154 754q-40 0 -66.5 26t-26.5 64q0 37 26.5 62.5t66.5 25.5t67 -25.5t27 -62.5q0 -38 -27 -64t-67 -26zM68 0v710h171v-710h-171z" />
    <glyph glyph-name="dotlessi" unicode="&#x131;" horiz-adv-x="274" 
d="M59 0v489h156v-489h-156z" />
    <glyph glyph-name="IJ" unicode="&#x132;" horiz-adv-x="810" 
d="M68 0v710h171v-710h-171zM526 -9q-130 0 -205 95l97 115q41 -54 94 -54q70 0 70 102v461h170v-458q0 -261 -226 -261z" />
    <glyph glyph-name="ij" unicode="&#x133;" horiz-adv-x="535" 
d="M137 550q-40 0 -66.5 26t-26.5 64q0 37 26.5 62.5t66.5 25.5t67 -25.5t27 -62.5q0 -38 -27 -64t-67 -26zM406 550q-40 0 -66.5 26t-26.5 64q0 37 26.5 62.5t66.5 25.5t67 -25.5t27 -62.5q0 -38 -27 -64t-67 -26zM59 0v489h156v-489h-156zM329 -207q-61 0 -111 18l25 124
q21 -9 45 -9q22 0 30.5 15t8.5 48v500h156v-513q0 -90 -40 -136.5t-114 -46.5z" />
    <glyph glyph-name="Jcircumflex" unicode="&#x134;" horiz-adv-x="502" 
d="M180 761l95 140h168l98 -140h-136l-45 65h-2l-45 -65h-133zM218 -9q-130 0 -205 95l97 115q41 -54 94 -54q70 0 70 102v461h170v-458q0 -261 -226 -261z" />
    <glyph glyph-name="jcircumflex" unicode="&#x135;" horiz-adv-x="261" 
d="M-48 548l95 149h168l97 -149h-136l-44 72h-2l-45 -72h-133zM55 -207q-61 0 -111 18l25 124q21 -9 45 -9q22 0 30.5 15t8.5 48v500h156v-513q0 -90 -40 -136.5t-114 -46.5z" />
    <glyph glyph-name="Kcommaaccent" unicode="&#x136;" horiz-adv-x="662" 
d="M64 0v710h167v-272h2l206 272h211l-256 -308l265 -402h-205l-170 270l-53 -65v-205h-167zM253 -221l-28 85q29 6 41.5 16.5t12.5 30.5q0 15 -7 36h128q5 -23 5 -42q0 -60 -39.5 -92t-112.5 -34z" />
    <glyph glyph-name="kcommaaccent" unicode="&#x137;" horiz-adv-x="538" 
d="M54 0v736h154v-423h2l143 176h181l-165 -195l170 -294h-173l-109 192l-49 -54v-138h-154zM192 -221l-28 85q29 6 41.5 16.5t12.5 30.5q0 15 -7 36h128q5 -23 5 -42q0 -60 -39.5 -92t-112.5 -34z" />
    <glyph glyph-name="kgreenlandic" unicode="&#x138;" horiz-adv-x="549" 
d="M54 0v489h154v-180h2l149 180h183l-175 -199l183 -290h-177l-117 190l-48 -52v-138h-154z" />
    <glyph glyph-name="Lacute" unicode="&#x139;" horiz-adv-x="553" 
d="M173 761l108 140h159l-126 -140h-141zM64 0v710h171v-561h295v-149h-466z" />
    <glyph glyph-name="lacute" unicode="&#x13a;" horiz-adv-x="274" 
d="M63 774l108 140h159l-126 -140h-141zM59 0v736h156v-736h-156z" />
    <glyph glyph-name="Lcommaaccent" unicode="&#x13b;" horiz-adv-x="553" 
d="M64 0v710h171v-561h295v-149h-466zM215 -221l-28 85q29 6 41.5 16.5t12.5 30.5q0 15 -7 36h128q5 -23 5 -42q0 -60 -39.5 -92t-112.5 -34z" />
    <glyph glyph-name="lcommaaccent" unicode="&#x13c;" horiz-adv-x="274" 
d="M59 0v736h156v-736h-156zM53 -221l-28 85q29 6 41.5 16.5t12.5 30.5q0 15 -7 36h128q5 -23 5 -42q0 -60 -39.5 -92t-112.5 -34z" />
    <glyph glyph-name="Lcaron" unicode="&#x13d;" horiz-adv-x="566" 
d="M336 575l32 217h148l-71 -217h-109zM64 0v710h171v-561h295v-149h-466z" />
    <glyph glyph-name="lcaron" unicode="&#x13e;" horiz-adv-x="336" 
d="M267 577l32 217h148l-71 -217h-109zM59 0v736h156v-736h-156z" />
    <glyph glyph-name="Ldot" unicode="&#x13f;" horiz-adv-x="553" 
d="M64 0v710h171v-561h295v-149h-466zM429 253q-38 0 -64 25.5t-26 62.5t26.5 63t63.5 26t63.5 -26t26.5 -63t-26.5 -62.5t-63.5 -25.5z" />
    <glyph glyph-name="ldot" unicode="&#x140;" horiz-adv-x="483" 
d="M59 0v736h156v-736h-156zM378 178q-38 0 -64 25.5t-26 62.5t26.5 63t63.5 26t63.5 -26t26.5 -63t-26.5 -62.5t-63.5 -25.5z" />
    <glyph glyph-name="Lslash" unicode="&#x141;" horiz-adv-x="564" 
d="M246 149h295v-149h-466v256l-65 -28v121l65 28v333h171v-259l107 46v-122l-107 -46v-180z" />
    <glyph glyph-name="lslash" unicode="&#x142;" horiz-adv-x="322" 
d="M309 445v-106l-68 -30v-309h-156v241l-71 -31v105l71 31v390h156v-321z" />
    <glyph glyph-name="Nacute" unicode="&#x143;" horiz-adv-x="739" 
d="M258 761l108 140h159l-126 -140h-141zM64 0v710h161l283 -438l2 1v437h165v-710h-166l-278 426h-2v-426h-165z" />
    <glyph glyph-name="nacute" unicode="&#x144;" horiz-adv-x="582" 
d="M205 549l111 149l158 1l-124 -150h-145zM54 0v489h156v-57h2q57 66 147 66q175 0 175 -205v-293h-156v255q0 58 -19 81t-59 23q-42 0 -66 -28.5t-24 -84.5v-246h-156z" />
    <glyph glyph-name="Ncommaaccent" unicode="&#x145;" horiz-adv-x="739" 
d="M64 0v710h161l283 -438l2 1v437h165v-710h-166l-278 426h-2v-426h-165zM285 -221l-28 85q29 6 41.5 16.5t12.5 30.5q0 15 -7 36h128q5 -23 5 -42q0 -60 -39.5 -92t-112.5 -34z" />
    <glyph glyph-name="ncommaaccent" unicode="&#x146;" horiz-adv-x="582" 
d="M54 0v489h156v-57h2q57 66 147 66q175 0 175 -205v-293h-156v255q0 58 -19 81t-59 23q-42 0 -66 -28.5t-24 -84.5v-246h-156zM219 -221l-28 85q29 6 41.5 16.5t12.5 30.5q0 15 -7 36h128q5 -23 5 -42q0 -60 -39.5 -92t-112.5 -34z" />
    <glyph glyph-name="Ncaron" unicode="&#x147;" horiz-adv-x="739" 
d="M289 761l-98 140h136l45 -65h2l45 65h133l-95 -140h-168zM64 0v710h161l283 -438l2 1v437h165v-710h-166l-278 426h-2v-426h-165z" />
    <glyph glyph-name="ncaron" unicode="&#x148;" horiz-adv-x="582" 
d="M217 547l-97 149h137l44 -72h2l44 72h133l-94 -149h-169zM54 0v489h156v-57h2q57 66 147 66q175 0 175 -205v-293h-156v255q0 58 -19 81t-59 23q-42 0 -66 -28.5t-24 -84.5v-246h-156z" />
    <glyph glyph-name="napostrophe" unicode="&#x149;" horiz-adv-x="710" 
d="M-27 483l33 227h147l-71 -227h-109zM182 0v489h156v-57h2q57 66 147 66q175 0 175 -205v-293h-156v255q0 58 -19 81t-59 23q-42 0 -66 -28.5t-24 -84.5v-246h-156z" />
    <glyph glyph-name="Eng" unicode="&#x14a;" horiz-adv-x="739" 
d="M510 710h165v-711q0 -108 -56 -157t-152 -49q-45 0 -99 12l12 126q24 -7 50 -7q79 0 79 73v4l-278 425h-2v-426h-165v710h160l284 -438h2v438z" />
    <glyph glyph-name="eng" unicode="&#x14b;" horiz-adv-x="578" 
d="M343 -207q-47 0 -85 15l12 114q24 -7 42 -7q33 0 47.5 19t14.5 59v262q0 59 -18.5 81.5t-59.5 22.5q-40 0 -63 -28.5t-23 -84.5v-246h-156v489h156v-57h2q54 66 143 66q176 0 176 -205v-296q0 -107 -45 -155.5t-143 -48.5z" />
    <glyph glyph-name="Omacron" unicode="&#x14c;" horiz-adv-x="808" 
d="M248 777v114h313v-114h-313zM404 -9q-162 0 -264 101.5t-102 262.5t102 263t264 102q160 0 262.5 -101.5t102.5 -263.5t-102.5 -263t-262.5 -101zM404 146q82 0 136 60t54 149t-54 149t-136 60q-83 0 -137 -60.5t-54 -148.5t54 -148.5t137 -60.5z" />
    <glyph glyph-name="omacron" unicode="&#x14d;" horiz-adv-x="589" 
d="M138 573v120h313v-120h-313zM295 -9q-118 0 -191.5 70.5t-73.5 182.5t73.5 183t191.5 71q116 0 190 -70.5t74 -183.5q0 -112 -74 -182.5t-190 -70.5zM295 129q45 0 75.5 32.5t30.5 82.5q0 51 -30 83t-76 32q-47 0 -77 -32.5t-30 -82.5q0 -49 30.5 -82t76.5 -33z" />
    <glyph glyph-name="Obreve" unicode="&#x14e;" horiz-adv-x="808" 
d="M404 754q-76 0 -120.5 38t-51.5 109h114q2 -20 18 -33t40 -13q25 0 41 13.5t18 32.5h114q-6 -68 -49 -107.5t-124 -39.5zM404 -9q-162 0 -264 101.5t-102 262.5t102 263t264 102q160 0 262.5 -101.5t102.5 -263.5t-102.5 -263t-262.5 -101zM404 146q82 0 136 60t54 149
t-54 149t-136 60q-83 0 -137 -60.5t-54 -148.5t54 -148.5t137 -60.5z" />
    <glyph glyph-name="obreve" unicode="&#x14f;" horiz-adv-x="589" 
d="M294 539q-71 0 -118.5 41.5t-53.5 115.5h114q2 -21 18 -35t40 -14q25 0 41 14.5t18 34.5h114q-5 -70 -50.5 -113.5t-122.5 -43.5zM295 -9q-118 0 -191.5 70.5t-73.5 182.5t73.5 183t191.5 71q116 0 190 -70.5t74 -183.5q0 -112 -74 -182.5t-190 -70.5zM295 129
q45 0 75.5 32.5t30.5 82.5q0 51 -30 83t-76 32q-47 0 -77 -32.5t-30 -82.5q0 -49 30.5 -82t76.5 -33z" />
    <glyph glyph-name="Ohungarumlaut" unicode="&#x150;" horiz-adv-x="808" 
d="M226 762l110 149l155 1l-123 -150h-142zM448 762l110 149l155 1l-123 -150h-142zM404 -9q-162 0 -264 101.5t-102 262.5t102 263t264 102q160 0 262.5 -101.5t102.5 -263.5t-102.5 -263t-262.5 -101zM404 146q82 0 136 60t54 149t-54 149t-136 60q-83 0 -137 -60.5
t-54 -148.5t54 -148.5t137 -60.5z" />
    <glyph glyph-name="ohungarumlaut" unicode="&#x151;" horiz-adv-x="589" 
d="M116 557l110 149l155 1l-123 -150h-142zM338 557l110 149l155 1l-123 -150h-142zM295 -9q-118 0 -191.5 70.5t-73.5 182.5t73.5 183t191.5 71q116 0 190 -70.5t74 -183.5q0 -112 -74 -182.5t-190 -70.5zM295 129q45 0 75.5 32.5t30.5 82.5q0 51 -30 83t-76 32
q-47 0 -77 -32.5t-30 -82.5q0 -49 30.5 -82t76.5 -33z" />
    <glyph glyph-name="OE" unicode="&#x152;" horiz-adv-x="949" 
d="M594 149h319v-149h-510q-161 0 -263 100.5t-102 254.5q0 155 101.5 255t263.5 100h490v-148h-299v-138h239v-142h-239v-133zM403 155h30v400h-30q-82 0 -136 -58t-54 -142t54.5 -142.5t135.5 -57.5z" />
    <glyph glyph-name="oe" unicode="&#x153;" horiz-adv-x="815" 
d="M791 247q0 -26 -5 -44h-305q21 -82 107 -82q55 0 99 53l90 -95q-31 -41 -82 -64.5t-115 -23.5q-110 0 -173 65h-3q-63 -65 -157 -65q-102 0 -162 69.5t-60 182.5q0 115 61 185t166 70q91 0 152 -63h3q61 63 161 63q101 0 162 -70.5t61 -180.5zM567 373q-72 0 -87 -78h160
q-5 34 -25 56t-48 22zM257 129q34 0 55 32t21 83q0 52 -19.5 83.5t-54.5 31.5q-32 0 -54 -32t-22 -83t20 -83t54 -32z" />
    <glyph glyph-name="Racute" unicode="&#x154;" horiz-adv-x="649" 
d="M200 761l108 140h159l-126 -140h-141zM64 0v710h277q127 0 190.5 -66.5t63.5 -178.5q0 -158 -134 -213l169 -252h-196l-146 229h-61v-229h-163zM227 375h84q54 0 82.5 24.5t28.5 69.5q0 43 -27 68.5t-81 25.5h-87v-188z" />
    <glyph glyph-name="racute" unicode="&#x155;" horiz-adv-x="373" 
d="M108 549l111 149l158 1l-124 -150h-145zM54 0v489h156v-68h2q55 77 141 77h6v-169q-30 2 -37 2q-54 0 -83 -30.5t-29 -80.5v-220h-156z" />
    <glyph glyph-name="Rcommaaccent" unicode="&#x156;" horiz-adv-x="649" 
d="M64 0v710h277q127 0 190.5 -66.5t63.5 -178.5q0 -158 -134 -213l169 -252h-196l-146 229h-61v-229h-163zM227 375h84q54 0 82.5 24.5t28.5 69.5q0 43 -27 68.5t-81 25.5h-87v-188zM244 -221l-28 85q29 6 41.5 16.5t12.5 30.5q0 15 -7 36h128q5 -23 5 -42q0 -60 -39.5 -92
t-112.5 -34z" />
    <glyph glyph-name="rcommaaccent" unicode="&#x157;" horiz-adv-x="373" 
d="M54 0v489h156v-68h2q55 77 141 77h6v-169q-30 2 -37 2q-54 0 -83 -30.5t-29 -80.5v-220h-156zM49 -221l-28 85q29 6 41.5 16.5t12.5 30.5q0 15 -7 36h128q5 -23 5 -42q0 -60 -39.5 -92t-112.5 -34z" />
    <glyph glyph-name="Rcaron" unicode="&#x158;" horiz-adv-x="649" 
d="M231 761l-98 140h136l45 -65h2l45 65h133l-95 -140h-168zM64 0v710h277q127 0 190.5 -66.5t63.5 -178.5q0 -158 -134 -213l169 -252h-196l-146 229h-61v-229h-163zM227 375h84q54 0 82.5 24.5t28.5 69.5q0 43 -27 68.5t-81 25.5h-87v-188z" />
    <glyph glyph-name="rcaron" unicode="&#x159;" horiz-adv-x="373" 
d="M140 547l-97 149h137l44 -72h2l44 72h133l-94 -149h-169zM54 0v489h156v-68h2q55 77 141 77h6v-169q-30 2 -37 2q-54 0 -83 -30.5t-29 -80.5v-220h-156z" />
    <glyph glyph-name="Sacute" unicode="&#x15a;" horiz-adv-x="570" 
d="M200 761l108 140h159l-126 -140h-141zM280 -9q-151 0 -261 113l98 119q77 -84 168 -84q40 0 60 17t20 43q0 29 -22 45.5t-83 37.5q-48 16 -80.5 32t-66.5 42.5t-51.5 65t-17.5 88.5q0 88 67 147.5t166 61.5q135 3 246 -92l-94 -122q-85 67 -145 67q-31 0 -48.5 -14.5
t-17.5 -40.5q-1 -25 21 -42t81 -40q110 -42 146 -67q74 -52 75 -150q0 -60 -23.5 -105.5t-63 -71t-83.5 -38t-91 -12.5z" />
    <glyph glyph-name="sacute" unicode="&#x15b;" horiz-adv-x="440" 
d="M130 549l111 149l158 1l-124 -150h-145zM215 -9q-118 0 -199 72l73 101q61 -55 128 -55q47 0 47 29q0 12 -15.5 21.5t-60.5 23.5q-72 22 -113 58t-41 101q0 72 52 114t131 42q102 0 185 -61l-74 -109q-51 51 -109 51q-15 0 -27 -7t-12 -20q0 -20 67 -43
q92 -31 129.5 -62.5t37.5 -98.5q0 -71 -51 -114t-148 -43z" />
    <glyph glyph-name="Scircumflex" unicode="&#x15c;" horiz-adv-x="570" 
d="M104 761l95 140h168l98 -140h-136l-45 65h-2l-45 -65h-133zM280 -9q-151 0 -261 113l98 119q77 -84 168 -84q40 0 60 17t20 43q0 29 -22 45.5t-83 37.5q-48 16 -80.5 32t-66.5 42.5t-51.5 65t-17.5 88.5q0 88 67 147.5t166 61.5q135 3 246 -92l-94 -122q-85 67 -145 67
q-31 0 -48.5 -14.5t-17.5 -40.5q-1 -25 21 -42t81 -40q110 -42 146 -67q74 -52 75 -150q0 -60 -23.5 -105.5t-63 -71t-83.5 -38t-91 -12.5z" />
    <glyph glyph-name="scircumflex" unicode="&#x15d;" horiz-adv-x="440" 
d="M44 548l95 149h168l97 -149h-136l-44 72h-2l-45 -72h-133zM215 -9q-118 0 -199 72l73 101q61 -55 128 -55q47 0 47 29q0 12 -15.5 21.5t-60.5 23.5q-72 22 -113 58t-41 101q0 72 52 114t131 42q102 0 185 -61l-74 -109q-51 51 -109 51q-15 0 -27 -7t-12 -20q0 -20 67 -43
q92 -31 129.5 -62.5t37.5 -98.5q0 -71 -51 -114t-148 -43z" />
    <glyph glyph-name="Scedilla" unicode="&#x15e;" horiz-adv-x="570" 
d="M541 218q0 -57 -21.5 -101t-57.5 -70t-77.5 -40t-86.5 -16l-12 -20l1 -2q104 -3 104 -80q0 -37 -35.5 -59.5t-103.5 -22.5q-35 0 -65 6v64q23 -7 46 -7q44 0 44 27q0 14 -20 22t-53 8v38l17 31q-115 19 -202 108l98 119q77 -84 168 -84q40 0 60 17t20 43q0 29 -22 45.5
t-83 37.5q-48 16 -80.5 32t-66.5 42.5t-51.5 65t-17.5 88.5q0 88 67 147.5t166 61.5q135 3 246 -92l-94 -122q-85 67 -145 67q-31 0 -48.5 -14.5t-17.5 -40.5q-1 -25 21 -42t81 -40q110 -42 146 -67q74 -52 75 -150z" />
    <glyph glyph-name="scedilla" unicode="&#x15f;" horiz-adv-x="440" 
d="M414 148q0 -67 -45.5 -109.5t-132.5 -46.5l-12 -21l1 -2q104 -3 104 -80q0 -37 -35.5 -59.5t-103.5 -22.5q-35 0 -65 6v64q23 -7 46 -7q44 0 44 27q0 14 -20 22t-53 8v38l16 31q-83 14 -142 67l73 101q61 -55 128 -55q47 0 47 29q0 12 -15.5 21.5t-60.5 23.5
q-72 22 -113 58t-41 101q0 72 52 114t131 42q102 0 185 -61l-74 -109q-51 51 -109 51q-15 0 -27 -7t-12 -20q0 -20 67 -43q92 -31 129.5 -62.5t37.5 -98.5z" />
    <glyph glyph-name="Scaron" unicode="&#x160;" horiz-adv-x="570" 
d="M202 761l-98 140h136l45 -65h2l45 65h133l-95 -140h-168zM280 -9q-151 0 -261 113l98 119q77 -84 168 -84q40 0 60 17t20 43q0 29 -22 45.5t-83 37.5q-48 16 -80.5 32t-66.5 42.5t-51.5 65t-17.5 88.5q0 88 67 147.5t166 61.5q135 3 246 -92l-94 -122q-85 67 -145 67
q-31 0 -48.5 -14.5t-17.5 -40.5q-1 -25 21 -42t81 -40q110 -42 146 -67q74 -52 75 -150q0 -60 -23.5 -105.5t-63 -71t-83.5 -38t-91 -12.5z" />
    <glyph glyph-name="scaron" unicode="&#x161;" horiz-adv-x="440" 
d="M141 547l-97 149h137l44 -72h2l44 72h133l-94 -149h-169zM215 -9q-118 0 -199 72l73 101q61 -55 128 -55q47 0 47 29q0 12 -15.5 21.5t-60.5 23.5q-72 22 -113 58t-41 101q0 72 52 114t131 42q102 0 185 -61l-74 -109q-51 51 -109 51q-15 0 -27 -7t-12 -20q0 -20 67 -43
q92 -31 129.5 -62.5t37.5 -98.5q0 -71 -51 -114t-148 -43z" />
    <glyph glyph-name="uni0162" unicode="&#x162;" 
d="M378 0h-70l-17 -29l1 -2q104 -3 104 -80q0 -37 -35.5 -59.5t-103.5 -22.5q-35 0 -65 6v64q23 -7 46 -7q44 0 44 27q0 14 -20 22t-53 8v38l19 35h-20v561h-185v149h541v-149h-186v-561z" />
    <glyph glyph-name="uni0163" unicode="&#x163;" horiz-adv-x="374" 
d="M210 -31q104 -3 104 -80q0 -37 -35.5 -59.5t-103.5 -22.5q-35 0 -65 6v64q23 -7 46 -7q44 0 44 27q0 14 -20 22t-53 8v38l21 39q-79 35 -79 150v209h-55v126h55v157l157 16v-173h118v-126h-118v-180q0 -55 37 -55q25 0 48 11l39 -115q-58 -32 -130 -33l-11 -20z" />
    <glyph glyph-name="Tcaron" unicode="&#x164;" 
d="M209 761l-98 140h136l45 -65h2l45 65h133l-95 -140h-168zM208 0v561h-185v149h541v-149h-186v-561h-170z" />
    <glyph glyph-name="tcaron" unicode="&#x165;" horiz-adv-x="373" 
d="M269 577l32 217h148l-71 -217h-109zM213 -9q-66 0 -105 41.5t-39 121.5v209h-55v126h55v157l157 16v-173h118v-126h-118v-180q0 -55 37 -55q25 0 48 11l39 -115q-59 -33 -137 -33z" />
    <glyph glyph-name="Tbar" unicode="&#x166;" 
d="M564 561h-186v-181h117v-117h-117v-263h-170v263h-109v117h109v181h-185v149h541v-149z" />
    <glyph glyph-name="tbar" unicode="&#x167;" horiz-adv-x="374" 
d="M311 139l39 -115q-59 -33 -137 -33q-66 0 -105 41.5t-39 121.5v58h-45v93h45v58h-55v126h55v157l157 16v-173h118v-126h-118v-58h97v-93h-97v-29q0 -55 37 -55q25 0 48 11z" />
    <glyph glyph-name="Utilde" unicode="&#x168;" horiz-adv-x="700" 
d="M435 761q-34 0 -86 27q-38 20 -55 20q-33 0 -54 -46l-90 35q17 50 49.5 82.5t77.5 32.5q49 0 90 -27q31 -18 51 -18q32 0 53 46l90 -29q-18 -55 -50 -89t-76 -34zM349 -9q-134 0 -213.5 80t-79.5 225v414h168v-404q0 -69 32.5 -114t92.5 -45q57 0 92.5 42.5t35.5 116.5
v404h167v-414q0 -141 -77.5 -223t-217.5 -82z" />
    <glyph glyph-name="utilde" unicode="&#x169;" horiz-adv-x="570" 
d="M372 549q-40 0 -88 27q-36 20 -53 20q-33 0 -55 -48l-90 38q17 55 50 89t78 34q42 0 88 -26q30 -19 50 -19q34 0 55 46l90 -29q-17 -59 -49.5 -95.5t-75.5 -36.5zM222 -9q-176 0 -176 208v290h156v-251q0 -59 17.5 -84t57.5 -25q37 0 61.5 30.5t24.5 87.5v242h157v-489
h-157v55l-2 1q-53 -65 -139 -65z" />
    <glyph glyph-name="Umacron" unicode="&#x16a;" horiz-adv-x="700" 
d="M193 777v114h313v-114h-313zM349 -9q-134 0 -213.5 80t-79.5 225v414h168v-404q0 -69 32.5 -114t92.5 -45q57 0 92.5 42.5t35.5 116.5v404h167v-414q0 -141 -77.5 -223t-217.5 -82z" />
    <glyph glyph-name="umacron" unicode="&#x16b;" horiz-adv-x="570" 
d="M129 573v120h313v-120h-313zM222 -9q-176 0 -176 208v290h156v-251q0 -59 17.5 -84t57.5 -25q37 0 61.5 30.5t24.5 87.5v242h157v-489h-157v55l-2 1q-53 -65 -139 -65z" />
    <glyph glyph-name="Ubreve" unicode="&#x16c;" horiz-adv-x="700" 
d="M349 754q-76 0 -120.5 38t-51.5 109h114q2 -20 18 -33t40 -13q25 0 41 13.5t18 32.5h114q-6 -68 -49 -107.5t-124 -39.5zM349 -9q-134 0 -213.5 80t-79.5 225v414h168v-404q0 -69 32.5 -114t92.5 -45q57 0 92.5 42.5t35.5 116.5v404h167v-414q0 -141 -77.5 -223
t-217.5 -82z" />
    <glyph glyph-name="ubreve" unicode="&#x16d;" horiz-adv-x="570" 
d="M285 539q-71 0 -118.5 41.5t-53.5 115.5h114q2 -21 18 -35t40 -14q25 0 41 14.5t18 34.5h114q-5 -70 -50.5 -113.5t-122.5 -43.5zM222 -9q-176 0 -176 208v290h156v-251q0 -59 17.5 -84t57.5 -25q37 0 61.5 30.5t24.5 87.5v242h157v-489h-157v55l-2 1q-53 -65 -139 -65z
" />
    <glyph glyph-name="Uring" unicode="&#x16e;" horiz-adv-x="700" 
d="M350 745q-46 0 -78 30t-32 76q0 44 30.5 74.5t79.5 30.5q46 0 78 -29.5t32 -75.5q0 -45 -31 -75.5t-79 -30.5zM350 816q15 0 25.5 11t10.5 25q0 15 -10.5 25.5t-25.5 10.5t-25 -10.5t-10 -25.5t10 -25.5t25 -10.5zM349 -9q-134 0 -213.5 80t-79.5 225v414h168v-404
q0 -69 32.5 -114t92.5 -45q57 0 92.5 42.5t35.5 116.5v404h167v-414q0 -141 -77.5 -223t-217.5 -82z" />
    <glyph glyph-name="uring" unicode="&#x16f;" horiz-adv-x="570" 
d="M286 538q-46 0 -78 30t-32 76q0 44 30.5 74.5t79.5 30.5q46 0 78 -29.5t32 -75.5q0 -44 -31 -75t-79 -31zM286 609q15 0 25.5 11t10.5 25q0 15 -10.5 25.5t-25.5 10.5t-25 -10.5t-10 -25.5t10 -25.5t25 -10.5zM222 -9q-176 0 -176 208v290h156v-251q0 -59 17.5 -84
t57.5 -25q37 0 61.5 30.5t24.5 87.5v242h157v-489h-157v55l-2 1q-53 -65 -139 -65z" />
    <glyph glyph-name="Uhungarumlaut" unicode="&#x170;" horiz-adv-x="700" 
d="M171 762l110 149l155 1l-123 -150h-142zM393 762l110 149l155 1l-123 -150h-142zM349 -9q-134 0 -213.5 80t-79.5 225v414h168v-404q0 -69 32.5 -114t92.5 -45q57 0 92.5 42.5t35.5 116.5v404h167v-414q0 -141 -77.5 -223t-217.5 -82z" />
    <glyph glyph-name="uhungarumlaut" unicode="&#x171;" horiz-adv-x="570" 
d="M107 557l110 149l155 1l-123 -150h-142zM329 557l110 149l155 1l-123 -150h-142zM222 -9q-176 0 -176 208v290h156v-251q0 -59 17.5 -84t57.5 -25q37 0 61.5 30.5t24.5 87.5v242h157v-489h-157v55l-2 1q-53 -65 -139 -65z" />
    <glyph glyph-name="Uogonek" unicode="&#x172;" horiz-adv-x="700" 
d="M477 710h167v-414q0 -109 -47 -184t-135 -104q-95 -31 -95 -79q0 -35 39 -35q22 0 37 5l6 -77q-27 -12 -75 -12q-55 0 -87.5 26.5t-32.5 68.5q0 49 45 87v2q-113 15 -178 93t-65 209v414h168v-404q0 -69 32.5 -114t92.5 -45q57 0 92.5 42.5t35.5 116.5v404z" />
    <glyph glyph-name="uogonek" unicode="&#x173;" horiz-adv-x="570" 
d="M363 489h157v-489h-9q-42 -2 -68 -23t-26 -46q0 -39 39 -39q12 0 37 5l7 -77q-29 -11 -76 -11q-55 0 -87.5 26t-32.5 68q0 59 59 99v53l-2 1q-53 -65 -139 -65q-176 0 -176 208v290h156v-251q0 -59 17.5 -84t57.5 -25q37 0 61.5 30.5t24.5 87.5v242z" />
    <glyph glyph-name="Wcircumflex" unicode="&#x174;" horiz-adv-x="1025" 
d="M333 761l95 140h168l98 -140h-136l-45 65h-2l-45 -65h-133zM238 0l-223 710h179l119 -436h3l109 436h176l108 -435h3l120 435h178l-223 -710h-153l-118 466h-2l-123 -466h-153z" />
    <glyph glyph-name="wcircumflex" unicode="&#x175;" horiz-adv-x="766" 
d="M202 548l95 149h168l97 -149h-136l-44 72h-2l-45 -72h-133zM176 0l-165 489h156l80 -265h1l74 265h121l74 -265h2l81 265h155l-166 -489h-126l-80 284h-1l-78 -284h-128z" />
    <glyph glyph-name="Ycircumflex" unicode="&#x176;" horiz-adv-x="636" 
d="M138 761l95 140h168l98 -140h-136l-45 65h-2l-45 -65h-133zM232 0v309l-231 401h191l125 -236h2l123 236h193l-233 -401v-309h-170z" />
    <glyph glyph-name="ycircumflex" unicode="&#x177;" horiz-adv-x="536" 
d="M90 548l95 149h168l97 -149h-136l-44 72h-2l-45 -72h-133zM116 -198l84 231l-191 456h167l98 -263h3l94 263h156l-257 -687h-154z" />
    <glyph glyph-name="Ydieresis" unicode="&#x178;" horiz-adv-x="636" 
d="M206 756q-40 0 -66.5 25.5t-26.5 63.5q0 36 26.5 61.5t66.5 25.5t67 -25t27 -62q0 -38 -27 -63.5t-67 -25.5zM430 756q-40 0 -66.5 25.5t-26.5 63.5q0 36 26.5 61.5t66.5 25.5t66.5 -25t26.5 -62q0 -38 -26.5 -63.5t-66.5 -25.5zM232 0v309l-231 401h191l125 -236h2
l123 236h193l-233 -401v-309h-170z" />
    <glyph glyph-name="Zacute" unicode="&#x179;" horiz-adv-x="613" 
d="M190 761l108 140h159l-126 -140h-141zM41 0v130l308 429l-2 2h-295v149h519v-126l-316 -432l2 -3h315v-149h-531z" />
    <glyph glyph-name="zacute" unicode="&#x17a;" horiz-adv-x="478" 
d="M149 549l111 149l158 1l-124 -150h-145zM29 0v104l213 259v3h-194v123h402v-103l-217 -260v-2h209v-124h-413z" />
    <glyph glyph-name="Zdotaccent" unicode="&#x17b;" horiz-adv-x="613" 
d="M304 755q-40 0 -66.5 26t-26.5 64q0 37 26.5 62.5t66.5 25.5t67 -25.5t27 -62.5q0 -38 -27 -64t-67 -26zM41 0v130l308 429l-2 2h-295v149h519v-126l-316 -432l2 -3h315v-149h-531z" />
    <glyph glyph-name="zdotaccent" unicode="&#x17c;" horiz-adv-x="478" 
d="M241 550q-40 0 -66.5 26t-26.5 64q0 37 26.5 62.5t66.5 25.5t67 -25.5t27 -62.5q0 -38 -27 -64t-67 -26zM29 0v104l213 259v3h-194v123h402v-103l-217 -260v-2h209v-124h-413z" />
    <glyph glyph-name="Zcaron" unicode="&#x17d;" horiz-adv-x="613" 
d="M221 761l-98 140h136l45 -65h2l45 65h133l-95 -140h-168zM41 0v130l308 429l-2 2h-295v149h519v-126l-316 -432l2 -3h315v-149h-531z" />
    <glyph glyph-name="zcaron" unicode="&#x17e;" horiz-adv-x="478" 
d="M158 547l-97 149h137l44 -72h2l44 72h133l-94 -149h-169zM29 0v104l213 259v3h-194v123h402v-103l-217 -260v-2h209v-124h-413z" />
    <glyph glyph-name="longs" unicode="&#x17f;" horiz-adv-x="345" 
d="M71 0v363h-47v126h47v77q0 89 43 134.5t118 45.5q78 0 132 -38l-29 -113q-34 18 -61 18q-46 0 -46 -53v-560h-157z" />
    <glyph glyph-name="uni018F" unicode="&#x18f;" horiz-adv-x="765" 
d="M363 720q173 0 268.5 -98.5t95.5 -266.5q0 -175 -97.5 -269.5t-253.5 -94.5q-163 0 -253 92.5t-92 242.5q0 46 6 74h516q-21 166 -202 166q-95 0 -180 -53l-92 123q53 40 129 62.5t155 21.5zM374 136q71 0 117.5 34.5t58.5 94.5h-349q6 -56 53 -92.5t120 -36.5z" />
    <glyph glyph-name="florin" unicode="&#x192;" horiz-adv-x="543" 
d="M101 -168q-60 0 -100 14t-54 29l52 103q45 -12 71 -12q30 0 46.5 18.5t22.5 62.5l38 296h-74l18 127h74l13 98q23 178 195 178q58 0 98 -14.5t56 -29.5l-54 -103q-43 12 -70 12q-30 0 -47 -19t-23 -63l-6 -59h124l-18 -127h-125l-43 -334q-24 -177 -194 -177z" />
    <glyph glyph-name="uni019D" unicode="&#x19d;" horiz-adv-x="739" 
d="M510 710h165v-710h-166l-278 426h-1v-430q0 -106 -48 -154.5t-128 -48.5q-35 0 -90 12l12 126q22 -7 39 -7q49 0 49 64v722h161l283 -438l2 1v437z" />
    <glyph glyph-name="Ohorn" unicode="&#x1a0;" horiz-adv-x="841" 
d="M716 774h134v-76q0 -140 -118 -172q37 -77 37 -171q0 -162 -102.5 -263t-262.5 -101q-162 0 -264 101.5t-102 262.5t102 263t264 102q178 0 281 -121q19 12 25 34t6 62v79zM404 146q82 0 136 60t54 149t-54 149t-136 60q-83 0 -137 -60.5t-54 -148.5t54 -148.5t137 -60.5
z" />
    <glyph glyph-name="ohorn" unicode="&#x1a1;" horiz-adv-x="694" 
d="M541 565h134v-76q0 -144 -125 -174q9 -33 9 -71q0 -112 -74 -182.5t-190 -70.5q-118 0 -191.5 70.5t-73.5 182.5t73.5 183t191.5 71q71 0 128 -27.5t92 -77.5q26 19 26 93v79zM295 129q45 0 75.5 32.5t30.5 82.5q0 51 -30 83t-76 32q-47 0 -77 -32.5t-30 -82.5
q0 -49 30.5 -82t76.5 -33z" />
    <glyph glyph-name="Uhorn" unicode="&#x1af;" horiz-adv-x="825" 
d="M707 774h134v-76q0 -92 -52.5 -137.5t-144.5 -43.5v-221q0 -141 -77.5 -223t-217.5 -82q-134 0 -213.5 80t-79.5 225v414h168v-404q0 -69 32.5 -114t92.5 -45q57 0 92.5 42.5t35.5 116.5v404h167v-122q40 6 51.5 30.5t11.5 76.5v79z" />
    <glyph glyph-name="uhorn" unicode="&#x1b0;" horiz-adv-x="714" 
d="M572 565h134v-76q0 -90 -49 -135t-137 -46v-308h-157v55l-2 1q-53 -65 -139 -65q-176 0 -176 208v290h156v-251q0 -59 17.5 -84t57.5 -25q37 0 61.5 30.5t24.5 87.5v242h157v-108q33 8 42.5 32t9.5 73v79z" />
    <glyph glyph-name="uni01CD" unicode="&#x1cd;" horiz-adv-x="694" 
d="M264 761l-98 140h136l45 -65h2l45 65h133l-95 -140h-168zM6 0l261 710h160l260 -710h-174l-42 128h-248l-42 -128h-175zM268 268h159l-79 240h-2z" />
    <glyph glyph-name="uni01CE" unicode="&#x1ce;" horiz-adv-x="596" 
d="M213 547l-97 149h137l44 -72h2l44 72h133l-94 -149h-169zM259 -9q-101 0 -166 70t-65 183q0 111 63.5 182.5t159.5 71.5q83 0 135 -61l2 1v51h157v-489h-149v51l-2 1q-48 -61 -135 -61zM292 129q43 0 73 32t30 83q0 50 -29.5 83t-73.5 33q-46 0 -75.5 -32t-29.5 -84
t29 -83.5t76 -31.5z" />
    <glyph glyph-name="uni01CF" unicode="&#x1cf;" horiz-adv-x="308" 
d="M71 760l-98 140h136l45 -65h2l45 65h133l-95 -140h-168zM68 0v710h171v-710h-171z" />
    <glyph glyph-name="uni01D0" unicode="&#x1d0;" horiz-adv-x="274" 
d="M54 547l-97 149h137l44 -72h2l44 72h133l-94 -149h-169zM59 0v489h156v-489h-156z" />
    <glyph glyph-name="uni01D1" unicode="&#x1d1;" horiz-adv-x="808" 
d="M322 761l-98 140h136l45 -65h2l45 65h133l-95 -140h-168zM404 -9q-162 0 -264 101.5t-102 262.5t102 263t264 102q160 0 262.5 -101.5t102.5 -263.5t-102.5 -263t-262.5 -101zM404 146q82 0 136 60t54 149t-54 149t-136 60q-83 0 -137 -60.5t-54 -148.5t54 -148.5
t137 -60.5z" />
    <glyph glyph-name="uni01D2" unicode="&#x1d2;" horiz-adv-x="589" 
d="M212 547l-97 149h137l44 -72h2l44 72h133l-94 -149h-169zM295 -9q-118 0 -191.5 70.5t-73.5 182.5t73.5 183t191.5 71q116 0 190 -70.5t74 -183.5q0 -112 -74 -182.5t-190 -70.5zM295 129q45 0 75.5 32.5t30.5 82.5q0 51 -30 83t-76 32q-47 0 -77 -32.5t-30 -82.5
q0 -49 30.5 -82t76.5 -33z" />
    <glyph glyph-name="uni01D3" unicode="&#x1d3;" horiz-adv-x="700" 
d="M267 761l-98 140h136l45 -65h2l45 65h133l-95 -140h-168zM349 -9q-134 0 -213.5 80t-79.5 225v414h168v-404q0 -69 32.5 -114t92.5 -45q57 0 92.5 42.5t35.5 116.5v404h167v-414q0 -141 -77.5 -223t-217.5 -82z" />
    <glyph glyph-name="uni01D4" unicode="&#x1d4;" horiz-adv-x="570" 
d="M203 547l-97 149h137l44 -72h2l44 72h133l-94 -149h-169zM222 -9q-176 0 -176 208v290h156v-251q0 -59 17.5 -84t57.5 -25q37 0 61.5 30.5t24.5 87.5v242h157v-489h-157v55l-2 1q-53 -65 -139 -65z" />
    <glyph glyph-name="uni01D5" unicode="&#x1d5;" horiz-adv-x="700" 
d="M194 932v80h313v-80h-313zM248 755q-34 0 -55.5 21t-21.5 53q0 30 22 51t55 21t55.5 -21t22.5 -51q0 -32 -22 -53t-56 -21zM459 755q-34 0 -55.5 21t-21.5 53q0 30 22 51t55 21t55.5 -21t22.5 -51q0 -32 -22 -53t-56 -21zM349 -9q-134 0 -213.5 80t-79.5 225v414h168
v-404q0 -69 32.5 -114t92.5 -45q57 0 92.5 42.5t35.5 116.5v404h167v-414q0 -141 -77.5 -223t-217.5 -82z" />
    <glyph glyph-name="uni01D6" unicode="&#x1d6;" horiz-adv-x="570" 
d="M130 740v101h313v-101h-313zM188 544q-36 0 -60 23t-24 57q0 33 24 55.5t60 22.5t60.5 -22.5t24.5 -55.5q0 -34 -24.5 -57t-60.5 -23zM390 544q-36 0 -59.5 22.5t-23.5 57.5q0 33 23.5 55.5t59.5 22.5q37 0 61.5 -22.5t24.5 -55.5q0 -34 -24.5 -57t-61.5 -23zM222 -9
q-176 0 -176 208v290h156v-251q0 -59 17.5 -84t57.5 -25q37 0 61.5 30.5t24.5 87.5v242h157v-489h-157v55l-2 1q-53 -65 -139 -65z" />
    <glyph glyph-name="uni01D7" unicode="&#x1d7;" horiz-adv-x="700" 
d="M303 910l86 131h158l-139 -131h-105zM248 756q-34 0 -55.5 21t-21.5 53q0 30 22 51t55 21t55.5 -21t22.5 -51q0 -32 -22 -53t-56 -21zM459 756q-34 0 -55.5 21t-21.5 53q0 30 22 51t55 21t55.5 -21t22.5 -51q0 -32 -22 -53t-56 -21zM349 -9q-134 0 -213.5 80t-79.5 225
v414h168v-404q0 -69 32.5 -114t92.5 -45q57 0 92.5 42.5t35.5 116.5v404h167v-414q0 -141 -77.5 -223t-217.5 -82z" />
    <glyph glyph-name="uni01D8" unicode="&#x1d8;" horiz-adv-x="570" 
d="M225 726l111 136l148 1l-143 -137h-116zM184 547q-36 0 -60 23t-24 57q0 33 24 55.5t60 22.5t60.5 -22.5t24.5 -55.5q0 -34 -24.5 -57t-60.5 -23zM386 547q-36 0 -59.5 22.5t-23.5 57.5q0 33 23.5 55.5t59.5 22.5q37 0 61.5 -22.5t24.5 -55.5q0 -34 -24.5 -57t-61.5 -23z
M222 -9q-176 0 -176 208v290h156v-251q0 -59 17.5 -84t57.5 -25q37 0 61.5 30.5t24.5 87.5v242h157v-489h-157v55l-2 1q-53 -65 -139 -65z" />
    <glyph glyph-name="uni01D9" unicode="&#x1d9;" horiz-adv-x="700" 
d="M274 913l-98 126h136l45 -59h2l45 59h133l-95 -126h-168zM248 756q-34 0 -55.5 21t-21.5 53q0 30 22 51t55 21t55.5 -21t22.5 -51q0 -32 -22 -53t-56 -21zM459 756q-34 0 -55.5 21t-21.5 53q0 30 22 51t55 21t55.5 -21t22.5 -51q0 -32 -22 -53t-56 -21zM349 -9
q-134 0 -213.5 80t-79.5 225v414h168v-404q0 -69 32.5 -114t92.5 -45q57 0 92.5 42.5t35.5 116.5v404h167v-414q0 -141 -77.5 -223t-217.5 -82z" />
    <glyph glyph-name="uni01DA" unicode="&#x1da;" horiz-adv-x="570" 
d="M202 726l-97 139h137l44 -67h2l44 67h133l-94 -139h-169zM184 547q-36 0 -60 23t-24 57q0 33 24 55.5t60 22.5t60.5 -22.5t24.5 -55.5q0 -34 -24.5 -57t-60.5 -23zM386 547q-36 0 -59.5 22.5t-23.5 57.5q0 33 23.5 55.5t59.5 22.5q37 0 61.5 -22.5t24.5 -55.5
q0 -34 -24.5 -57t-61.5 -23zM222 -9q-176 0 -176 208v290h156v-251q0 -59 17.5 -84t57.5 -25q37 0 61.5 30.5t24.5 87.5v242h157v-489h-157v55l-2 1q-53 -65 -139 -65z" />
    <glyph glyph-name="uni01DB" unicode="&#x1db;" horiz-adv-x="700" 
d="M308 909l-139 132l158 -1l86 -131h-105zM248 755q-34 0 -55.5 21t-21.5 53q0 30 22 51t55 21t55.5 -21t22.5 -51q0 -32 -22 -53t-56 -21zM459 755q-34 0 -55.5 21t-21.5 53q0 30 22 51t55 21t55.5 -21t22.5 -51q0 -32 -22 -53t-56 -21zM349 -9q-134 0 -213.5 80
t-79.5 225v414h168v-404q0 -69 32.5 -114t92.5 -45q57 0 92.5 42.5t35.5 116.5v404h167v-414q0 -141 -77.5 -223t-217.5 -82z" />
    <glyph glyph-name="uni01DC" unicode="&#x1dc;" horiz-adv-x="570" 
d="M349 726h-116l-143 137l148 -1zM184 547q-36 0 -60 23t-24 57q0 33 24 55.5t60 22.5t60.5 -22.5t24.5 -55.5q0 -34 -24.5 -57t-60.5 -23zM386 547q-36 0 -59.5 22.5t-23.5 57.5q0 33 23.5 55.5t59.5 22.5q37 0 61.5 -22.5t24.5 -55.5q0 -34 -24.5 -57t-61.5 -23zM222 -9
q-176 0 -176 208v290h156v-251q0 -59 17.5 -84t57.5 -25q37 0 61.5 30.5t24.5 87.5v242h157v-489h-157v55l-2 1q-53 -65 -139 -65z" />
    <glyph glyph-name="Gcaron" unicode="&#x1e6;" horiz-adv-x="737" 
d="M305 760l-98 140h136l45 -65h2l45 65h133l-95 -140h-168zM405 -8q-159 0 -263 97t-104 265q0 159 97 262.5t263 103.5q80 0 157.5 -33t130.5 -94l-118 -100q-72 70 -170 70q-79 0 -132 -56.5t-53 -152.5q0 -89 52 -149t140 -60q65 0 123 31v84h-138v138h298v-319
q-50 -39 -126.5 -63t-156.5 -24z" />
    <glyph glyph-name="gcaron" unicode="&#x1e7;" horiz-adv-x="594" 
d="M213 547l-97 149h137l44 -72h2l44 72h133l-94 -149h-169zM280 -207q-116 0 -201 47l35 127q73 -43 149 -43q61 0 94.5 26.5t33.5 66.5v45l-2 1q-52 -54 -135 -54q-99 0 -162.5 68t-63.5 173q0 108 62 178t155 70q85 0 140 -57h2v48h157v-425q0 -271 -264 -271zM291 148
q44 0 73.5 30t29.5 76t-29.5 75.5t-73.5 29.5q-45 0 -74.5 -29.5t-29.5 -76.5t29.5 -76t74.5 -29z" />
    <glyph glyph-name="uni01EA" unicode="&#x1ea;" horiz-adv-x="808" 
d="M769 355q0 -137 -76 -232.5t-201 -122.5h1h-1q-23 -4 -31 -5q-29 -9 -45.5 -26.5t-16.5 -37.5q0 -39 39 -39q12 0 37 5l7 -77q-29 -11 -76 -11q-55 0 -87.5 26t-32.5 68q0 53 50 92l-1 1q-134 22 -215.5 119.5t-81.5 239.5q0 161 102 263t264 102q160 0 262.5 -101.5
t102.5 -263.5zM404 146q82 0 136 60t54 149t-54 149t-136 60q-83 0 -137 -60.5t-54 -148.5t54 -148.5t137 -60.5z" />
    <glyph glyph-name="uni01EB" unicode="&#x1eb;" horiz-adv-x="589" 
d="M330 -7q-26 -9 -41 -26t-15 -36q0 -39 39 -39q12 0 37 5l7 -77q-29 -11 -76 -11q-55 0 -87.5 26t-32.5 68q0 57 54 95l-1 3q-84 22 -134 87.5t-50 155.5q0 112 73.5 183t191.5 71q116 0 190 -70.5t74 -183.5q0 -103 -63.5 -171.5t-165.5 -79.5zM295 359q-47 0 -77 -32.5
t-30 -82.5q0 -49 30.5 -82t76.5 -33q45 0 75.5 32.5t30.5 82.5q0 51 -30 83t-76 32z" />
    <glyph glyph-name="Aringacute" unicode="&#x1fa;" horiz-adv-x="694" 
d="M347 745q-46 0 -78 30t-32 76q0 44 30.5 74.5t79.5 30.5q41 0 70 -23l63 50l159 1l-183 -149q-6 -39 -35.5 -64.5t-73.5 -25.5zM347 888q-15 0 -25 -10.5t-10 -25.5t10 -25.5t25 -10.5t25.5 11t10.5 25q0 15 -10.5 25.5t-25.5 10.5zM427 710l260 -710h-174l-42 128h-248
l-42 -128h-175l261 710h160zM268 268h159l-79 240h-2z" />
    <glyph glyph-name="aringacute" unicode="&#x1fb;" horiz-adv-x="596" 
d="M296 538q-46 0 -78 30t-32 76q0 44 30.5 74.5t79.5 30.5q43 0 74 -26l64 51h158l-188 -153q-8 -36 -37 -59.5t-71 -23.5zM296 681q-15 0 -25 -10.5t-10 -25.5t10 -25.5t25 -10.5t25.5 11t10.5 25q0 15 -10.5 25.5t-25.5 10.5zM388 438v51h157v-489h-149v51l-2 1
q-48 -61 -135 -61q-101 0 -166 70t-65 183q0 111 63.5 182.5t159.5 71.5q83 0 135 -61zM292 129q43 0 73 32t30 83q0 50 -29.5 83t-73.5 33q-46 0 -75.5 -32t-29.5 -84t29 -83.5t76 -31.5z" />
    <glyph glyph-name="AEacute" unicode="&#x1fc;" horiz-adv-x="940" 
d="M378 761l108 140h159l-126 -140h-141zM2 0l322 710h565v-149h-303v-136h245v-145h-245v-131h324v-149h-485v128h-191l-56 -128h-176zM292 262h139v312h-2z" />
    <glyph glyph-name="aeacute" unicode="&#x1fd;" horiz-adv-x="790" 
d="M569 699l-124 -150h-145l111 149zM766 247q0 -22 -4 -44h-315q21 -83 113 -83q56 0 101 53l91 -95q-69 -87 -200 -87q-111 0 -171 64h-2q-29 -29 -75.5 -46.5t-98.5 -17.5q-91 0 -137 41.5t-46 109.5q0 152 200 152l74 1v4q0 41 -16 57t-50 16q-59 0 -123 -33l-55 113
q83 46 193 46q95 0 139 -58h3q61 58 154 58q99 0 162 -71t63 -180zM534 373q-71 0 -88 -78h169q-16 78 -81 78zM224 105q33 0 52.5 18.5t19.5 42.5v40l-57 -1q-69 -2 -69 -52q0 -22 14 -35t40 -13z" />
    <glyph glyph-name="Oslashacute" unicode="&#x1fe;" horiz-adv-x="808" 
d="M597 900l-126 -140h-141l108 140h159zM691 592q78 -99 78 -237q0 -162 -102.5 -263t-262.5 -101q-118 0 -208 57l-78 -85l-69 64l75 82q-86 99 -86 246q0 161 102 263t264 102q126 0 219 -65l77 85l68 -63zM213 355q0 -64 30 -116l266 292q-46 33 -105 33
q-83 0 -137 -60.5t-54 -148.5zM404 146q82 0 136 60t54 149q0 55 -24 105l-262 -288q43 -26 96 -26z" />
    <glyph glyph-name="oslashacute" unicode="&#x1ff;" horiz-adv-x="589" 
d="M492 699l-124 -150h-145l111 149zM502 410q57 -68 57 -166q0 -112 -74 -182.5t-190 -70.5q-84 0 -146 37l-52 -56l-58 54l49 53q-58 67 -58 165q0 112 73.5 183t191.5 71q83 0 146 -37l50 54l58 -54zM188 244q0 -26 9 -47l142 153q-21 9 -44 9q-47 0 -77 -32.5t-30 -82.5
zM295 129q45 0 75.5 32.5t30.5 82.5q0 26 -8 48l-142 -154q20 -9 44 -9z" />
    <glyph glyph-name="Scommaaccent" unicode="&#x218;" horiz-adv-x="570" 
d="M280 -9q-151 0 -261 113l98 119q77 -84 168 -84q40 0 60 17t20 43q0 29 -22 45.5t-83 37.5q-48 16 -80.5 32t-66.5 42.5t-51.5 65t-17.5 88.5q0 88 67 147.5t166 61.5q135 3 246 -92l-94 -122q-85 67 -145 67q-31 0 -48.5 -14.5t-17.5 -40.5q-1 -25 21 -42t81 -40
q110 -42 146 -67q74 -52 75 -150q0 -60 -23.5 -105.5t-63 -71t-83.5 -38t-91 -12.5zM201 -221l-28 85q29 6 41.5 16.5t12.5 30.5q0 15 -7 36h128q5 -23 5 -42q0 -60 -39.5 -92t-112.5 -34z" />
    <glyph glyph-name="scommaaccent" unicode="&#x219;" horiz-adv-x="440" 
d="M215 -9q-118 0 -199 72l73 101q61 -55 128 -55q47 0 47 29q0 12 -15.5 21.5t-60.5 23.5q-72 22 -113 58t-41 101q0 72 52 114t131 42q102 0 185 -61l-74 -109q-51 51 -109 51q-15 0 -27 -7t-12 -20q0 -20 67 -43q92 -31 129.5 -62.5t37.5 -98.5q0 -71 -51 -114t-148 -43z
M139 -221l-28 85q29 6 41.5 16.5t12.5 30.5q0 15 -7 36h128q5 -23 5 -42q0 -60 -39.5 -92t-112.5 -34z" />
    <glyph glyph-name="uni021A" unicode="&#x21a;" 
d="M208 0v561h-185v149h541v-149h-186v-561h-170zM206 -221l-28 85q29 6 41.5 16.5t12.5 30.5q0 15 -7 36h128q5 -23 5 -42q0 -60 -39.5 -92t-112.5 -34z" />
    <glyph glyph-name="uni021B" unicode="&#x21b;" horiz-adv-x="374" 
d="M213 -9q-66 0 -105 41.5t-39 121.5v209h-55v126h55v157l157 16v-173h118v-126h-118v-180q0 -55 37 -55q25 0 48 11l39 -115q-59 -33 -137 -33zM124 -221l-28 85q29 6 41.5 16.5t12.5 30.5q0 15 -7 36h128q5 -23 5 -42q0 -60 -39.5 -92t-112.5 -34z" />
    <glyph glyph-name="uni0232" unicode="&#x232;" horiz-adv-x="636" 
d="M162 777v114h313v-114h-313zM232 0v309l-231 401h191l125 -236h2l123 236h193l-233 -401v-309h-170z" />
    <glyph glyph-name="uni0233" unicode="&#x233;" horiz-adv-x="536" 
d="M113 573v120h313v-120h-313zM116 -198l84 231l-191 456h167l98 -263h3l94 263h156l-257 -687h-154z" />
    <glyph glyph-name="uni0237" unicode="&#x237;" horiz-adv-x="261" 
d="M55 -207q-61 0 -111 18l25 124q21 -9 45 -9q22 0 30.5 15t8.5 48v500h156v-513q0 -90 -40 -136.5t-114 -46.5z" />
    <glyph glyph-name="uni0251" unicode="&#x251;" horiz-adv-x="596" 
d="M259 -9q-101 0 -166 70t-65 183q0 111 63.5 182.5t159.5 71.5q83 0 135 -61l2 1v51h157v-489h-149v51l-2 1q-48 -61 -135 -61zM292 129q43 0 73 32t30 83q0 50 -29.5 83t-73.5 33q-46 0 -75.5 -32t-29.5 -84t29 -83.5t76 -31.5z" />
    <glyph glyph-name="uni0259" unicode="&#x259;" horiz-adv-x="549" 
d="M254 498q118 0 191.5 -66.5t73.5 -186.5q0 -116 -67 -185t-181 -69q-117 0 -180 68t-63 180q0 30 5 48h334q-8 40 -41.5 61.5t-79.5 21.5q-68 0 -120 -35l-63 113q39 24 93 37t98 13zM273 115q82 0 94 78h-191q6 -34 31 -56t66 -22z" />
    <glyph glyph-name="uni0261" unicode="&#x261;" horiz-adv-x="594" 
d="M280 -207q-116 0 -201 47l35 127q73 -43 149 -43q61 0 94.5 26.5t33.5 66.5v45l-2 1q-52 -54 -135 -54q-99 0 -162.5 68t-63.5 173q0 108 62 178t155 70q85 0 140 -57h2v48h157v-425q0 -271 -264 -271zM291 148q44 0 73.5 30t29.5 76t-29.5 75.5t-73.5 29.5
q-45 0 -74.5 -29.5t-29.5 -76.5t29.5 -76t74.5 -29z" />
    <glyph glyph-name="uni0272" unicode="&#x272;" horiz-adv-x="582" 
d="M359 498q175 0 175 -205v-293h-156v255q0 58 -19 81t-59 23q-38 0 -61.5 -23.5t-27.5 -68.5v-273q0 -104 -41.5 -152.5t-130.5 -48.5q-47 0 -82 15l11 114q20 -6 35 -6q51 0 51 73v500h156v-1h1v-56h1q57 66 147 66z" />
    <glyph glyph-name="uni02BB" unicode="&#x2bb;" horiz-adv-x="241" 
d="M52 410l23 269h115l16 -269h-154z" />
    <glyph glyph-name="uni02BC" unicode="&#x2bc;" horiz-adv-x="228" 
d="M33 483l33 227h147l-71 -227h-109z" />
    <glyph glyph-name="uni02BE" unicode="&#x2be;" horiz-adv-x="225" 
d="M31 425l-10 105q33 1 49.5 19.5t16.5 47.5t-17 47.5t-49 19.5l10 105q84 0 132.5 -46t48.5 -127q0 -80 -48.5 -125.5t-132.5 -45.5z" />
    <glyph glyph-name="uni02BF" unicode="&#x2bf;" horiz-adv-x="255" 
d="M224 425q-84 0 -132.5 45.5t-48.5 125.5q0 81 48.5 127t132.5 46l10 -105q-32 -1 -49 -19.5t-17 -47.5t16.5 -47.5t49.5 -19.5z" />
    <glyph glyph-name="circumflex" unicode="&#x2c6;" horiz-adv-x="464" 
d="M52 524l95 149h168l97 -149h-136l-44 72h-2l-45 -72h-133z" />
    <glyph glyph-name="caron" unicode="&#x2c7;" horiz-adv-x="464" 
d="M149 523l-97 149h137l44 -72h2l44 72h133l-94 -149h-169z" />
    <glyph glyph-name="uni02C8" unicode="&#x2c8;" horiz-adv-x="201" 
d="M39 695h110v-313h-110v313z" />
    <glyph glyph-name="uni02C9" unicode="&#x2c9;" horiz-adv-x="372" 
d="M29 573v120h313v-120h-313z" />
    <glyph glyph-name="uni02CA" unicode="&#x2ca;" horiz-adv-x="329" 
d="M40 557l111 149l158 1l-124 -150h-145z" />
    <glyph glyph-name="uni02CB" unicode="&#x2cb;" horiz-adv-x="328" 
d="M143 548l-123 149l159 -1l106 -148h-142z" />
    <glyph glyph-name="uni02CC" unicode="&#x2cc;" horiz-adv-x="201" 
d="M39 137h110v-313h-110v313z" />
    <glyph glyph-name="breve" unicode="&#x2d8;" horiz-adv-x="461" 
d="M230 515q-71 0 -118.5 41.5t-53.5 115.5h114q2 -21 18 -35t40 -14q25 0 41 14.5t18 34.5h114q-5 -70 -50.5 -113.5t-122.5 -43.5z" />
    <glyph glyph-name="dotaccent" unicode="&#x2d9;" horiz-adv-x="502" 
d="M251 526q-40 0 -66.5 26t-26.5 64q0 37 26.5 62.5t66.5 25.5t67 -25.5t27 -62.5q0 -38 -27 -64t-67 -26z" />
    <glyph glyph-name="ring" unicode="&#x2da;" horiz-adv-x="450" 
d="M225 512q-46 0 -78 30t-32 76q0 44 30.5 74.5t79.5 30.5q46 0 78 -29.5t32 -75.5q0 -44 -30.5 -75t-79.5 -31zM225 583q15 0 25.5 11t10.5 25q0 15 -10.5 25.5t-25.5 10.5t-25 -10.5t-10 -25.5t10 -25.5t25 -10.5z" />
    <glyph glyph-name="ogonek" unicode="&#x2db;" horiz-adv-x="478" 
d="M273 -191q-55 0 -87.5 26t-32.5 68q0 30 20.5 61t60.5 50l126 -14q-42 -2 -68 -23t-26 -46q0 -39 39 -39q12 0 37 5l7 -77q-29 -11 -76 -11z" />
    <glyph glyph-name="tilde" unicode="&#x2dc;" horiz-adv-x="498" 
d="M330 525q-40 0 -88 27q-36 20 -53 20q-33 0 -55 -48l-90 38q17 55 50 89t78 34q42 0 88 -26q30 -19 50 -19q34 0 55 46l90 -29q-17 -59 -49.5 -95.5t-75.5 -36.5z" />
    <glyph glyph-name="hungarumlaut" unicode="&#x2dd;" horiz-adv-x="550" 
d="M36 533l110 149l155 1l-123 -150h-142zM258 533l110 149l155 1l-123 -150h-142z" />
    <glyph glyph-name="gravecomb" unicode="&#x300;" horiz-adv-x="0" 
d="M-534 524l-123 149l159 -1l106 -148h-142z" />
    <glyph glyph-name="acutecomb" unicode="&#x301;" horiz-adv-x="0" 
d="M-615 525l111 149l158 1l-124 -150h-145z" />
    <glyph glyph-name="uni0302" unicode="&#x302;" horiz-adv-x="0" 
d="M-680 524l95 149h168l97 -149h-136l-44 72h-2l-45 -72h-133z" />
    <glyph glyph-name="tildecomb" unicode="&#x303;" horiz-adv-x="0" 
d="M-414 525q-40 0 -88 27q-36 20 -53 20q-33 0 -55 -48l-90 38q17 55 50 89t78 34q42 0 88 -26q30 -19 50 -19q34 0 55 46l90 -29q-17 -59 -49.5 -95.5t-75.5 -36.5z" />
    <glyph glyph-name="uni0304" unicode="&#x304;" horiz-adv-x="0" 
d="M-657 549v120h313v-120h-313z" />
    <glyph glyph-name="uni0306" unicode="&#x306;" horiz-adv-x="0" 
d="M-501 515q-71 0 -118.5 41.5t-53.5 115.5h114q2 -21 18 -35t40 -14q25 0 41 14.5t18 34.5h114q-5 -70 -50.5 -113.5t-122.5 -43.5z" />
    <glyph glyph-name="uni0307" unicode="&#x307;" horiz-adv-x="0" 
d="M-500 526q-40 0 -66.5 26t-26.5 64q0 37 26.5 62.5t66.5 25.5t67 -25.5t27 -62.5q0 -38 -27 -64t-67 -26z" />
    <glyph glyph-name="uni0308" unicode="&#x308;" horiz-adv-x="0" 
d="M-613 527q-40 0 -66.5 25.5t-26.5 63.5q0 36 26.5 61.5t66.5 25.5t67 -25t27 -62q0 -38 -27 -63.5t-67 -25.5zM-389 527q-40 0 -66.5 25.5t-26.5 63.5q0 36 26.5 61.5t66.5 25.5t66.5 -25t26.5 -62q0 -38 -26.5 -63.5t-66.5 -25.5z" />
    <glyph glyph-name="hookabovecomb" unicode="&#x309;" horiz-adv-x="0" 
d="M-542 526q56 44 55 75q0 23 -29 23q-33 0 -68 -23l-28 65q22 22 61.5 38.5t83.5 16.5q50 0 78 -22t28 -64q0 -33 -25.5 -62.5t-64.5 -46.5h-91z" />
    <glyph glyph-name="uni030A" unicode="&#x30a;" horiz-adv-x="0" 
d="M-500 515q-46 0 -78 30t-32 76q0 44 30.5 74.5t79.5 30.5q46 0 78 -29.5t32 -75.5q0 -45 -31 -75.5t-79 -30.5zM-500 586q15 0 25.5 11t10.5 25q0 15 -10.5 25.5t-25.5 10.5t-25 -10.5t-10 -25.5t10 -25.5t25 -10.5z" />
    <glyph glyph-name="uni030B" unicode="&#x30b;" horiz-adv-x="0" 
d="M-679 533l110 149l155 1l-123 -150h-142zM-457 533l110 149l155 1l-123 -150h-142z" />
    <glyph glyph-name="uni030C" unicode="&#x30c;" horiz-adv-x="0" 
d="M-583 523l-97 149h137l44 -72h2l44 72h133l-94 -149h-169z" />
    <glyph glyph-name="uni0312" unicode="&#x312;" horiz-adv-x="0" 
d="M-561 542q-5 18 -5 42q0 60 39 92t112 34l29 -85q-29 -6 -41.5 -16.5t-12.5 -29.5q0 -15 6 -37h-127z" />
    <glyph glyph-name="uni0313" unicode="&#x313;" horiz-adv-x="0" 
d="M-431 701q5 -17 5 -42q0 -60 -39 -92t-112 -34l-29 85q29 6 41.5 16.5t12.5 29.5q0 14 -6 37h127z" />
    <glyph glyph-name="uni031B" unicode="&#x31b;" horiz-adv-x="0" 
d="M-521 453l-3 69q50 3 64 28t14 81v79h134v-76q0 -95 -55.5 -140.5t-153.5 -40.5z" />
    <glyph glyph-name="dotbelowcomb" unicode="&#x323;" horiz-adv-x="0" 
d="M-500 -58q40 0 66.5 -26t26.5 -64q0 -37 -26.5 -62.5t-66.5 -25.5t-67 25.5t-27 62.5q0 38 27 64t67 26z" />
    <glyph glyph-name="uni0324" unicode="&#x324;" horiz-adv-x="0" 
d="M-611 -59q40 0 66.5 -25.5t26.5 -63.5q0 -36 -26.5 -61.5t-66.5 -25.5t-66.5 25t-26.5 62q0 38 26.5 63.5t66.5 25.5zM-387 -59q40 0 66.5 -25.5t26.5 -63.5q0 -36 -26.5 -61.5t-66.5 -25.5t-67 25t-27 62q0 38 27 63.5t67 25.5z" />
    <glyph glyph-name="uni0326" unicode="&#x326;" horiz-adv-x="0" 
d="M-585 -221l-28 85q29 6 41.5 16.5t12.5 30.5q0 15 -7 36h128q5 -23 5 -42q0 -60 -39.5 -92t-112.5 -34z" />
    <glyph glyph-name="uni0327" unicode="&#x327;" horiz-adv-x="0" 
d="M-534 -193q-35 0 -65 6v64q23 -7 46 -7q44 0 44 27q0 14 -20 22t-53 8v38l22 41h80l-20 -35l1 -2q104 -3 104 -80q0 -37 -35.5 -59.5t-103.5 -22.5z" />
    <glyph glyph-name="uni0328" unicode="&#x328;" horiz-adv-x="0" 
d="M-590 -191q-55 0 -87.5 26t-32.5 68q0 30 20.5 61t60.5 50l126 -14q-42 -2 -68 -23t-26 -46q0 -39 39 -39q12 0 37 5l7 -77q-29 -11 -76 -11z" />
    <glyph glyph-name="uni032E" unicode="&#x32e;" horiz-adv-x="0" 
d="M-499 -234q-77 0 -122.5 43.5t-50.5 113.5h114q2 -20 18 -34.5t41 -14.5q24 0 40 14t18 35h114q-6 -74 -53.5 -115.5t-118.5 -41.5z" />
    <glyph glyph-name="uni0331" unicode="&#x331;" horiz-adv-x="0" 
d="M-343 -221h-313v120h313v-120z" />
    <glyph glyph-name="uni0335" unicode="&#x335;" horiz-adv-x="0" 
d="M-647 213v93h299v-93h-299z" />
    <glyph glyph-name="uni0374" unicode="&#x374;" horiz-adv-x="278" 
d="M35 468l49 264h152l-79 -264h-122z" />
    <glyph glyph-name="uni0375" unicode="&#x375;" horiz-adv-x="307" 
d="M65 -159l49 265h152l-79 -265h-122z" />
    <glyph glyph-name="uni037E" unicode="&#x37e;" horiz-adv-x="253" 
d="M132 321q-38 0 -64 25.5t-26 62.5t26.5 63t63.5 26t63.5 -26t26.5 -63t-26.5 -62.5t-63.5 -25.5zM24 -134l30 270h154l-72 -270h-112z" />
    <glyph glyph-name="tonos" unicode="&#x384;" horiz-adv-x="463" 
d="M130 533l54 176h169l-87 -176h-136z" />
    <glyph glyph-name="dieresistonos" unicode="&#x385;" horiz-adv-x="598" 
d="M222 536l5 176h126l-33 -176h-98zM111 526q-40 0 -67 26t-27 64q0 36 27 62t67 26t66.5 -25.5t26.5 -62.5q0 -38 -26.5 -64t-66.5 -26zM450 527q-40 0 -66.5 25.5t-26.5 63.5q0 36 26.5 61.5t66.5 25.5t66.5 -25t26.5 -62q0 -38 -26.5 -63.5t-66.5 -25.5z" />
    <glyph glyph-name="Alphatonos" unicode="&#x386;" horiz-adv-x="694" 
d="M6 0l261 710h160l260 -710h-174l-42 128h-248l-42 -128h-175zM-71 533l69 176h168l-101 -176h-136zM268 268h159l-79 240h-2z" />
    <glyph glyph-name="anoteleia" unicode="&#x387;" horiz-adv-x="265" 
d="M134 321q-38 0 -64 25.5t-26 62.5t26.5 63t63.5 26t63.5 -26t26.5 -63t-26.5 -62.5t-63.5 -25.5z" />
    <glyph glyph-name="Epsilontonos" unicode="&#x388;" horiz-adv-x="585" 
d="M64 0v710h463v-149h-300v-136h237v-144h-237v-132h321v-149h-484zM-219 533l69 176h168l-101 -176h-136z" />
    <glyph glyph-name="Etatonos" unicode="&#x389;" horiz-adv-x="715" 
d="M64 0v710h169v-294h250v294h168v-710h-168v268h-250v-268h-169zM-219 533l69 176h168l-101 -176h-136z" />
    <glyph glyph-name="Iotatonos" unicode="&#x38a;" horiz-adv-x="308" 
d="M68 0v710h171v-710h-171zM-214 533l69 176h168l-101 -176h-136z" />
    <glyph glyph-name="Omicrontonos" unicode="&#x38c;" horiz-adv-x="808" 
d="M404 -9q-162 0 -264 101.5t-102 262.5t102 263t264 102q160 0 262.5 -101.5t102.5 -263.5t-102.5 -263t-262.5 -101zM-141 533l69 176h168l-101 -176h-136zM404 146q82 0 136 60t54 149t-54 149t-136 60q-83 0 -137 -60.5t-54 -148.5t54 -148.5t137 -60.5z" />
    <glyph glyph-name="Upsilontonos" unicode="&#x38e;" horiz-adv-x="636" 
d="M232 0v309l-231 401h191l125 -236h2l123 236h193l-233 -401v-309h-170zM-267 533l69 176h168l-101 -176h-136z" />
    <glyph glyph-name="Omegatonos" unicode="&#x38f;" horiz-adv-x="745" 
d="M46 0v149h107l1 2q-116 94 -116 243q0 142 91.5 234t242.5 92t243 -92t92 -234q0 -148 -116 -243l1 -2h107v-149h-284v149q117 102 117 237q0 80 -44 131t-116 50q-71 0 -115.5 -51t-44.5 -130q0 -134 118 -237v-149h-284zM-156 533l69 176h168l-101 -176h-136z" />
    <glyph glyph-name="iotadieresistonos" unicode="&#x390;" horiz-adv-x="310" 
d="M82 560l5 176h126l-33 -176h-98zM-29 550q-40 0 -67 26t-27 64q0 36 27 62t67 26t66.5 -25.5t26.5 -62.5q0 -38 -26.5 -64t-66.5 -26zM310 551q-40 0 -66.5 25.5t-26.5 63.5q0 36 26.5 61.5t66.5 25.5t66.5 -25t26.5 -62q0 -38 -26.5 -63.5t-66.5 -25.5zM196 -9
q-71 0 -105 38.5t-34 120.5v339h157v-318q0 -28 7.5 -36t23.5 -8q14 0 41 5l18 -119q-52 -22 -108 -22z" />
    <glyph glyph-name="Alpha" unicode="&#x391;" horiz-adv-x="694" 
d="M6 0l261 710h160l260 -710h-174l-42 128h-248l-42 -128h-175zM268 268h159l-79 240h-2z" />
    <glyph glyph-name="Beta" unicode="&#x392;" horiz-adv-x="633" 
d="M64 0v710h269q116 0 174.5 -45t58.5 -128q0 -115 -107 -157v-2q144 -37 144 -180q0 -90 -59.5 -144t-174.5 -54h-305zM227 425h91q82 0 82 70q0 69 -91 69h-82v-139zM227 145h114q42 0 65.5 19.5t23.5 56.5q0 36 -24.5 56.5t-70.5 20.5h-108v-153z" />
    <glyph glyph-name="Gamma" unicode="&#x393;" horiz-adv-x="564" 
d="M64 0v710h478v-148h-307v-562h-171z" />
    <glyph glyph-name="uni0394" unicode="&#x394;" horiz-adv-x="684" 
d="M29 0v128l230 582h165l231 -582v-128h-626zM215 149h252l-124 353h-2z" />
    <glyph glyph-name="Epsilon" unicode="&#x395;" horiz-adv-x="585" 
d="M64 0v710h463v-149h-300v-136h237v-144h-237v-132h321v-149h-484z" />
    <glyph glyph-name="Zeta" unicode="&#x396;" horiz-adv-x="613" 
d="M41 0v130l308 429l-2 2h-295v149h519v-126l-316 -432l2 -3h315v-149h-531z" />
    <glyph glyph-name="Eta" unicode="&#x397;" horiz-adv-x="715" 
d="M64 0v710h169v-294h250v294h168v-710h-168v268h-250v-268h-169z" />
    <glyph glyph-name="Theta" unicode="&#x398;" horiz-adv-x="811" 
d="M404 -9q-162 0 -264 101.5t-102 262.5t102 263t264 102q160 0 262.5 -101.5t102.5 -263.5t-102.5 -263t-262.5 -101zM404 146q82 0 136 60t54 149t-54 149t-136 60q-83 0 -137 -60.5t-54 -148.5t54 -148.5t137 -60.5zM290 280v141h230v-141h-230z" />
    <glyph glyph-name="Iota" unicode="&#x399;" horiz-adv-x="308" 
d="M68 0v710h171v-710h-171z" />
    <glyph glyph-name="Kappa" unicode="&#x39a;" horiz-adv-x="662" 
d="M64 0v710h167v-272h2l206 272h211l-256 -308l265 -402h-205l-170 270l-53 -65v-205h-167z" />
    <glyph glyph-name="Lambda" unicode="&#x39b;" horiz-adv-x="669" 
d="M7 0l246 710h162l247 -710h-179l-147 475h-3l-148 -475h-178z" />
    <glyph glyph-name="Mu" unicode="&#x39c;" horiz-adv-x="860" 
d="M65 0v710h168l197 -377h2l195 377h169v-710h-166v391h-2l-144 -260h-107l-144 261h-3v-392h-165z" />
    <glyph glyph-name="Nu" unicode="&#x39d;" horiz-adv-x="739" 
d="M64 0v710h161l283 -438l2 1v437h165v-710h-166l-278 426h-2v-426h-165z" />
    <glyph glyph-name="Xi" unicode="&#x39e;" horiz-adv-x="623" 
d="M48 559v151h528v-151h-528zM108 280v144h404v-144h-404zM41 0v151h542v-151h-542z" />
    <glyph glyph-name="Omicron" unicode="&#x39f;" horiz-adv-x="808" 
d="M404 -9q-162 0 -264 101.5t-102 262.5t102 263t264 102q160 0 262.5 -101.5t102.5 -263.5t-102.5 -263t-262.5 -101zM404 146q82 0 136 60t54 149t-54 149t-136 60q-83 0 -137 -60.5t-54 -148.5t54 -148.5t137 -60.5z" />
    <glyph glyph-name="Pi" unicode="&#x3a0;" horiz-adv-x="684" 
d="M64 0v710h557v-710h-169v561h-219v-561h-169z" />
    <glyph glyph-name="Rho" unicode="&#x3a1;" horiz-adv-x="612" 
d="M64 0v710h270q126 0 189.5 -66.5t63.5 -178.5q0 -116 -71 -176t-195 -60h-94v-229h-163zM227 375h75q55 0 83.5 24.5t28.5 69.5q0 43 -27.5 68.5t-81.5 25.5h-78v-188z" />
    <glyph glyph-name="Sigma" unicode="&#x3a3;" horiz-adv-x="584" 
d="M38 0v116l180 239l-180 235v120h514v-148h-287l-2 -3l155 -204l-154 -203l1 -3h287v-149h-514z" />
    <glyph glyph-name="Tau" unicode="&#x3a4;" 
d="M208 0v561h-185v149h541v-149h-186v-561h-170z" />
    <glyph glyph-name="Upsilon" unicode="&#x3a5;" horiz-adv-x="636" 
d="M232 0v309l-231 401h191l125 -236h2l123 236h193l-233 -401v-309h-170z" />
    <glyph glyph-name="Phi" unicode="&#x3a6;" horiz-adv-x="870" 
d="M838 361q0 -125 -81.5 -203t-236.5 -86v-72h-166v72q-156 7 -239 85.5t-83 203.5q0 129 83 212t239 90v63h166v-63q154 -7 236 -90t82 -212zM514 210q77 7 116 48.5t39 104.5q0 65 -39.5 109.5t-115.5 51.5v-314zM204 364q0 -64 39 -106t118 -49v315q-77 -6 -117 -50.5
t-40 -109.5z" />
    <glyph glyph-name="Chi" unicode="&#x3a7;" horiz-adv-x="706" 
d="M15 0l227 357l-218 353h193l136 -225h3l137 225h189l-218 -353l227 -357h-197l-141 229h-3l-142 -229h-193z" />
    <glyph glyph-name="Psi" unicode="&#x3a8;" horiz-adv-x="792" 
d="M587 710h159v-259q-1 -144 -71 -222t-198 -78v-151h-163v151q-127 0 -198 78t-71 222l1 259h159v-239q-1 -90 25.5 -130.5t83.5 -43.5v413h163v-413q56 3 82.5 43t27.5 131v239z" />
    <glyph glyph-name="uni03A9" unicode="&#x3a9;" horiz-adv-x="745" 
d="M46 0v149h107l1 2q-116 94 -116 243q0 142 91.5 234t242.5 92t243 -92t92 -234q0 -148 -116 -243l1 -2h107v-149h-284v149q117 102 117 237q0 80 -44 131t-116 50q-71 0 -115.5 -51t-44.5 -130q0 -134 118 -237v-149h-284z" />
    <glyph glyph-name="Iotadieresis" unicode="&#x3aa;" horiz-adv-x="308" 
d="M44 755q-40 0 -66.5 25.5t-26.5 63.5q0 37 26.5 62.5t66.5 25.5t67 -25t27 -63t-27 -63.5t-67 -25.5zM272 755q-40 0 -66.5 25.5t-26.5 63.5q0 36 27 62t66 26q40 0 67 -25.5t27 -62.5q0 -38 -27 -63.5t-67 -25.5zM68 0v710h171v-710h-171z" />
    <glyph glyph-name="Upsilondieresis" unicode="&#x3ab;" horiz-adv-x="636" 
d="M206 755q-40 0 -66.5 25.5t-26.5 63.5q0 37 26.5 62.5t66.5 25.5t67 -25t27 -63t-27 -63.5t-67 -25.5zM434 755q-40 0 -66.5 25.5t-26.5 63.5q0 36 27 62t66 26q40 0 67 -25.5t27 -62.5q0 -38 -27 -63.5t-67 -25.5zM232 0v309l-231 401h191l125 -236h2l123 236h193
l-233 -401v-309h-170z" />
    <glyph glyph-name="alphatonos" unicode="&#x3ac;" horiz-adv-x="594" 
d="M229 557l54 176h169l-87 -176h-136zM244 -9q-99 0 -157.5 69.5t-58.5 183.5q0 111 62 182.5t155 71.5q100 0 145 -84h2l6 75h148l-31 -206v-113q0 -44 29 -44q15 0 29 5l17 -118q-46 -22 -93 -22q-91 0 -113 77h-2q-45 -77 -138 -77zM276 129q40 0 67.5 31.5t31.5 83.5
q0 53 -25 84t-68 31q-42 0 -68.5 -32t-26.5 -83q0 -50 24 -82.5t65 -32.5z" />
    <glyph glyph-name="epsilontonos" unicode="&#x3ad;" horiz-adv-x="492" 
d="M406 734l-87 -176h-136l54 176h169zM421 152l58 -106q-54 -34 -109 -44.5t-134 -10.5q-95 0 -149.5 37.5t-54.5 106.5q0 41 26 70.5t69 42.5q-37 19 -59 50t-22 64q0 64 53.5 100t146.5 36q142 0 225 -48l-53 -104q-71 24 -151 24q-70 0 -70 -33q0 -40 64 -40h81v-100
h-90q-63 0 -63 -39t90 -39q81 0 142 33z" />
    <glyph glyph-name="etatonos" unicode="&#x3ae;" horiz-adv-x="577" 
d="M226 558l54 176h169l-87 -176h-136zM373 -198v450q0 107 -75 107q-40 0 -63.5 -29t-23.5 -85v-245h-157v489h157v-56l2 -1q55 66 141 66t131 -49t45 -159v-488h-157z" />
    <glyph glyph-name="iotatonos" unicode="&#x3af;" horiz-adv-x="306" 
d="M71 557l54 176h169l-87 -176h-136zM196 -9q-71 0 -105 38.5t-34 120.5v339h157v-318q0 -28 7.5 -36t23.5 -8q14 0 41 5l18 -119q-52 -22 -108 -22z" />
    <glyph glyph-name="upsilondieresistonos" unicode="&#x3b0;" horiz-adv-x="558" 
d="M224 561l5 176h126l-33 -176h-98zM113 551q-40 0 -67 26t-27 64q0 36 27 62t67 26t66.5 -25.5t26.5 -62.5q0 -38 -26.5 -64t-66.5 -26zM452 552q-40 0 -66.5 25.5t-26.5 63.5q0 36 26.5 61.5t66.5 25.5t66.5 -25t26.5 -62q0 -38 -26.5 -63.5t-66.5 -25.5zM278 -9
q-108 0 -170 63.5t-62 187.5v247h156v-243q0 -117 76 -117t76 117v243h156v-247q0 -125 -61.5 -188t-170.5 -63z" />
    <glyph glyph-name="alpha" unicode="&#x3b1;" horiz-adv-x="594" 
d="M244 -9q-99 0 -157.5 69.5t-58.5 183.5q0 111 62 182.5t155 71.5q100 0 145 -84h2l6 75h148l-31 -206v-113q0 -44 29 -44q15 0 29 5l17 -118q-46 -22 -93 -22q-91 0 -113 77h-2q-45 -77 -138 -77zM276 129q40 0 67.5 31.5t31.5 83.5q0 53 -25 84t-68 31q-42 0 -68.5 -32
t-26.5 -83q0 -50 24 -82.5t65 -32.5z" />
    <glyph glyph-name="beta" unicode="&#x3b2;" horiz-adv-x="593" 
d="M54 -198v686q0 127 65.5 192.5t175.5 65.5t172.5 -56t62.5 -136q0 -105 -74 -153v-2q52 -26 81 -73.5t29 -103.5q0 -107 -61 -169t-165 -62q-81 0 -127 46l-2 -1v-234h-157zM311 117q44 0 71 28t27 71q0 45 -30.5 73.5t-84.5 28.5h-29v121h22q50 0 71 28t21 64
q0 35 -20.5 57.5t-58.5 22.5t-63.5 -25t-25.5 -83v-277q0 -45 28.5 -77t71.5 -32z" />
    <glyph glyph-name="gamma" unicode="&#x3b3;" horiz-adv-x="538" 
d="M210 -198v32t-0.5 36t-2.5 34.5t-5 41t-9 40.5t-15 47l-169 456h164l96 -305h3l94 305h164l-184 -494q5 -17 8 -36t4.5 -42t2 -37.5t0.5 -41.5v-36h-151z" />
    <glyph glyph-name="delta" unicode="&#x3b4;" horiz-adv-x="570" 
d="M442 447q103 -76 103 -205q0 -114 -71 -182.5t-184 -68.5q-114 0 -187 66.5t-73 172.5q0 137 129 217q-80 54 -80 142q0 69 54 112.5t153 44.5q136 0 225 -53l-53 -115q-73 39 -158 39q-67 0 -67 -39q0 -18 17.5 -33t63.5 -32q88 -32 128 -66zM290 129q42 0 69.5 30
t27.5 80q0 46 -25 79.5t-92 65.5q-83 -53 -83 -144q0 -48 29 -79.5t74 -31.5z" />
    <glyph glyph-name="epsilon" unicode="&#x3b5;" horiz-adv-x="492" 
d="M421 152l58 -106q-54 -34 -109 -44.5t-134 -10.5q-95 0 -149.5 37.5t-54.5 106.5q0 41 26 70.5t69 42.5q-37 19 -59 50t-22 64q0 64 53.5 100t146.5 36q142 0 225 -48l-53 -104q-71 24 -151 24q-70 0 -70 -33q0 -40 64 -40h81v-100h-90q-63 0 -63 -39t90 -39q81 0 142 33
z" />
    <glyph glyph-name="zeta" unicode="&#x3b6;" horiz-adv-x="469" 
d="M388 -219l-131 62q57 59 57 94q0 23 -21 40.5t-73 33.5q-41 13 -69 26.5t-59.5 38.5t-47.5 64.5t-16 92.5q1 164 234 369l-1 3h-198v131h408v-115q-122 -96 -203.5 -201t-82.5 -184q-1 -43 26.5 -63.5t96.5 -46.5q4 -1 6 -2t5 -2l6 -2q85 -31 116.5 -69t31.5 -89
q0 -96 -85 -181z" />
    <glyph glyph-name="eta" unicode="&#x3b7;" horiz-adv-x="577" 
d="M373 -198v450q0 107 -75 107q-40 0 -63.5 -29t-23.5 -85v-245h-157v489h157v-56l2 -1q55 66 141 66t131 -49t45 -159v-488h-157z" />
    <glyph glyph-name="theta" unicode="&#x3b8;" horiz-adv-x="587" 
d="M293 746q121 0 192.5 -93.5t71.5 -283.5q0 -82 -14.5 -149t-45.5 -119t-82.5 -81t-121.5 -29q-121 0 -192.5 93t-71.5 285q0 81 15 147.5t45.5 119t82.5 81.5t121 29zM293 610q-92 0 -106 -178h213q-13 178 -107 178zM293 126q93 0 107 181h-213q11 -181 106 -181z" />
    <glyph glyph-name="iota" unicode="&#x3b9;" horiz-adv-x="306" 
d="M196 -9q-71 0 -105 38.5t-34 120.5v339h157v-318q0 -28 7.5 -36t23.5 -8q14 0 41 5l18 -119q-52 -22 -108 -22z" />
    <glyph glyph-name="kappa" unicode="&#x3ba;" horiz-adv-x="567" 
d="M54 0v489h154v-190l2 -1l158 191h190l-182 -205l192 -284h-183l-122 188l-55 -59v-129h-154z" />
    <glyph glyph-name="lambda" unicode="&#x3bb;" horiz-adv-x="556" 
d="M548 0h-163q-18 56 -48 150.5t-43 133.5h-1l-116 -284h-166l210 476l-30 76q-21 56 -67 56q-34 0 -63 -9l-20 124q67 23 120 23q66 0 105.5 -36t75.5 -127q99 -249 206 -583z" />
    <glyph glyph-name="uni03BC" unicode="&#x3bc;" horiz-adv-x="576" 
d="M52 -198v687h156v-247q0 -59 19 -86t59 -27q37 0 60 29.5t23 85.5v245h157v-489h-144l-10 54h-1q-50 -63 -121 -63q-36 0 -55 15l-2 -2q15 -62 15 -119v-83h-156z" />
    <glyph glyph-name="nu" unicode="&#x3bd;" horiz-adv-x="540" 
d="M198 0l-189 489h165l96 -301h1l97 301h163l-190 -489h-143z" />
    <glyph glyph-name="xi" unicode="&#x3be;" horiz-adv-x="496" 
d="M399 -219l-130 62q57 64 57 98q0 41 -85 67q-37 12 -61.5 21.5t-55.5 27.5t-49.5 38t-31.5 52t-13 71q0 53 30 100t83 77v2q-80 56 -80 149q0 97 68 148.5t162 51.5q118 0 207 -53l-55 -124q-77 40 -143 40q-39 0 -62 -21.5t-23 -51.5q0 -86 177 -86h46v-129h-114
q-68 0 -103 -25.5t-35 -68.5q0 -35 33.5 -56t118.5 -51q81 -28 112.5 -66.5t31.5 -92.5q0 -90 -85 -180z" />
    <glyph glyph-name="omicron" unicode="&#x3bf;" horiz-adv-x="579" 
d="M289 -9q-114 0 -187 70.5t-73 182.5q0 113 73 183.5t187 70.5q116 0 188 -70.5t72 -183.5q0 -112 -72 -182.5t-188 -70.5zM289 129q44 0 73.5 32.5t29.5 82.5q0 51 -29 83t-74 32q-44 0 -73 -32t-29 -83q0 -50 29.5 -82.5t72.5 -32.5z" />
    <glyph glyph-name="pi" unicode="&#x3c0;" horiz-adv-x="632" 
d="M614 489v-128h-75v-361h-157v361h-131v-361h-157v361h-75v128h595z" />
    <glyph glyph-name="rho" unicode="&#x3c1;" horiz-adv-x="589" 
d="M45 -198v442q0 112 67 183t185 71q113 0 189 -71t76 -183t-63 -182.5t-162 -70.5q-83 0 -134 48l-2 -1v-236h-156zM297 129q47 0 77 32t30 83q0 50 -30.5 82.5t-76.5 32.5q-43 0 -72.5 -32.5t-29.5 -82.5q0 -51 29.5 -83t72.5 -32z" />
    <glyph glyph-name="uni03C2" unicode="&#x3c2;" horiz-adv-x="505" 
d="M388 -220l-131 63q28 29 42 50t14 44q0 21 -16 36t-65 35q-45 18 -76 35.5t-63.5 46t-49.5 71t-17 97.5q0 109 72.5 174.5t190.5 65.5q134 0 209 -85l-102 -101q-36 47 -101 47q-51 0 -81 -28t-30 -73q0 -46 32.5 -76t105.5 -59q86 -35 117.5 -71.5t31.5 -90.5
q0 -91 -83 -181z" />
    <glyph glyph-name="sigma" unicode="&#x3c3;" horiz-adv-x="596" 
d="M282 -9q-111 0 -182 68.5t-71 180.5q0 113 72.5 181t193.5 68h291v-128h-106l-1 -3q62 -57 62 -139q0 -100 -72.5 -164t-186.5 -64zM285 129q44 0 71 30.5t27 80.5q0 69 -52 121h-32q-51 0 -81.5 -33.5t-30.5 -87.5q0 -51 29.5 -81t68.5 -30z" />
    <glyph glyph-name="tau" unicode="&#x3c4;" horiz-adv-x="463" 
d="M284 -9q-150 0 -150 173v197h-124v128h433v-128h-153v-172q0 -36 10 -49t35 -13q23 0 54 12l39 -113q-63 -35 -144 -35z" />
    <glyph glyph-name="upsilon" unicode="&#x3c5;" horiz-adv-x="556" 
d="M278 -9q-108 0 -170 63.5t-62 187.5v247h156v-243q0 -117 76 -117t76 117v243h156v-247q0 -125 -61.5 -188t-170.5 -63z" />
    <glyph glyph-name="phi" unicode="&#x3c6;" horiz-adv-x="717" 
d="M689 261q0 -112 -69 -185.5t-192 -78.5v-195h-154v195q-109 6 -176 77.5t-67 192.5q0 123 75 234l144 -25q-65 -95 -65 -196q0 -135 92 -155v147q0 105 50 165.5t135 60.5q109 0 168 -64.5t59 -172.5zM426 123q52 8 81.5 46t29.5 91q0 44 -16.5 73.5t-45.5 29.5
q-49 0 -49 -93v-147z" />
    <glyph glyph-name="chi" unicode="&#x3c7;" horiz-adv-x="536" 
d="M450 -207q-62 0 -95 31.5t-61 110.5l-27 67h-2l-97 -200h-166l194 356l-75 154q-24 49 -63 49q-7 0 -25 -2l-21 124q42 15 87 15q57 0 88 -29t60 -99l24 -59h1l87 178h168l-182 -330l85 -180q22 -49 61 -49q10 0 28 2l19 -124q-42 -15 -88 -15z" />
    <glyph glyph-name="psi" unicode="&#x3c8;" horiz-adv-x="727" 
d="M534 489h148v-251q0 -119 -66 -182t-174 -66v-188h-156v188q-109 3 -175 65.5t-66 182.5v251h148v-241q0 -56 26 -86t70 -32v506h149v-506q43 2 69.5 32t26.5 86v241z" />
    <glyph glyph-name="omega" unicode="&#x3c9;" horiz-adv-x="743" 
d="M223 -9q-81 0 -137.5 63.5t-56.5 177.5q0 66 13.5 120.5t27 80.5t39.5 68l141 -24q-62 -117 -62 -229q0 -119 60 -119q23 0 39.5 30.5t16.5 84.5v122h134v-122q0 -54 17 -84.5t40 -30.5q60 0 60 119q0 109 -62 229l140 24q26 -42 39.5 -68t27 -80.5t13.5 -120.5
q0 -114 -56.5 -177.5t-136.5 -63.5q-104 0 -148 75h-2q-44 -75 -147 -75z" />
    <glyph glyph-name="iotadieresis" unicode="&#x3ca;" horiz-adv-x="306" 
d="M21 550q-40 0 -66.5 26t-26.5 64q0 37 26.5 62.5t66.5 25.5t67 -25.5t27 -62.5q0 -38 -27 -64t-67 -26zM249 551q-40 0 -66.5 25.5t-26.5 63.5q0 36 27 61.5t66 25.5q40 0 67 -25t27 -62q0 -38 -27 -63.5t-67 -25.5zM196 -9q-71 0 -105 38.5t-34 120.5v339h157v-318
q0 -28 7.5 -36t23.5 -8q14 0 41 5l18 -119q-52 -22 -108 -22z" />
    <glyph glyph-name="upsilondieresis" unicode="&#x3cb;" horiz-adv-x="556" 
d="M164 551q-40 0 -66.5 26t-26.5 64q0 37 26.5 62.5t66.5 25.5t67 -25.5t27 -62.5q0 -38 -27 -64t-67 -26zM392 552q-40 0 -66.5 25.5t-26.5 63.5q0 36 27 61.5t66 25.5q40 0 67 -25t27 -62q0 -38 -27 -63.5t-67 -25.5zM278 -9q-108 0 -170 63.5t-62 187.5v247h156v-243
q0 -117 76 -117t76 117v243h156v-247q0 -125 -61.5 -188t-170.5 -63z" />
    <glyph glyph-name="omicrontonos" unicode="&#x3cc;" horiz-adv-x="579" 
d="M223 558l54 176h169l-87 -176h-136zM289 -9q-114 0 -187 70.5t-73 182.5q0 113 73 183.5t187 70.5q116 0 188 -70.5t72 -183.5q0 -112 -72 -182.5t-188 -70.5zM289 129q44 0 73.5 32.5t29.5 82.5q0 51 -29 83t-74 32q-44 0 -73 -32t-29 -83q0 -50 29.5 -82.5t72.5 -32.5z
" />
    <glyph glyph-name="upsilontonos" unicode="&#x3cd;" horiz-adv-x="556" 
d="M214 558l54 176h169l-87 -176h-136zM278 -9q-108 0 -170 63.5t-62 187.5v247h156v-243q0 -117 76 -117t76 117v243h156v-247q0 -125 -61.5 -188t-170.5 -63z" />
    <glyph glyph-name="omegatonos" unicode="&#x3ce;" horiz-adv-x="743" 
d="M306 558l54 176h169l-87 -176h-136zM223 -9q-81 0 -137.5 63.5t-56.5 177.5q0 66 13.5 120.5t27 80.5t39.5 68l141 -24q-62 -117 -62 -229q0 -119 60 -119q23 0 39.5 30.5t16.5 84.5v122h134v-122q0 -54 17 -84.5t40 -30.5q60 0 60 119q0 109 -62 229l140 24
q26 -42 39.5 -68t27 -80.5t13.5 -120.5q0 -114 -56.5 -177.5t-136.5 -63.5q-104 0 -148 75h-2q-44 -75 -147 -75z" />
    <glyph glyph-name="uni03D7" unicode="&#x3d7;" horiz-adv-x="597" 
d="M203 -216q-123 0 -198 40l24 122q71 -44 153 -44q124 0 219 95v4q-97 58 -139 170l-52 -57v-114h-156v489h156v-171l3 -1l152 172h188l-187 -205q38 -90 88.5 -136t132.5 -64v-81q-112 -122 -195.5 -170.5t-188.5 -48.5z" />
    <glyph glyph-name="uni1E0C" unicode="&#x1e0c;" horiz-adv-x="717" 
d="M64 0v710h246q167 0 268 -98.5t101 -257.5t-98 -256.5t-268 -97.5h-249zM227 149h75q90 0 146 58.5t56 146.5q0 89 -54 148t-136 59h-87v-412zM337 -58q40 0 66.5 -26t26.5 -64q0 -37 -26.5 -62.5t-66.5 -25.5t-67 25.5t-27 62.5q0 38 27 64t67 26z" />
    <glyph glyph-name="uni1E0D" unicode="&#x1e0d;" horiz-adv-x="603" 
d="M260 -9q-102 0 -166.5 70t-64.5 183q0 111 63.5 182.5t159.5 71.5q87 0 140 -61h1v299h157v-736h-149v52h-2q-49 -61 -139 -61zM292 129q46 0 76.5 31.5t30.5 83.5q0 50 -30 83t-77 33q-45 0 -75 -32t-30 -84q0 -51 29.5 -83t75.5 -32zM302 -58q40 0 66.5 -26t26.5 -64
q0 -37 -26.5 -62.5t-66.5 -25.5t-67 25.5t-27 62.5q0 38 27 64t67 26z" />
    <glyph glyph-name="uni1E0E" unicode="&#x1e0e;" horiz-adv-x="717" 
d="M64 0v710h246q167 0 268 -98.5t101 -257.5t-98 -256.5t-268 -97.5h-249zM227 149h75q90 0 146 58.5t56 146.5q0 89 -54 148t-136 59h-87v-412zM494 -221h-313v120h313v-120z" />
    <glyph glyph-name="uni1E0F" unicode="&#x1e0f;" horiz-adv-x="603" 
d="M260 -9q-102 0 -166.5 70t-64.5 183q0 111 63.5 182.5t159.5 71.5q87 0 140 -61h1v299h157v-736h-149v52h-2q-49 -61 -139 -61zM292 129q46 0 76.5 31.5t30.5 83.5q0 50 -30 83t-77 33q-45 0 -75 -32t-30 -84q0 -51 29.5 -83t75.5 -32zM459 -221h-313v120h313v-120z" />
    <glyph glyph-name="uni1E20" unicode="&#x1e20;" horiz-adv-x="737" 
d="M231 776v114h313v-114h-313zM405 -8q-159 0 -263 97t-104 265q0 159 97 262.5t263 103.5q80 0 157.5 -33t130.5 -94l-118 -100q-72 70 -170 70q-79 0 -132 -56.5t-53 -152.5q0 -89 52 -149t140 -60q65 0 123 31v84h-138v138h298v-319q-50 -39 -126.5 -63t-156.5 -24z" />
    <glyph glyph-name="uni1E21" unicode="&#x1e21;" horiz-adv-x="594" 
d="M139 573v120h313v-120h-313zM280 -207q-116 0 -201 47l35 127q73 -43 149 -43q61 0 94.5 26.5t33.5 66.5v45l-2 1q-52 -54 -135 -54q-99 0 -162.5 68t-63.5 173q0 108 62 178t155 70q85 0 140 -57h2v48h157v-425q0 -271 -264 -271zM291 148q44 0 73.5 30t29.5 76
t-29.5 75.5t-73.5 29.5q-45 0 -74.5 -29.5t-29.5 -76.5t29.5 -76t74.5 -29z" />
    <glyph glyph-name="uni1E24" unicode="&#x1e24;" horiz-adv-x="715" 
d="M64 0v710h169v-294h250v294h168v-710h-168v268h-250v-268h-169zM361 -58q40 0 66.5 -26t26.5 -64q0 -37 -26.5 -62.5t-66.5 -25.5t-67 25.5t-27 62.5q0 38 27 64t67 26z" />
    <glyph glyph-name="uni1E25" unicode="&#x1e25;" horiz-adv-x="587" 
d="M54 0v736h156v-302l2 -1q57 65 151 65q176 0 176 -203v-295h-156v256q0 57 -19.5 80t-62.5 23t-67 -28t-24 -84v-247h-156zM291 -58q40 0 66.5 -26t26.5 -64q0 -37 -26.5 -62.5t-66.5 -25.5t-67 25.5t-27 62.5q0 38 27 64t67 26z" />
    <glyph glyph-name="uni1E2A" unicode="&#x1e2a;" horiz-adv-x="715" 
d="M64 0v710h169v-294h250v294h168v-710h-168v268h-250v-268h-169zM362 -234q-77 0 -122.5 43.5t-50.5 113.5h114q2 -20 18 -34.5t41 -14.5q24 0 40 14t18 35h114q-6 -74 -53.5 -115.5t-118.5 -41.5z" />
    <glyph glyph-name="uni1E2B" unicode="&#x1e2b;" horiz-adv-x="587" 
d="M54 0v736h156v-302l2 -1q57 65 151 65q176 0 176 -203v-295h-156v256q0 57 -19.5 80t-62.5 23t-67 -28t-24 -84v-247h-156zM292 -234q-77 0 -122.5 43.5t-50.5 113.5h114q2 -20 18 -34.5t41 -14.5q24 0 40 14t18 35h114q-6 -74 -53.5 -115.5t-118.5 -41.5z" />
    <glyph glyph-name="uni1E30" unicode="&#x1e30;" horiz-adv-x="662" 
d="M218 761l108 140h159l-126 -140h-141zM64 0v710h167v-272h2l206 272h211l-256 -308l265 -402h-205l-170 270l-53 -65v-205h-167z" />
    <glyph glyph-name="uni1E31" unicode="&#x1e31;" horiz-adv-x="538" 
d="M54 0v736h154v-423h2l143 176h181l-165 -195l170 -294h-173l-109 192l-49 -54v-138h-154zM248 549l111 149l158 1l-124 -150h-145z" />
    <glyph glyph-name="uni1E36" unicode="&#x1e36;" horiz-adv-x="553" 
d="M64 0v710h171v-561h295v-149h-466zM300 -58q40 0 66.5 -26t26.5 -64q0 -37 -26.5 -62.5t-66.5 -25.5t-67 25.5t-27 62.5q0 38 27 64t67 26z" />
    <glyph glyph-name="uni1E37" unicode="&#x1e37;" horiz-adv-x="274" 
d="M59 0v736h156v-736h-156zM138 -58q40 0 66.5 -26t26.5 -64q0 -37 -26.5 -62.5t-66.5 -25.5t-67 25.5t-27 62.5q0 38 27 64t67 26z" />
    <glyph glyph-name="uni1E38" unicode="&#x1e38;" horiz-adv-x="553" 
d="M130 777v114h313v-114h-313zM64 0v710h171v-561h295v-149h-466zM300 -58q40 0 66.5 -26t26.5 -64q0 -37 -26.5 -62.5t-66.5 -25.5t-67 25.5t-27 62.5q0 38 27 64t67 26z" />
    <glyph glyph-name="uni1E39" unicode="&#x1e39;" horiz-adv-x="274" 
d="M-17 790v114h313v-114h-313zM59 0v736h156v-736h-156zM138 -58q40 0 66.5 -26t26.5 -64q0 -37 -26.5 -62.5t-66.5 -25.5t-67 25.5t-27 62.5q0 38 27 64t67 26z" />
    <glyph glyph-name="uni1E3A" unicode="&#x1e3a;" horiz-adv-x="553" 
d="M64 0v710h171v-561h295v-149h-466zM457 -221h-313v120h313v-120z" />
    <glyph glyph-name="uni1E3B" unicode="&#x1e3b;" horiz-adv-x="274" 
d="M59 0v736h156v-736h-156zM295 -221h-313v120h313v-120z" />
    <glyph glyph-name="uni1E42" unicode="&#x1e42;" horiz-adv-x="860" 
d="M65 0v710h168l197 -377h2l195 377h169v-710h-166v391h-2l-144 -260h-107l-144 261h-3v-392h-165zM431 -58q40 0 66.5 -26t26.5 -64q0 -37 -26.5 -62.5t-66.5 -25.5t-67 25.5t-27 62.5q0 38 27 64t67 26z" />
    <glyph glyph-name="uni1E43" unicode="&#x1e43;" horiz-adv-x="880" 
d="M54 0v489h156v-58h1q58 67 138 67q100 0 142 -73h2q58 73 165 73q173 0 173 -213v-285h-156v249q0 110 -71 110q-36 0 -59 -29.5t-23 -84.5v-245h-156v249q0 110 -71 110q-38 0 -61.5 -29t-23.5 -85v-245h-156zM446 -58q40 0 66.5 -26t26.5 -64q0 -37 -26.5 -62.5
t-66.5 -25.5t-67 25.5t-27 62.5q0 38 27 64t67 26z" />
    <glyph glyph-name="uni1E44" unicode="&#x1e44;" horiz-adv-x="739" 
d="M372 755q-40 0 -66.5 26t-26.5 64q0 37 26.5 62.5t66.5 25.5t67 -25.5t27 -62.5q0 -38 -27 -64t-67 -26zM64 0v710h161l283 -438l2 1v437h165v-710h-166l-278 426h-2v-426h-165z" />
    <glyph glyph-name="uni1E45" unicode="&#x1e45;" horiz-adv-x="582" 
d="M300 550q-40 0 -66.5 26t-26.5 64q0 37 26.5 62.5t66.5 25.5t67 -25.5t27 -62.5q0 -38 -27 -64t-67 -26zM54 0v489h156v-57h2q57 66 147 66q175 0 175 -205v-293h-156v255q0 58 -19 81t-59 23q-42 0 -66 -28.5t-24 -84.5v-246h-156z" />
    <glyph glyph-name="uni1E46" unicode="&#x1e46;" horiz-adv-x="739" 
d="M64 0v710h161l283 -438l2 1v437h165v-710h-166l-278 426h-2v-426h-165zM370 -58q40 0 66.5 -26t26.5 -64q0 -37 -26.5 -62.5t-66.5 -25.5t-67 25.5t-27 62.5q0 38 27 64t67 26z" />
    <glyph glyph-name="uni1E47" unicode="&#x1e47;" horiz-adv-x="582" 
d="M54 0v489h156v-57h2q57 66 147 66q175 0 175 -205v-293h-156v255q0 58 -19 81t-59 23q-42 0 -66 -28.5t-24 -84.5v-246h-156zM304 -58q40 0 66.5 -26t26.5 -64q0 -37 -26.5 -62.5t-66.5 -25.5t-67 25.5t-27 62.5q0 38 27 64t67 26z" />
    <glyph glyph-name="uni1E48" unicode="&#x1e48;" horiz-adv-x="739" 
d="M64 0v710h161l283 -438l2 1v437h165v-710h-166l-278 426h-2v-426h-165zM527 -221h-313v120h313v-120z" />
    <glyph glyph-name="uni1E49" unicode="&#x1e49;" horiz-adv-x="582" 
d="M54 0v489h156v-57h2q57 66 147 66q175 0 175 -205v-293h-156v255q0 58 -19 81t-59 23q-42 0 -66 -28.5t-24 -84.5v-246h-156zM461 -221h-313v120h313v-120z" />
    <glyph glyph-name="uni1E5A" unicode="&#x1e5a;" horiz-adv-x="649" 
d="M64 0v710h277q127 0 190.5 -66.5t63.5 -178.5q0 -158 -134 -213l169 -252h-196l-146 229h-61v-229h-163zM227 375h84q54 0 82.5 24.5t28.5 69.5q0 43 -27 68.5t-81 25.5h-87v-188zM329 -58q40 0 66.5 -26t26.5 -64q0 -37 -26.5 -62.5t-66.5 -25.5t-67 25.5t-27 62.5
q0 38 27 64t67 26z" />
    <glyph glyph-name="uni1E5B" unicode="&#x1e5b;" horiz-adv-x="373" 
d="M54 0v489h156v-68h2q55 77 141 77h6v-169q-30 2 -37 2q-54 0 -83 -30.5t-29 -80.5v-220h-156zM134 -58q40 0 66.5 -26t26.5 -64q0 -37 -26.5 -62.5t-66.5 -25.5t-67 25.5t-27 62.5q0 38 27 64t67 26z" />
    <glyph glyph-name="uni1E5C" unicode="&#x1e5c;" horiz-adv-x="649" 
d="M157 777v114h313v-114h-313zM64 0v710h277q127 0 190.5 -66.5t63.5 -178.5q0 -158 -134 -213l169 -252h-196l-146 229h-61v-229h-163zM227 375h84q54 0 82.5 24.5t28.5 69.5q0 43 -27 68.5t-81 25.5h-87v-188zM329 -58q40 0 66.5 -26t26.5 -64q0 -37 -26.5 -62.5
t-66.5 -25.5t-67 25.5t-27 62.5q0 38 27 64t67 26z" />
    <glyph glyph-name="uni1E5D" unicode="&#x1e5d;" horiz-adv-x="373" 
d="M66 573v120h313v-120h-313zM54 0v489h156v-68h2q55 77 141 77h6v-169q-30 2 -37 2q-54 0 -83 -30.5t-29 -80.5v-220h-156zM134 -58q40 0 66.5 -26t26.5 -64q0 -37 -26.5 -62.5t-66.5 -25.5t-67 25.5t-27 62.5q0 38 27 64t67 26z" />
    <glyph glyph-name="uni1E5E" unicode="&#x1e5e;" horiz-adv-x="649" 
d="M64 0v710h277q127 0 190.5 -66.5t63.5 -178.5q0 -158 -134 -213l169 -252h-196l-146 229h-61v-229h-163zM227 375h84q54 0 82.5 24.5t28.5 69.5q0 43 -27 68.5t-81 25.5h-87v-188zM486 -221h-313v120h313v-120z" />
    <glyph glyph-name="uni1E5F" unicode="&#x1e5f;" horiz-adv-x="373" 
d="M54 0v489h156v-68h2q55 77 141 77h6v-169q-30 2 -37 2q-54 0 -83 -30.5t-29 -80.5v-220h-156zM291 -221h-313v120h313v-120z" />
    <glyph glyph-name="uni1E60" unicode="&#x1e60;" horiz-adv-x="570" 
d="M285 755q-40 0 -66.5 26t-26.5 64q0 37 26.5 62.5t66.5 25.5t67 -25.5t27 -62.5q0 -38 -27 -64t-67 -26zM280 -9q-151 0 -261 113l98 119q77 -84 168 -84q40 0 60 17t20 43q0 29 -22 45.5t-83 37.5q-48 16 -80.5 32t-66.5 42.5t-51.5 65t-17.5 88.5q0 88 67 147.5
t166 61.5q135 3 246 -92l-94 -122q-85 67 -145 67q-31 0 -48.5 -14.5t-17.5 -40.5q-1 -25 21 -42t81 -40q110 -42 146 -67q74 -52 75 -150q0 -60 -23.5 -105.5t-63 -71t-83.5 -38t-91 -12.5z" />
    <glyph glyph-name="uni1E61" unicode="&#x1e61;" horiz-adv-x="440" 
d="M224 550q-40 0 -66.5 26t-26.5 64q0 37 26.5 62.5t66.5 25.5t67 -25.5t27 -62.5q0 -38 -27 -64t-67 -26zM215 -9q-118 0 -199 72l73 101q61 -55 128 -55q47 0 47 29q0 12 -15.5 21.5t-60.5 23.5q-72 22 -113 58t-41 101q0 72 52 114t131 42q102 0 185 -61l-74 -109
q-51 51 -109 51q-15 0 -27 -7t-12 -20q0 -20 67 -43q92 -31 129.5 -62.5t37.5 -98.5q0 -71 -51 -114t-148 -43z" />
    <glyph glyph-name="uni1E62" unicode="&#x1e62;" horiz-adv-x="570" 
d="M280 -9q-151 0 -261 113l98 119q77 -84 168 -84q40 0 60 17t20 43q0 29 -22 45.5t-83 37.5q-48 16 -80.5 32t-66.5 42.5t-51.5 65t-17.5 88.5q0 88 67 147.5t166 61.5q135 3 246 -92l-94 -122q-85 67 -145 67q-31 0 -48.5 -14.5t-17.5 -40.5q-1 -25 21 -42t81 -40
q110 -42 146 -67q74 -52 75 -150q0 -60 -23.5 -105.5t-63 -71t-83.5 -38t-91 -12.5zM286 -58q40 0 66.5 -26t26.5 -64q0 -37 -26.5 -62.5t-66.5 -25.5t-67 25.5t-27 62.5q0 38 27 64t67 26z" />
    <glyph glyph-name="uni1E63" unicode="&#x1e63;" horiz-adv-x="440" 
d="M215 -9q-118 0 -199 72l73 101q61 -55 128 -55q47 0 47 29q0 12 -15.5 21.5t-60.5 23.5q-72 22 -113 58t-41 101q0 72 52 114t131 42q102 0 185 -61l-74 -109q-51 51 -109 51q-15 0 -27 -7t-12 -20q0 -20 67 -43q92 -31 129.5 -62.5t37.5 -98.5q0 -71 -51 -114t-148 -43z
M224 -58q40 0 66.5 -26t26.5 -64q0 -37 -26.5 -62.5t-66.5 -25.5t-67 25.5t-27 62.5q0 38 27 64t67 26z" />
    <glyph glyph-name="uni1E6C" unicode="&#x1e6c;" 
d="M208 0v561h-185v149h541v-149h-186v-561h-170zM291 -58q40 0 66.5 -26t26.5 -64q0 -37 -26.5 -62.5t-66.5 -25.5t-67 25.5t-27 62.5q0 38 27 64t67 26z" />
    <glyph glyph-name="uni1E6D" unicode="&#x1e6d;" horiz-adv-x="374" 
d="M213 -9q-66 0 -105 41.5t-39 121.5v209h-55v126h55v157l157 16v-173h118v-126h-118v-180q0 -55 37 -55q25 0 48 11l39 -115q-59 -33 -137 -33zM209 -58q40 0 66.5 -26t26.5 -64q0 -37 -26.5 -62.5t-66.5 -25.5t-67 25.5t-27 62.5q0 38 27 64t67 26z" />
    <glyph glyph-name="uni1E6E" unicode="&#x1e6e;" 
d="M208 0v561h-185v149h541v-149h-186v-561h-170zM448 -221h-313v120h313v-120z" />
    <glyph glyph-name="uni1E6F" unicode="&#x1e6f;" horiz-adv-x="374" 
d="M213 -9q-66 0 -105 41.5t-39 121.5v209h-55v126h55v157l157 16v-173h118v-126h-118v-180q0 -55 37 -55q25 0 48 11l39 -115q-59 -33 -137 -33zM366 -221h-313v120h313v-120z" />
    <glyph glyph-name="Wgrave" unicode="&#x1e80;" horiz-adv-x="1025" 
d="M449 761l-126 140h160l108 -140h-142zM238 0l-223 710h179l119 -436h3l109 436h176l108 -435h3l120 435h178l-223 -710h-153l-118 466h-2l-123 -466h-153z" />
    <glyph glyph-name="wgrave" unicode="&#x1e81;" horiz-adv-x="766" 
d="M312 548l-123 149l159 -1l106 -148h-142zM176 0l-165 489h156l80 -265h1l74 265h121l74 -265h2l81 265h155l-166 -489h-126l-80 284h-1l-78 -284h-128z" />
    <glyph glyph-name="Wacute" unicode="&#x1e82;" horiz-adv-x="1025" 
d="M440 761l108 140h159l-126 -140h-141zM238 0l-223 710h179l119 -436h3l109 436h176l108 -435h3l120 435h178l-223 -710h-153l-118 466h-2l-123 -466h-153z" />
    <glyph glyph-name="wacute" unicode="&#x1e83;" horiz-adv-x="766" 
d="M310 549l111 149l158 1l-124 -150h-145zM176 0l-165 489h156l80 -265h1l74 265h121l74 -265h2l81 265h155l-166 -489h-126l-80 284h-1l-78 -284h-128z" />
    <glyph glyph-name="Wdieresis" unicode="&#x1e84;" horiz-adv-x="1025" 
d="M401 756q-40 0 -66.5 25.5t-26.5 63.5q0 36 26.5 61.5t66.5 25.5t67 -25t27 -62q0 -38 -27 -63.5t-67 -25.5zM625 756q-40 0 -66.5 25.5t-26.5 63.5q0 36 26.5 61.5t66.5 25.5t66.5 -25t26.5 -62q0 -38 -26.5 -63.5t-66.5 -25.5zM238 0l-223 710h179l119 -436h3l109 436
h176l108 -435h3l120 435h178l-223 -710h-153l-118 466h-2l-123 -466h-153z" />
    <glyph glyph-name="wdieresis" unicode="&#x1e85;" horiz-adv-x="766" 
d="M269 551q-40 0 -66.5 25.5t-26.5 63.5q0 36 26.5 61.5t66.5 25.5t67 -25t27 -62q0 -38 -27 -63.5t-67 -25.5zM493 551q-40 0 -66.5 25.5t-26.5 63.5q0 36 26.5 61.5t66.5 25.5t66.5 -25t26.5 -62q0 -38 -26.5 -63.5t-66.5 -25.5zM176 0l-165 489h156l80 -265h1l74 265
h121l74 -265h2l81 265h155l-166 -489h-126l-80 284h-1l-78 -284h-128z" />
    <glyph glyph-name="uni1E8E" unicode="&#x1e8e;" horiz-adv-x="636" 
d="M319 755q-40 0 -66.5 26t-26.5 64q0 37 26.5 62.5t66.5 25.5t67 -25.5t27 -62.5q0 -38 -27 -64t-67 -26zM232 0v309l-231 401h191l125 -236h2l123 236h193l-233 -401v-309h-170z" />
    <glyph glyph-name="uni1E8F" unicode="&#x1e8f;" horiz-adv-x="536" 
d="M270 550q-40 0 -66.5 26t-26.5 64q0 37 26.5 62.5t66.5 25.5t67 -25.5t27 -62.5q0 -38 -27 -64t-67 -26zM116 -198l84 231l-191 456h167l98 -263h3l94 263h156l-257 -687h-154z" />
    <glyph glyph-name="uni1E92" unicode="&#x1e92;" horiz-adv-x="613" 
d="M41 0v130l308 429l-2 2h-295v149h519v-126l-316 -432l2 -3h315v-149h-531zM304 -58q40 0 66.5 -26t26.5 -64q0 -37 -26.5 -62.5t-66.5 -25.5t-67 25.5t-27 62.5q0 38 27 64t67 26z" />
    <glyph glyph-name="uni1E93" unicode="&#x1e93;" horiz-adv-x="478" 
d="M29 0v104l213 259v3h-194v123h402v-103l-217 -260v-2h209v-124h-413zM241 -58q40 0 66.5 -26t26.5 -64q0 -37 -26.5 -62.5t-66.5 -25.5t-67 25.5t-27 62.5q0 38 27 64t67 26z" />
    <glyph glyph-name="uni1E97" unicode="&#x1e97;" horiz-adv-x="374" 
d="M76 700q-40 0 -66.5 25.5t-26.5 63.5q0 36 26.5 61.5t66.5 25.5t67 -25t27 -62q0 -38 -27 -63.5t-67 -25.5zM300 700q-40 0 -66.5 25.5t-26.5 63.5q0 36 26.5 61.5t66.5 25.5t66.5 -25t26.5 -62q0 -38 -26.5 -63.5t-66.5 -25.5zM213 -9q-66 0 -105 41.5t-39 121.5v209
h-55v126h55v157l157 16v-173h118v-126h-118v-180q0 -55 37 -55q25 0 48 11l39 -115q-59 -33 -137 -33z" />
    <glyph glyph-name="uni1E9E" unicode="&#x1e9e;" horiz-adv-x="778" 
d="M551 429q55 -21 83.5 -34.5t61 -37.5t46.5 -58t14 -81q0 -59 -23.5 -105t-61 -71.5t-78 -38t-81.5 -12.5q-123 0 -224 85l75 138q37 -37 78.5 -56t72.5 -19q32 0 49 17.5t17 42.5q0 30 -22 47t-83 37q-74 25 -130 62l118 218l-2 4q-73 7 -115 7q-130 0 -130 -119l-1 -455
h-164l1 461q0 139 73.5 199t210.5 60q161 0 345 -48z" />
    <glyph glyph-name="uni1EA0" unicode="&#x1ea0;" horiz-adv-x="694" 
d="M6 0l261 710h160l260 -710h-174l-42 128h-248l-42 -128h-175zM268 268h159l-79 240h-2zM348 -58q40 0 66.5 -26t26.5 -64q0 -37 -26.5 -62.5t-66.5 -25.5t-67 25.5t-27 62.5q0 38 27 64t67 26z" />
    <glyph glyph-name="uni1EA1" unicode="&#x1ea1;" horiz-adv-x="596" 
d="M259 -9q-101 0 -166 70t-65 183q0 111 63.5 182.5t159.5 71.5q83 0 135 -61l2 1v51h157v-489h-149v51l-2 1q-48 -61 -135 -61zM292 129q43 0 73 32t30 83q0 50 -29.5 83t-73.5 33q-46 0 -75.5 -32t-29.5 -84t29 -83.5t76 -31.5zM291 -58q40 0 66.5 -26t26.5 -64
q0 -37 -26.5 -62.5t-66.5 -25.5t-67 25.5t-27 62.5q0 38 27 64t67 26z" />
    <glyph glyph-name="uni1EA2" unicode="&#x1ea2;" horiz-adv-x="694" 
d="M305 761q55 35 55 60q0 19 -29 19q-34 0 -69 -19l-28 65q22 19 62 33t84 14q50 0 78 -20t28 -58q0 -30 -25 -54.5t-65 -39.5h-91zM6 0l261 710h160l260 -710h-174l-42 128h-248l-42 -128h-175zM268 268h159l-79 240h-2z" />
    <glyph glyph-name="uni1EA3" unicode="&#x1ea3;" horiz-adv-x="596" 
d="M254 550q56 44 55 75q0 23 -29 23q-33 0 -68 -23l-28 65q22 22 61.5 38.5t83.5 16.5q50 0 78 -22t28 -64q0 -33 -25.5 -62.5t-64.5 -46.5h-91zM259 -9q-101 0 -166 70t-65 183q0 111 63.5 182.5t159.5 71.5q83 0 135 -61l2 1v51h157v-489h-149v51l-2 1q-48 -61 -135 -61z
M292 129q43 0 73 32t30 83q0 50 -29.5 83t-73.5 33q-46 0 -75.5 -32t-29.5 -84t29 -83.5t76 -31.5z" />
    <glyph glyph-name="uni1EA4" unicode="&#x1ea4;" horiz-adv-x="694" 
d="M509 822l81 146l150 1l-117 -147h-114zM166 761l95 140h168l98 -140h-136l-45 65h-2l-45 -65h-133zM6 0l261 710h160l260 -710h-174l-42 128h-248l-42 -128h-175zM268 268h159l-79 240h-2z" />
    <glyph glyph-name="uni1EA5" unicode="&#x1ea5;" horiz-adv-x="596" 
d="M437 652l75 150l149 1l-117 -151h-107zM115 548l95 149h168l97 -149h-136l-44 72h-2l-45 -72h-133zM259 -9q-101 0 -166 70t-65 183q0 111 63.5 182.5t159.5 71.5q83 0 135 -61l2 1v51h157v-489h-149v51l-2 1q-48 -61 -135 -61zM292 129q43 0 73 32t30 83q0 50 -29.5 83
t-73.5 33q-46 0 -75.5 -32t-29.5 -84t29 -83.5t76 -31.5z" />
    <glyph glyph-name="uni1EA6" unicode="&#x1ea6;" horiz-adv-x="694" 
d="M548 822l-116 147l149 -1l81 -146h-114zM166 761l95 140h168l98 -140h-136l-45 65h-2l-45 -65h-133zM6 0l261 710h160l260 -710h-174l-42 128h-248l-42 -128h-175zM268 268h159l-79 240h-2z" />
    <glyph glyph-name="uni1EA7" unicode="&#x1ea7;" horiz-adv-x="596" 
d="M469 652l-117 151l150 -1l74 -150h-107zM116 548l95 149h168l97 -149h-136l-44 72h-2l-45 -72h-133zM259 -9q-101 0 -166 70t-65 183q0 111 63.5 182.5t159.5 71.5q83 0 135 -61l2 1v51h157v-489h-149v51l-2 1q-48 -61 -135 -61zM292 129q43 0 73 32t30 83q0 50 -29.5 83
t-73.5 33q-46 0 -75.5 -32t-29.5 -84t29 -83.5t76 -31.5z" />
    <glyph glyph-name="uni1EA8" unicode="&#x1ea8;" horiz-adv-x="694" 
d="M513 837q50 32 50 54q0 17 -26 17q-31 0 -62 -17l-26 58q50 42 132 42q45 0 70 -18t25 -52q0 -53 -81 -84h-82zM166 761l95 140h168l98 -140h-136l-45 65h-2l-45 -65h-133zM6 0l261 710h160l260 -710h-174l-42 128h-248l-42 -128h-175zM268 268h159l-79 240h-2z" />
    <glyph glyph-name="uni1EA9" unicode="&#x1ea9;" horiz-adv-x="596" 
d="M449 645q51 40 50 69q0 21 -27 21q-30 0 -62 -21l-26 59q21 21 57 36t76 15q46 0 71.5 -20t25.5 -59q0 -30 -23 -57t-59 -43h-83zM116 548l95 149h168l97 -149h-136l-44 72h-2l-45 -72h-133zM259 -9q-101 0 -166 70t-65 183q0 111 63.5 182.5t159.5 71.5q83 0 135 -61
l2 1v51h157v-489h-149v51l-2 1q-48 -61 -135 -61zM292 129q43 0 73 32t30 83q0 50 -29.5 83t-73.5 33q-46 0 -75.5 -32t-29.5 -84t29 -83.5t76 -31.5z" />
    <glyph glyph-name="uni1EAA" unicode="&#x1eaa;" horiz-adv-x="694" 
d="M424 922q-32 0 -80 25q-38 19 -51 19q-31 0 -51 -43l-84 33q16 47 46.5 77t72.5 30q44 0 84 -26q28 -16 47 -16q31 0 50 42l84 -27q-17 -51 -47 -82.5t-71 -31.5zM166 761l95 140h168l98 -140h-136l-45 65h-2l-45 -65h-133zM6 0l261 710h160l260 -710h-174l-42 128h-248
l-42 -128h-175zM268 268h159l-79 240h-2z" />
    <glyph glyph-name="uni1EAB" unicode="&#x1eab;" horiz-adv-x="596" 
d="M195 725l-91 36q42 110 124 110q31 0 79 -25q32 -18 44 -18q28 0 51 45l89 -28q-17 -50 -48.5 -84t-74.5 -34q-32 0 -73 24q-35 20 -52 19q-28 0 -48 -45zM116 548l95 149h168l97 -149h-136l-44 72h-2l-45 -72h-133zM259 -9q-101 0 -166 70t-65 183q0 111 63.5 182.5
t159.5 71.5q83 0 135 -61l2 1v51h157v-489h-149v51l-2 1q-48 -61 -135 -61zM292 129q43 0 73 32t30 83q0 50 -29.5 83t-73.5 33q-46 0 -75.5 -32t-29.5 -84t29 -83.5t76 -31.5z" />
    <glyph glyph-name="uni1EAC" unicode="&#x1eac;" horiz-adv-x="694" 
d="M166 761l95 140h168l98 -140h-136l-45 65h-2l-45 -65h-133zM6 0l261 710h160l260 -710h-174l-42 128h-248l-42 -128h-175zM268 268h159l-79 240h-2zM348 -58q40 0 66.5 -26t26.5 -64q0 -37 -26.5 -62.5t-66.5 -25.5t-67 25.5t-27 62.5q0 38 27 64t67 26z" />
    <glyph glyph-name="uni1EAD" unicode="&#x1ead;" horiz-adv-x="596" 
d="M116 548l95 149h168l97 -149h-136l-44 72h-2l-45 -72h-133zM259 -9q-101 0 -166 70t-65 183q0 111 63.5 182.5t159.5 71.5q83 0 135 -61l2 1v51h157v-489h-149v51l-2 1q-48 -61 -135 -61zM292 129q43 0 73 32t30 83q0 50 -29.5 83t-73.5 33q-46 0 -75.5 -32t-29.5 -84
t29 -83.5t76 -31.5zM291 -58q40 0 66.5 -26t26.5 -64q0 -37 -26.5 -62.5t-66.5 -25.5t-67 25.5t-27 62.5q0 38 27 64t67 26z" />
    <glyph glyph-name="uni1EAE" unicode="&#x1eae;" horiz-adv-x="694" 
d="M296 899l81 133l150 1l-120 -134h-111zM346 748q-79 0 -126 35.5t-54 101.5h119q2 -18 18.5 -30t42.5 -12t43 12t19 30h119q-6 -63 -51.5 -100t-129.5 -37zM6 0l261 710h160l260 -710h-174l-42 128h-248l-42 -128h-175zM268 268h159l-79 240h-2z" />
    <glyph glyph-name="uni1EAF" unicode="&#x1eaf;" horiz-adv-x="596" 
d="M241 715l74 150l150 1l-117 -151h-107zM295 539q-71 0 -118.5 41.5t-53.5 115.5h114q2 -21 18 -35t40 -14q25 0 41 14.5t18 34.5h114q-5 -70 -50.5 -113.5t-122.5 -43.5zM259 -9q-101 0 -166 70t-65 183q0 111 63.5 182.5t159.5 71.5q83 0 135 -61l2 1v51h157v-489h-149
v51l-2 1q-48 -61 -135 -61zM292 129q43 0 73 32t30 83q0 50 -29.5 83t-73.5 33q-46 0 -75.5 -32t-29.5 -84t29 -83.5t76 -31.5z" />
    <glyph glyph-name="uni1EB0" unicode="&#x1eb0;" horiz-adv-x="694" 
d="M300 902l-119 134l149 -1l81 -133h-111zM346 748q-79 0 -126 35.5t-54 101.5h119q2 -18 18.5 -30t42.5 -12t43 12t19 30h119q-6 -63 -51.5 -100t-129.5 -37zM6 0l261 710h160l260 -710h-174l-42 128h-248l-42 -128h-175zM268 268h159l-79 240h-2z" />
    <glyph glyph-name="uni1EB1" unicode="&#x1eb1;" horiz-adv-x="596" 
d="M248 715l-117 151l150 -1l74 -150h-107zM295 539q-71 0 -118.5 41.5t-53.5 115.5h114q2 -21 18 -35t40 -14q25 0 41 14.5t18 34.5h114q-5 -70 -50.5 -113.5t-122.5 -43.5zM259 -9q-101 0 -166 70t-65 183q0 111 63.5 182.5t159.5 71.5q83 0 135 -61l2 1v51h157v-489h-149
v51l-2 1q-48 -61 -135 -61zM292 129q43 0 73 32t30 83q0 50 -29.5 83t-73.5 33q-46 0 -75.5 -32t-29.5 -84t29 -83.5t76 -31.5z" />
    <glyph glyph-name="uni1EB2" unicode="&#x1eb2;" horiz-adv-x="694" 
d="M294 890q50 32 50 54q0 17 -26 17q-31 0 -62 -17l-26 58q50 42 132 42q45 0 70 -18t25 -52q0 -53 -81 -84h-82zM346 748q-79 0 -126 35.5t-54 101.5h119q2 -18 18.5 -30t42.5 -12t43 12t19 30h119q-6 -63 -51.5 -100t-129.5 -37zM6 0l261 710h160l260 -710h-174l-42 128
h-248l-42 -128h-175zM268 268h159l-79 240h-2z" />
    <glyph glyph-name="uni1EB3" unicode="&#x1eb3;" horiz-adv-x="596" 
d="M246 699q51 40 50 69q0 21 -27 21q-31 0 -62 -21l-26 59q21 21 57 36t76 15q46 0 71.5 -20t25.5 -59q0 -30 -23 -57t-59 -43h-83zM294 538q-74 0 -122 39.5t-55 110.5h117q3 -20 19 -33.5t41 -13.5t42 13.5t19 33.5h117q-6 -67 -52.5 -108.5t-125.5 -41.5zM259 -9
q-101 0 -166 70t-65 183q0 111 63.5 182.5t159.5 71.5q83 0 135 -61l2 1v51h157v-489h-149v51l-2 1q-48 -61 -135 -61zM292 129q43 0 73 32t30 83q0 50 -29.5 83t-73.5 33q-46 0 -75.5 -32t-29.5 -84t29 -83.5t76 -31.5z" />
    <glyph glyph-name="uni1EB4" unicode="&#x1eb4;" horiz-adv-x="694" 
d="M424 902q-32 0 -80 25q-38 19 -51 19q-31 0 -51 -43l-84 33q16 47 46.5 77t72.5 30q44 0 84 -26q28 -16 47 -16q31 0 50 42l84 -27q-17 -51 -47 -82.5t-71 -31.5zM346 748q-79 0 -126 35.5t-54 101.5h119q2 -18 18.5 -30t42.5 -12t43 12t19 30h119q-6 -63 -51.5 -100
t-129.5 -37zM6 0l261 710h160l260 -710h-174l-42 128h-248l-42 -128h-175zM268 268h159l-79 240h-2z" />
    <glyph glyph-name="uni1EB5" unicode="&#x1eb5;" horiz-adv-x="596" 
d="M193 718l-91 36q42 110 124 110q31 0 79 -25q32 -18 44 -18q28 0 51 45l89 -28q-17 -50 -48.5 -84t-74.5 -34q-32 0 -73 24q-35 20 -52 19q-28 0 -48 -45zM293 539q-71 0 -118.5 41.5t-53.5 115.5h114q2 -21 18 -35t40 -14q25 0 41 14.5t18 34.5h114q-5 -70 -50.5 -113.5
t-122.5 -43.5zM259 -9q-101 0 -166 70t-65 183q0 111 63.5 182.5t159.5 71.5q83 0 135 -61l2 1v51h157v-489h-149v51l-2 1q-48 -61 -135 -61zM292 129q43 0 73 32t30 83q0 50 -29.5 83t-73.5 33q-46 0 -75.5 -32t-29.5 -84t29 -83.5t76 -31.5z" />
    <glyph glyph-name="uni1EB6" unicode="&#x1eb6;" horiz-adv-x="694" 
d="M346 754q-76 0 -120.5 38t-51.5 109h114q2 -20 18 -33t40 -13q25 0 41 13.5t18 32.5h114q-6 -68 -49 -107.5t-124 -39.5zM6 0l261 710h160l260 -710h-174l-42 128h-248l-42 -128h-175zM268 268h159l-79 240h-2zM348 -58q40 0 66.5 -26t26.5 -64q0 -37 -26.5 -62.5
t-66.5 -25.5t-67 25.5t-27 62.5q0 38 27 64t67 26z" />
    <glyph glyph-name="uni1EB7" unicode="&#x1eb7;" horiz-adv-x="596" 
d="M295 539q-71 0 -118.5 41.5t-53.5 115.5h114q2 -21 18 -35t40 -14q25 0 41 14.5t18 34.5h114q-5 -70 -50.5 -113.5t-122.5 -43.5zM259 -9q-101 0 -166 70t-65 183q0 111 63.5 182.5t159.5 71.5q83 0 135 -61l2 1v51h157v-489h-149v51l-2 1q-48 -61 -135 -61zM292 129
q43 0 73 32t30 83q0 50 -29.5 83t-73.5 33q-46 0 -75.5 -32t-29.5 -84t29 -83.5t76 -31.5zM291 -58q40 0 66.5 -26t26.5 -64q0 -37 -26.5 -62.5t-66.5 -25.5t-67 25.5t-27 62.5q0 38 27 64t67 26z" />
    <glyph glyph-name="uni1EB8" unicode="&#x1eb8;" horiz-adv-x="585" 
d="M64 0v710h463v-149h-300v-136h237v-144h-237v-132h321v-149h-484zM306 -58q40 0 66.5 -26t26.5 -64q0 -37 -26.5 -62.5t-66.5 -25.5t-67 25.5t-27 62.5q0 38 27 64t67 26z" />
    <glyph glyph-name="uni1EB9" unicode="&#x1eb9;" horiz-adv-x="550" 
d="M521 250q0 -17 -3 -47h-333q7 -41 39 -63t78 -22q68 2 114 53l90 -92q-71 -88 -220 -88q-112 0 -184 70.5t-72 183.5q0 111 70.5 182t181.5 71q104 0 171.5 -70t67.5 -178zM280 374q-36 0 -61.5 -20.5t-32.5 -57.5h183q-8 36 -31 57t-58 21zM284 -58q40 0 66.5 -26
t26.5 -64q0 -37 -26.5 -62.5t-66.5 -25.5t-67 25.5t-27 62.5q0 38 27 64t67 26z" />
    <glyph glyph-name="uni1EBA" unicode="&#x1eba;" horiz-adv-x="585" 
d="M257 760q55 35 55 60q0 19 -29 19q-34 0 -69 -19l-28 65q22 19 62 33t84 14q50 0 78 -20t28 -58q0 -30 -25 -54.5t-65 -39.5h-91zM64 0v710h463v-149h-300v-136h237v-144h-237v-132h321v-149h-484z" />
    <glyph glyph-name="uni1EBB" unicode="&#x1ebb;" horiz-adv-x="550" 
d="M266 648q-33 0 -68 -23l-28 65q22 22 61.5 38.5t83.5 16.5q50 0 78 -22t28 -64q0 -33 -25.5 -62.5t-64.5 -46.5h-91q56 44 55 75q0 23 -29 23zM521 250q0 -17 -3 -47h-333q7 -41 39 -63t78 -22q68 2 114 53l90 -92q-71 -88 -220 -88q-112 0 -184 70.5t-72 183.5
q0 111 70.5 182t181.5 71q104 0 171.5 -70t67.5 -178zM280 374q-36 0 -61.5 -20.5t-32.5 -57.5h183q-8 36 -31 57t-58 21z" />
    <glyph glyph-name="uni1EBC" unicode="&#x1ebc;" horiz-adv-x="585" 
d="M384 760q-34 0 -86 27q-38 20 -55 20q-33 0 -54 -46l-90 35q17 50 49.5 82.5t77.5 32.5q50 0 90 -27q31 -18 51 -18q32 0 53 46l90 -29q-18 -55 -50 -89t-76 -34zM64 0v710h463v-149h-300v-136h237v-144h-237v-132h321v-149h-484z" />
    <glyph glyph-name="uni1EBD" unicode="&#x1ebd;" horiz-adv-x="550" 
d="M227 596q-33 0 -55 -48l-90 38q17 55 50 89t78 34q42 0 88 -26q30 -19 50 -19q34 0 55 46l90 -29q-17 -59 -49.5 -95.5t-75.5 -36.5q-40 0 -88 27q-36 20 -53 20zM521 250q0 -17 -3 -47h-333q7 -41 39 -63t78 -22q68 2 114 53l90 -92q-71 -88 -220 -88q-112 0 -184 70.5
t-72 183.5q0 111 70.5 182t181.5 71q104 0 171.5 -70t67.5 -178zM280 374q-36 0 -61.5 -20.5t-32.5 -57.5h183q-8 36 -31 57t-58 21z" />
    <glyph glyph-name="uni1EBE" unicode="&#x1ebe;" horiz-adv-x="585" 
d="M461 821l81 146l150 1l-117 -147h-114zM118 760l95 140h168l98 -140h-136l-45 65h-2l-45 -65h-133zM64 0v710h463v-149h-300v-136h237v-144h-237v-132h321v-149h-484z" />
    <glyph glyph-name="uni1EBF" unicode="&#x1ebf;" horiz-adv-x="550" 
d="M498 802l149 1l-117 -151h-107zM279 620l-45 -72h-133l95 149h168l97 -149h-136l-44 72h-2zM282 498q104 0 171.5 -70t67.5 -178q0 -17 -3 -47h-333q7 -41 39 -63t78 -22q68 2 114 53l90 -92q-71 -88 -220 -88q-112 0 -184 70.5t-72 183.5q0 111 70.5 182t181.5 71z
M280 374q-36 0 -61.5 -20.5t-32.5 -57.5h183q-8 36 -31 57t-58 21z" />
    <glyph glyph-name="uni1EC0" unicode="&#x1ec0;" horiz-adv-x="585" 
d="M500 821l-116 147l149 -1l81 -146h-114zM118 760l95 140h168l98 -140h-136l-45 65h-2l-45 -65h-133zM64 0v710h463v-149h-300v-136h237v-144h-237v-132h321v-149h-484z" />
    <glyph glyph-name="uni1EC1" unicode="&#x1ec1;" horiz-adv-x="550" 
d="M562 652h-107l-117 151l150 -1zM280 620l-45 -72h-133l95 149h168l97 -149h-136l-44 72h-2zM282 498q104 0 171.5 -70t67.5 -178q0 -17 -3 -47h-333q7 -41 39 -63t78 -22q68 2 114 53l90 -92q-71 -88 -220 -88q-112 0 -184 70.5t-72 183.5q0 111 70.5 182t181.5 71z
M280 374q-36 0 -61.5 -20.5t-32.5 -57.5h183q-8 36 -31 57t-58 21z" />
    <glyph glyph-name="uni1EC2" unicode="&#x1ec2;" horiz-adv-x="585" 
d="M465 836q50 32 50 54q0 17 -26 17q-31 0 -62 -17l-26 58q50 42 132 42q45 0 70 -18t25 -52q0 -53 -81 -84h-82zM118 760l95 140h168l98 -140h-136l-45 65h-2l-45 -65h-133zM64 0v710h463v-149h-300v-136h237v-144h-237v-132h321v-149h-484z" />
    <glyph glyph-name="uni1EC3" unicode="&#x1ec3;" horiz-adv-x="550" 
d="M503 824q46 0 71.5 -20t25.5 -59q0 -30 -23 -57t-59 -43h-83q51 40 50 69q0 21 -27 21q-30 0 -62 -21l-26 59q21 21 57 36t76 15zM280 620l-45 -72h-133l95 149h168l97 -149h-136l-44 72h-2zM282 498q104 0 171.5 -70t67.5 -178q0 -17 -3 -47h-333q7 -41 39 -63t78 -22
q68 2 114 53l90 -92q-71 -88 -220 -88q-112 0 -184 70.5t-72 183.5q0 111 70.5 182t181.5 71zM280 374q-36 0 -61.5 -20.5t-32.5 -57.5h183q-8 36 -31 57t-58 21z" />
    <glyph glyph-name="uni1EC4" unicode="&#x1ec4;" horiz-adv-x="585" 
d="M376 921q-32 0 -80 25q-38 19 -51 19q-31 0 -51 -43l-84 33q16 47 46.5 77t72.5 30q44 0 84 -26q28 -16 47 -16q31 0 50 42l84 -27q-17 -51 -47 -82.5t-71 -31.5zM118 760l95 140h168l98 -140h-136l-45 65h-2l-45 -65h-133zM64 0v710h463v-149h-300v-136h237v-144h-237
v-132h321v-149h-484z" />
    <glyph glyph-name="uni1EC5" unicode="&#x1ec5;" horiz-adv-x="550" 
d="M229 770q-28 0 -48 -45l-91 36q42 110 124 110q31 0 79 -25q32 -18 44 -18q28 0 51 45l89 -28q-17 -50 -48.5 -84t-74.5 -34q-32 0 -73 24q-35 20 -52 19zM197 697h168l97 -149h-136l-44 72h-2l-45 -72h-133zM521 250q0 -17 -3 -47h-333q7 -41 39 -63t78 -22q68 2 114 53
l90 -92q-71 -88 -220 -88q-112 0 -184 70.5t-72 183.5q0 111 70.5 182t181.5 71q104 0 171.5 -70t67.5 -178zM280 374q-36 0 -61.5 -20.5t-32.5 -57.5h183q-8 36 -31 57t-58 21z" />
    <glyph glyph-name="uni1EC6" unicode="&#x1ec6;" horiz-adv-x="585" 
d="M118 760l95 140h168l98 -140h-136l-45 65h-2l-45 -65h-133zM64 0v710h463v-149h-300v-136h237v-144h-237v-132h321v-149h-484zM306 -58q40 0 66.5 -26t26.5 -64q0 -37 -26.5 -62.5t-66.5 -25.5t-67 25.5t-27 62.5q0 38 27 64t67 26z" />
    <glyph glyph-name="uni1EC7" unicode="&#x1ec7;" horiz-adv-x="550" 
d="M280 620l-45 -72h-133l95 149h168l97 -149h-136l-44 72h-2zM521 250q0 -17 -3 -47h-333q7 -41 39 -63t78 -22q68 2 114 53l90 -92q-71 -88 -220 -88q-112 0 -184 70.5t-72 183.5q0 111 70.5 182t181.5 71q104 0 171.5 -70t67.5 -178zM280 374q-36 0 -61.5 -20.5
t-32.5 -57.5h183q-8 36 -31 57t-58 21zM284 -58q40 0 66.5 -26t26.5 -64q0 -37 -26.5 -62.5t-66.5 -25.5t-67 25.5t-27 62.5q0 38 27 64t67 26z" />
    <glyph glyph-name="uni1EC8" unicode="&#x1ec8;" horiz-adv-x="308" 
d="M112 760q55 35 55 60q0 19 -29 19q-34 0 -69 -19l-28 65q22 19 62 33t84 14q50 0 78 -20t28 -58q0 -30 -25 -54.5t-65 -39.5h-91zM68 0v710h171v-710h-171z" />
    <glyph glyph-name="uni1EC9" unicode="&#x1ec9;" horiz-adv-x="274" 
d="M95 550q56 44 55 75q0 23 -29 23q-33 0 -68 -23l-28 65q22 22 61.5 38.5t83.5 16.5q50 0 78 -22t28 -64q0 -33 -25.5 -62.5t-64.5 -46.5h-91zM59 0v489h156v-489h-156z" />
    <glyph glyph-name="uni1ECA" unicode="&#x1eca;" horiz-adv-x="308" 
d="M68 0v710h171v-710h-171zM155 -58q40 0 66.5 -26t26.5 -64q0 -37 -26.5 -62.5t-66.5 -25.5t-67 25.5t-27 62.5q0 38 27 64t67 26z" />
    <glyph glyph-name="uni1ECB" unicode="&#x1ecb;" horiz-adv-x="274" 
d="M137 550q-40 0 -66.5 26t-26.5 64q0 37 26.5 62.5t66.5 25.5t67 -25.5t27 -62.5q0 -38 -27 -64t-67 -26zM59 0v489h156v-489h-156zM137 -58q40 0 66.5 -26t26.5 -64q0 -37 -26.5 -62.5t-66.5 -25.5t-67 25.5t-27 62.5q0 38 27 64t67 26z" />
    <glyph glyph-name="uni1ECC" unicode="&#x1ecc;" horiz-adv-x="808" 
d="M404 -9q-162 0 -264 101.5t-102 262.5t102 263t264 102q160 0 262.5 -101.5t102.5 -263.5t-102.5 -263t-262.5 -101zM404 146q82 0 136 60t54 149t-54 149t-136 60q-83 0 -137 -60.5t-54 -148.5t54 -148.5t137 -60.5zM404 -58q40 0 66.5 -26t26.5 -64q0 -37 -26.5 -62.5
t-66.5 -25.5t-67 25.5t-27 62.5q0 38 27 64t67 26z" />
    <glyph glyph-name="uni1ECD" unicode="&#x1ecd;" horiz-adv-x="589" 
d="M295 -9q-118 0 -191.5 70.5t-73.5 182.5t73.5 183t191.5 71q116 0 190 -70.5t74 -183.5q0 -112 -74 -182.5t-190 -70.5zM295 129q45 0 75.5 32.5t30.5 82.5q0 51 -30 83t-76 32q-47 0 -77 -32.5t-30 -82.5q0 -49 30.5 -82t76.5 -33zM295 -58q40 0 66.5 -26t26.5 -64
q0 -37 -26.5 -62.5t-66.5 -25.5t-67 25.5t-27 62.5q0 38 27 64t67 26z" />
    <glyph glyph-name="uni1ECE" unicode="&#x1ece;" horiz-adv-x="808" 
d="M363 761q55 35 55 60q0 19 -29 19q-34 0 -69 -19l-28 65q22 19 62 33t84 14q50 0 78 -20t28 -58q0 -30 -25 -54.5t-65 -39.5h-91zM404 -9q-162 0 -264 101.5t-102 262.5t102 263t264 102q160 0 262.5 -101.5t102.5 -263.5t-102.5 -263t-262.5 -101zM404 146q82 0 136 60
t54 149t-54 149t-136 60q-83 0 -137 -60.5t-54 -148.5t54 -148.5t137 -60.5z" />
    <glyph glyph-name="uni1ECF" unicode="&#x1ecf;" horiz-adv-x="589" 
d="M253 550q56 44 55 75q0 23 -29 23q-33 0 -68 -23l-28 65q22 22 61.5 38.5t83.5 16.5q50 0 78 -22t28 -64q0 -33 -25.5 -62.5t-64.5 -46.5h-91zM295 -9q-118 0 -191.5 70.5t-73.5 182.5t73.5 183t191.5 71q116 0 190 -70.5t74 -183.5q0 -112 -74 -182.5t-190 -70.5z
M295 129q45 0 75.5 32.5t30.5 82.5q0 51 -30 83t-76 32q-47 0 -77 -32.5t-30 -82.5q0 -49 30.5 -82t76.5 -33z" />
    <glyph glyph-name="uni1ED0" unicode="&#x1ed0;" horiz-adv-x="808" 
d="M567 822l81 146l150 1l-117 -147h-114zM224 761l95 140h168l98 -140h-136l-45 65h-2l-45 -65h-133zM404 -9q-162 0 -264 101.5t-102 262.5t102 263t264 102q160 0 262.5 -101.5t102.5 -263.5t-102.5 -263t-262.5 -101zM404 146q82 0 136 60t54 149t-54 149t-136 60
q-83 0 -137 -60.5t-54 -148.5t54 -148.5t137 -60.5z" />
    <glyph glyph-name="uni1ED1" unicode="&#x1ed1;" horiz-adv-x="589" 
d="M436 652l75 150l149 1l-117 -151h-107zM114 548l95 149h168l97 -149h-136l-44 72h-2l-45 -72h-133zM295 -9q-118 0 -191.5 70.5t-73.5 182.5t73.5 183t191.5 71q116 0 190 -70.5t74 -183.5q0 -112 -74 -182.5t-190 -70.5zM295 129q45 0 75.5 32.5t30.5 82.5q0 51 -30 83
t-76 32q-47 0 -77 -32.5t-30 -82.5q0 -49 30.5 -82t76.5 -33z" />
    <glyph glyph-name="uni1ED2" unicode="&#x1ed2;" horiz-adv-x="808" 
d="M606 822l-116 147l149 -1l81 -146h-114zM224 761l95 140h168l98 -140h-136l-45 65h-2l-45 -65h-133zM404 -9q-162 0 -264 101.5t-102 262.5t102 263t264 102q160 0 262.5 -101.5t102.5 -263.5t-102.5 -263t-262.5 -101zM404 146q82 0 136 60t54 149t-54 149t-136 60
q-83 0 -137 -60.5t-54 -148.5t54 -148.5t137 -60.5z" />
    <glyph glyph-name="uni1ED3" unicode="&#x1ed3;" horiz-adv-x="589" 
d="M468 652l-117 151l150 -1l74 -150h-107zM115 548l95 149h168l97 -149h-136l-44 72h-2l-45 -72h-133zM295 -9q-118 0 -191.5 70.5t-73.5 182.5t73.5 183t191.5 71q116 0 190 -70.5t74 -183.5q0 -112 -74 -182.5t-190 -70.5zM295 129q45 0 75.5 32.5t30.5 82.5q0 51 -30 83
t-76 32q-47 0 -77 -32.5t-30 -82.5q0 -49 30.5 -82t76.5 -33z" />
    <glyph glyph-name="uni1ED4" unicode="&#x1ed4;" horiz-adv-x="808" 
d="M571 837q50 32 50 54q0 17 -26 17q-31 0 -62 -17l-26 58q50 42 132 42q45 0 70 -18t25 -52q0 -53 -81 -84h-82zM224 761l95 140h168l98 -140h-136l-45 65h-2l-45 -65h-133zM404 -9q-162 0 -264 101.5t-102 262.5t102 263t264 102q160 0 262.5 -101.5t102.5 -263.5
t-102.5 -263t-262.5 -101zM404 146q82 0 136 60t54 149t-54 149t-136 60q-83 0 -137 -60.5t-54 -148.5t54 -148.5t137 -60.5z" />
    <glyph glyph-name="uni1ED5" unicode="&#x1ed5;" horiz-adv-x="589" 
d="M448 645q51 40 50 69q0 21 -27 21q-31 0 -62 -21l-26 59q21 21 57 36t76 15q46 0 71.5 -20t25.5 -59q0 -30 -23 -57t-59 -43h-83zM115 548l95 149h168l97 -149h-136l-44 72h-2l-45 -72h-133zM295 -9q-118 0 -191.5 70.5t-73.5 182.5t73.5 183t191.5 71q116 0 190 -70.5
t74 -183.5q0 -112 -74 -182.5t-190 -70.5zM295 129q45 0 75.5 32.5t30.5 82.5q0 51 -30 83t-76 32q-47 0 -77 -32.5t-30 -82.5q0 -49 30.5 -82t76.5 -33z" />
    <glyph glyph-name="uni1ED6" unicode="&#x1ed6;" horiz-adv-x="808" 
d="M482 922q-32 0 -80 25q-38 19 -51 19q-31 0 -51 -43l-84 33q16 47 46.5 77t72.5 30q44 0 84 -26q28 -16 47 -16q31 0 50 42l84 -27q-17 -51 -47 -82.5t-71 -31.5zM224 761l95 140h168l98 -140h-136l-45 65h-2l-45 -65h-133zM404 -9q-162 0 -264 101.5t-102 262.5t102 263
t264 102q160 0 262.5 -101.5t102.5 -263.5t-102.5 -263t-262.5 -101zM404 146q82 0 136 60t54 149t-54 149t-136 60q-83 0 -137 -60.5t-54 -148.5t54 -148.5t137 -60.5z" />
    <glyph glyph-name="uni1ED7" unicode="&#x1ed7;" horiz-adv-x="589" 
d="M194 725l-91 36q42 110 124 110q31 0 79 -25q32 -18 44 -18q28 0 51 45l89 -28q-17 -50 -48.5 -84t-74.5 -34q-32 0 -73 24q-35 20 -52 19q-28 0 -48 -45zM115 548l95 149h168l97 -149h-136l-44 72h-2l-45 -72h-133zM295 -9q-118 0 -191.5 70.5t-73.5 182.5t73.5 183
t191.5 71q116 0 190 -70.5t74 -183.5q0 -112 -74 -182.5t-190 -70.5zM295 129q45 0 75.5 32.5t30.5 82.5q0 51 -30 83t-76 32q-47 0 -77 -32.5t-30 -82.5q0 -49 30.5 -82t76.5 -33z" />
    <glyph glyph-name="uni1ED8" unicode="&#x1ed8;" horiz-adv-x="808" 
d="M224 761l95 140h168l98 -140h-136l-45 65h-2l-45 -65h-133zM404 -9q-162 0 -264 101.5t-102 262.5t102 263t264 102q160 0 262.5 -101.5t102.5 -263.5t-102.5 -263t-262.5 -101zM404 146q82 0 136 60t54 149t-54 149t-136 60q-83 0 -137 -60.5t-54 -148.5t54 -148.5
t137 -60.5zM404 -58q40 0 66.5 -26t26.5 -64q0 -37 -26.5 -62.5t-66.5 -25.5t-67 25.5t-27 62.5q0 38 27 64t67 26z" />
    <glyph glyph-name="uni1ED9" unicode="&#x1ed9;" horiz-adv-x="589" 
d="M115 548l95 149h168l97 -149h-136l-44 72h-2l-45 -72h-133zM295 -9q-118 0 -191.5 70.5t-73.5 182.5t73.5 183t191.5 71q116 0 190 -70.5t74 -183.5q0 -112 -74 -182.5t-190 -70.5zM295 129q45 0 75.5 32.5t30.5 82.5q0 51 -30 83t-76 32q-47 0 -77 -32.5t-30 -82.5
q0 -49 30.5 -82t76.5 -33zM295 -58q40 0 66.5 -26t26.5 -64q0 -37 -26.5 -62.5t-66.5 -25.5t-67 25.5t-27 62.5q0 38 27 64t67 26z" />
    <glyph glyph-name="uni1EDA" unicode="&#x1eda;" horiz-adv-x="841" 
d="M590 901l-126 -140h-141l108 140h159zM716 774h134v-76q0 -140 -118 -172q37 -77 37 -171q0 -162 -102.5 -263t-262.5 -101q-162 0 -264 101.5t-102 262.5t102 263t264 102q178 0 281 -121q19 12 25 34t6 62v79zM404 146q82 0 136 60t54 149t-54 149t-136 60
q-83 0 -137 -60.5t-54 -148.5t54 -148.5t137 -60.5z" />
    <glyph glyph-name="uni1EDB" unicode="&#x1edb;" horiz-adv-x="694" 
d="M492 699l-124 -150h-145l111 149zM541 565h134v-76q0 -144 -125 -174q9 -33 9 -71q0 -112 -74 -182.5t-190 -70.5q-118 0 -191.5 70.5t-73.5 182.5t73.5 183t191.5 71q71 0 128 -27.5t92 -77.5q26 19 26 93v79zM295 129q45 0 75.5 32.5t30.5 82.5q0 51 -30 83t-76 32
q-47 0 -77 -32.5t-30 -82.5q0 -49 30.5 -82t76.5 -33z" />
    <glyph glyph-name="uni1EDC" unicode="&#x1edc;" horiz-adv-x="841" 
d="M493 761h-142l-126 140h160zM716 774h134v-76q0 -140 -118 -172q37 -77 37 -171q0 -162 -102.5 -263t-262.5 -101q-162 0 -264 101.5t-102 262.5t102 263t264 102q178 0 281 -121q19 12 25 34t6 62v79zM404 146q82 0 136 60t54 149t-54 149t-136 60q-83 0 -137 -60.5
t-54 -148.5t54 -148.5t137 -60.5z" />
    <glyph glyph-name="uni1EDD" unicode="&#x1edd;" horiz-adv-x="694" 
d="M383 548h-142l-123 149l159 -1zM541 565h134v-76q0 -144 -125 -174q9 -33 9 -71q0 -112 -74 -182.5t-190 -70.5q-118 0 -191.5 70.5t-73.5 182.5t73.5 183t191.5 71q71 0 128 -27.5t92 -77.5q26 19 26 93v79zM295 129q45 0 75.5 32.5t30.5 82.5q0 51 -30 83t-76 32
q-47 0 -77 -32.5t-30 -82.5q0 -49 30.5 -82t76.5 -33z" />
    <glyph glyph-name="uni1EDE" unicode="&#x1ede;" horiz-adv-x="841" 
d="M389 840q-34 0 -69 -19l-28 65q22 19 62 33t84 14q50 0 78 -20t28 -58q0 -30 -25 -54.5t-65 -39.5h-91q55 35 55 60q0 19 -29 19zM716 774h134v-76q0 -140 -118 -172q37 -77 37 -171q0 -162 -102.5 -263t-262.5 -101q-162 0 -264 101.5t-102 262.5t102 263t264 102
q178 0 281 -121q19 12 25 34t6 62v79zM404 146q82 0 136 60t54 149t-54 149t-136 60q-83 0 -137 -60.5t-54 -148.5t54 -148.5t137 -60.5z" />
    <glyph glyph-name="uni1EDF" unicode="&#x1edf;" horiz-adv-x="694" 
d="M279 648q-33 0 -68 -23l-28 65q22 22 61.5 38.5t83.5 16.5q50 0 78 -22t28 -64q0 -33 -25.5 -62.5t-64.5 -46.5h-91q56 44 55 75q0 23 -29 23zM541 565h134v-76q0 -144 -125 -174q9 -33 9 -71q0 -112 -74 -182.5t-190 -70.5q-118 0 -191.5 70.5t-73.5 182.5t73.5 183
t191.5 71q71 0 128 -27.5t92 -77.5q26 19 26 93v79zM295 129q45 0 75.5 32.5t30.5 82.5q0 51 -30 83t-76 32q-47 0 -77 -32.5t-30 -82.5q0 -49 30.5 -82t76.5 -33z" />
    <glyph glyph-name="uni1EE0" unicode="&#x1ee0;" horiz-adv-x="841" 
d="M349 808q-33 0 -54 -46l-90 35q17 50 49.5 82.5t77.5 32.5q50 0 90 -27q31 -18 51 -18q32 0 53 46l90 -29q-18 -55 -50 -89t-76 -34q-34 0 -86 27q-38 20 -55 20zM716 774h134v-76q0 -140 -118 -172q37 -77 37 -171q0 -162 -102.5 -263t-262.5 -101q-162 0 -264 101.5
t-102 262.5t102 263t264 102q178 0 281 -121q19 12 25 34t6 62v79zM404 146q82 0 136 60t54 149t-54 149t-136 60q-83 0 -137 -60.5t-54 -148.5t54 -148.5t137 -60.5z" />
    <glyph glyph-name="uni1EE1" unicode="&#x1ee1;" horiz-adv-x="694" 
d="M240 596q-33 0 -55 -48l-90 38q17 55 50 89t78 34q43 0 88 -26q30 -19 50 -19q34 0 55 46l90 -29q-17 -59 -49.5 -95.5t-75.5 -36.5q-40 0 -88 27q-36 20 -53 20zM541 565h134v-76q0 -144 -125 -174q9 -33 9 -71q0 -112 -74 -182.5t-190 -70.5q-118 0 -191.5 70.5
t-73.5 182.5t73.5 183t191.5 71q71 0 128 -27.5t92 -77.5q26 19 26 93v79zM295 129q45 0 75.5 32.5t30.5 82.5q0 51 -30 83t-76 32q-47 0 -77 -32.5t-30 -82.5q0 -49 30.5 -82t76.5 -33z" />
    <glyph glyph-name="uni1EE2" unicode="&#x1ee2;" horiz-adv-x="841" 
d="M716 774h134v-76q0 -140 -118 -172q37 -77 37 -171q0 -162 -102.5 -263t-262.5 -101q-162 0 -264 101.5t-102 262.5t102 263t264 102q178 0 281 -121q19 12 25 34t6 62v79zM404 146q82 0 136 60t54 149t-54 149t-136 60q-83 0 -137 -60.5t-54 -148.5t54 -148.5t137 -60.5
zM404 -58q40 0 66.5 -26t26.5 -64q0 -37 -26.5 -62.5t-66.5 -25.5t-67 25.5t-27 62.5q0 38 27 64t67 26z" />
    <glyph glyph-name="uni1EE3" unicode="&#x1ee3;" horiz-adv-x="694" 
d="M541 565h134v-76q0 -144 -125 -174q9 -33 9 -71q0 -112 -74 -182.5t-190 -70.5q-118 0 -191.5 70.5t-73.5 182.5t73.5 183t191.5 71q71 0 128 -27.5t92 -77.5q26 19 26 93v79zM295 129q45 0 75.5 32.5t30.5 82.5q0 51 -30 83t-76 32q-47 0 -77 -32.5t-30 -82.5
q0 -49 30.5 -82t76.5 -33zM295 -58q40 0 66.5 -26t26.5 -64q0 -37 -26.5 -62.5t-66.5 -25.5t-67 25.5t-27 62.5q0 38 27 64t67 26z" />
    <glyph glyph-name="uni1EE4" unicode="&#x1ee4;" horiz-adv-x="700" 
d="M349 -9q-134 0 -213.5 80t-79.5 225v414h168v-404q0 -69 32.5 -114t92.5 -45q57 0 92.5 42.5t35.5 116.5v404h167v-414q0 -141 -77.5 -223t-217.5 -82zM349 -58q40 0 66.5 -26t26.5 -64q0 -37 -26.5 -62.5t-66.5 -25.5t-67 25.5t-27 62.5q0 38 27 64t67 26z" />
    <glyph glyph-name="uni1EE5" unicode="&#x1ee5;" horiz-adv-x="570" 
d="M222 -9q-176 0 -176 208v290h156v-251q0 -59 17.5 -84t57.5 -25q37 0 61.5 30.5t24.5 87.5v242h157v-489h-157v55l-2 1q-53 -65 -139 -65zM291 -58q40 0 66.5 -26t26.5 -64q0 -37 -26.5 -62.5t-66.5 -25.5t-67 25.5t-27 62.5q0 38 27 64t67 26z" />
    <glyph glyph-name="uni1EE6" unicode="&#x1ee6;" horiz-adv-x="700" 
d="M308 761q55 35 55 60q0 19 -29 19q-34 0 -69 -19l-28 65q22 19 62 33t84 14q50 0 78 -20t28 -58q0 -30 -25 -54.5t-65 -39.5h-91zM349 -9q-134 0 -213.5 80t-79.5 225v414h168v-404q0 -69 32.5 -114t92.5 -45q57 0 92.5 42.5t35.5 116.5v404h167v-414q0 -141 -77.5 -223
t-217.5 -82z" />
    <glyph glyph-name="uni1EE7" unicode="&#x1ee7;" horiz-adv-x="570" 
d="M244 550q56 44 55 75q0 23 -29 23q-33 0 -68 -23l-28 65q22 22 61.5 38.5t83.5 16.5q50 0 78 -22t28 -64q0 -33 -25.5 -62.5t-64.5 -46.5h-91zM222 -9q-176 0 -176 208v290h156v-251q0 -59 17.5 -84t57.5 -25q37 0 61.5 30.5t24.5 87.5v242h157v-489h-157v55l-2 1
q-53 -65 -139 -65z" />
    <glyph glyph-name="uni1EE8" unicode="&#x1ee8;" horiz-adv-x="825" 
d="M533 901l-126 -140h-141l108 140h159zM707 774h134v-76q0 -92 -52.5 -137.5t-144.5 -43.5v-221q0 -141 -77.5 -223t-217.5 -82q-134 0 -213.5 80t-79.5 225v414h168v-404q0 -69 32.5 -114t92.5 -45q57 0 92.5 42.5t35.5 116.5v404h167v-122q40 6 51.5 30.5t11.5 76.5v79z
" />
    <glyph glyph-name="uni1EE9" unicode="&#x1ee9;" horiz-adv-x="714" 
d="M477 699l-124 -150h-145l111 149zM572 565h134v-76q0 -90 -49 -135t-137 -46v-308h-157v55l-2 1q-53 -65 -139 -65q-176 0 -176 208v290h156v-251q0 -59 17.5 -84t57.5 -25q37 0 61.5 30.5t24.5 87.5v242h157v-108q33 8 42.5 32t9.5 73v79z" />
    <glyph glyph-name="uni1EEA" unicode="&#x1eea;" horiz-adv-x="825" 
d="M427 761h-142l-126 140h160zM707 774h134v-76q0 -92 -52.5 -137.5t-144.5 -43.5v-221q0 -141 -77.5 -223t-217.5 -82q-134 0 -213.5 80t-79.5 225v414h168v-404q0 -69 32.5 -114t92.5 -45q57 0 92.5 42.5t35.5 116.5v404h167v-122q40 6 51.5 30.5t11.5 76.5v79z" />
    <glyph glyph-name="uni1EEB" unicode="&#x1eeb;" horiz-adv-x="714" 
d="M374 548h-142l-123 149l159 -1zM572 565h134v-76q0 -90 -49 -135t-137 -46v-308h-157v55l-2 1q-53 -65 -139 -65q-176 0 -176 208v290h156v-251q0 -59 17.5 -84t57.5 -25q37 0 61.5 30.5t24.5 87.5v242h157v-108q33 8 42.5 32t9.5 73v79z" />
    <glyph glyph-name="uni1EEC" unicode="&#x1eec;" horiz-adv-x="825" 
d="M334 840q-34 0 -69 -19l-28 65q22 19 62 33t84 14q50 0 78 -20t28 -58q0 -30 -25 -54.5t-65 -39.5h-91q55 35 55 60q0 19 -29 19zM707 774h134v-76q0 -92 -52.5 -137.5t-144.5 -43.5v-221q0 -141 -77.5 -223t-217.5 -82q-134 0 -213.5 80t-79.5 225v414h168v-404
q0 -69 32.5 -114t92.5 -45q57 0 92.5 42.5t35.5 116.5v404h167v-122q40 6 51.5 30.5t11.5 76.5v79z" />
    <glyph glyph-name="uni1EED" unicode="&#x1eed;" horiz-adv-x="714" 
d="M270 648q-33 0 -68 -23l-28 65q22 22 61.5 38.5t83.5 16.5q50 0 78 -22t28 -64q0 -33 -25.5 -62.5t-64.5 -46.5h-91q56 44 55 75q0 23 -29 23zM572 565h134v-76q0 -90 -49 -135t-137 -46v-308h-157v55l-2 1q-53 -65 -139 -65q-176 0 -176 208v290h156v-251
q0 -59 17.5 -84t57.5 -25q37 0 61.5 30.5t24.5 87.5v242h157v-108q33 8 42.5 32t9.5 73v79z" />
    <glyph glyph-name="uni1EEE" unicode="&#x1eee;" horiz-adv-x="825" 
d="M294 808q-33 0 -54 -46l-90 35q17 50 49.5 82.5t77.5 32.5q49 0 90 -27q31 -18 51 -18q32 0 53 46l90 -29q-18 -55 -50 -89t-76 -34q-34 0 -86 27q-38 20 -55 20zM707 774h134v-76q0 -92 -52.5 -137.5t-144.5 -43.5v-221q0 -141 -77.5 -223t-217.5 -82q-134 0 -213.5 80
t-79.5 225v414h168v-404q0 -69 32.5 -114t92.5 -45q57 0 92.5 42.5t35.5 116.5v404h167v-122q40 6 51.5 30.5t11.5 76.5v79z" />
    <glyph glyph-name="uni1EEF" unicode="&#x1eef;" horiz-adv-x="714" 
d="M231 596q-33 0 -55 -48l-90 38q17 55 50 89t78 34q42 0 88 -26q30 -19 50 -19q34 0 55 46l90 -29q-17 -59 -49.5 -95.5t-75.5 -36.5q-40 0 -88 27q-36 20 -53 20zM572 565h134v-76q0 -90 -49 -135t-137 -46v-308h-157v55l-2 1q-53 -65 -139 -65q-176 0 -176 208v290h156
v-251q0 -59 17.5 -84t57.5 -25q37 0 61.5 30.5t24.5 87.5v242h157v-108q33 8 42.5 32t9.5 73v79z" />
    <glyph glyph-name="uni1EF0" unicode="&#x1ef0;" horiz-adv-x="825" 
d="M707 774h134v-76q0 -92 -52.5 -137.5t-144.5 -43.5v-221q0 -141 -77.5 -223t-217.5 -82q-134 0 -213.5 80t-79.5 225v414h168v-404q0 -69 32.5 -114t92.5 -45q57 0 92.5 42.5t35.5 116.5v404h167v-122q40 6 51.5 30.5t11.5 76.5v79zM349 -58q40 0 66.5 -26t26.5 -64
q0 -37 -26.5 -62.5t-66.5 -25.5t-67 25.5t-27 62.5q0 38 27 64t67 26z" />
    <glyph glyph-name="uni1EF1" unicode="&#x1ef1;" horiz-adv-x="714" 
d="M572 565h134v-76q0 -90 -49 -135t-137 -46v-308h-157v55l-2 1q-53 -65 -139 -65q-176 0 -176 208v290h156v-251q0 -59 17.5 -84t57.5 -25q37 0 61.5 30.5t24.5 87.5v242h157v-108q33 8 42.5 32t9.5 73v79zM291 -58q40 0 66.5 -26t26.5 -64q0 -37 -26.5 -62.5t-66.5 -25.5
t-67 25.5t-27 62.5q0 38 27 64t67 26z" />
    <glyph glyph-name="Ygrave" unicode="&#x1ef2;" horiz-adv-x="636" 
d="M266 761l-126 140h160l108 -140h-142zM232 0v309l-231 401h191l125 -236h2l123 236h193l-233 -401v-309h-170z" />
    <glyph glyph-name="ygrave" unicode="&#x1ef3;" horiz-adv-x="536" 
d="M215 548l-123 149l159 -1l106 -148h-142zM116 -198l84 231l-191 456h167l98 -263h3l94 263h156l-257 -687h-154z" />
    <glyph glyph-name="uni1EF4" unicode="&#x1ef4;" horiz-adv-x="636" 
d="M232 0v309l-231 401h191l125 -236h2l123 236h193l-233 -401v-309h-170zM317 -58q40 0 66.5 -26t26.5 -64q0 -37 -26.5 -62.5t-66.5 -25.5t-67 25.5t-27 62.5q0 38 27 64t67 26z" />
    <glyph glyph-name="uni1EF5" unicode="&#x1ef5;" horiz-adv-x="536" 
d="M116 -198l84 231l-191 456h167l98 -263h3l94 263h156l-257 -687h-154zM432 -58q40 0 66.5 -26t26.5 -64q0 -37 -26.5 -62.5t-66.5 -25.5t-67 25.5t-27 62.5q0 38 27 64t67 26z" />
    <glyph glyph-name="uni1EF6" unicode="&#x1ef6;" horiz-adv-x="636" 
d="M277 761q55 35 55 60q0 19 -29 19q-34 0 -69 -19l-28 65q22 19 62 33t84 14q50 0 78 -20t28 -58q0 -30 -25 -54.5t-65 -39.5h-91zM232 0v309l-231 401h191l125 -236h2l123 236h193l-233 -401v-309h-170z" />
    <glyph glyph-name="uni1EF7" unicode="&#x1ef7;" horiz-adv-x="536" 
d="M228 550q56 44 55 75q0 23 -29 23q-33 0 -68 -23l-28 65q22 22 61.5 38.5t83.5 16.5q50 0 78 -22t28 -64q0 -33 -25.5 -62.5t-64.5 -46.5h-91zM116 -198l84 231l-191 456h167l98 -263h3l94 263h156l-257 -687h-154z" />
    <glyph glyph-name="uni1EF8" unicode="&#x1ef8;" horiz-adv-x="636" 
d="M404 761q-34 0 -86 27q-38 20 -55 20q-33 0 -54 -46l-90 35q17 50 49.5 82.5t77.5 32.5q50 0 90 -27q31 -18 51 -18q32 0 53 46l90 -29q-18 -55 -50 -89t-76 -34zM232 0v309l-231 401h191l125 -236h2l123 236h193l-233 -401v-309h-170z" />
    <glyph glyph-name="uni1EF9" unicode="&#x1ef9;" horiz-adv-x="536" 
d="M356 549q-40 0 -88 27q-36 20 -53 20q-33 0 -55 -48l-90 38q17 55 50 89t78 34q42 0 88 -26q30 -19 50 -19q34 0 55 46l90 -29q-17 -59 -49.5 -95.5t-75.5 -36.5zM116 -198l84 231l-191 456h167l98 -263h3l94 263h156l-257 -687h-154z" />
    <glyph glyph-name="uni2002" unicode="&#x2002;" horiz-adv-x="467" 
 />
    <glyph glyph-name="uni2003" unicode="&#x2003;" horiz-adv-x="934" 
 />
    <glyph glyph-name="uni2007" unicode="&#x2007;" 
 />
    <glyph glyph-name="uni2009" unicode="&#x2009;" horiz-adv-x="19" 
 />
    <glyph glyph-name="uni2010" unicode="&#x2010;" horiz-adv-x="384" 
d="M39 238v142h306v-142h-306z" />
    <glyph glyph-name="figuredash" unicode="&#x2012;" 
d="M39 233v131h508v-131h-508z" />
    <glyph glyph-name="endash" unicode="&#x2013;" horiz-adv-x="545" 
d="M39 233v131h467v-131h-467z" />
    <glyph glyph-name="emdash" unicode="&#x2014;" horiz-adv-x="1012" 
d="M39 233v131h934v-131h-934z" />
    <glyph glyph-name="uni2015" unicode="&#x2015;" horiz-adv-x="1179" 
d="M39 233v131h1101v-131h-1101z" />
    <glyph glyph-name="quoteleft" unicode="&#x2018;" horiz-adv-x="234" 
d="M206 710l-30 -270h-154l68 270h116z" />
    <glyph glyph-name="quoteright" unicode="&#x2019;" horiz-adv-x="234" 
d="M28 440l30 270h154l-68 -270h-116z" />
    <glyph glyph-name="quotesinglbase" unicode="&#x201a;" horiz-adv-x="245" 
d="M18 -81l30 270h154l-72 -270h-112z" />
    <glyph glyph-name="quotedblleft" unicode="&#x201c;" horiz-adv-x="444" 
d="M207 710l-30 -270h-155l69 270h116zM416 710l-30 -270h-154l68 270h116z" />
    <glyph glyph-name="quotedblright" unicode="&#x201d;" horiz-adv-x="444" 
d="M28 440l30 270h154l-68 -270h-116zM237 440l30 270h155l-69 -270h-116z" />
    <glyph glyph-name="quotedblbase" unicode="&#x201e;" horiz-adv-x="456" 
d="M18 -80l30 270h154l-68 -270h-116zM227 -80l30 270h155l-69 -270h-116z" />
    <glyph glyph-name="dagger" unicode="&#x2020;" horiz-adv-x="376" 
d="M189 217l-43 71l5 124l-1 107h-18l-92 -6v84l92 -5h17l-3 95h85l-5 -95h19l92 7v-86l-92 6h-20v-107l6 -124z" />
    <glyph glyph-name="daggerdbl" unicode="&#x2021;" horiz-adv-x="376" 
d="M146 52l5 93h-19l-92 -6v84l91 -4h20v45l-5 104l5 104v47h-19l-92 -5v82l91 -5h19l-5 96h85l-5 -96h19l93 6v-83l-93 5h-19v-47l5 -104l-6 -104l1 -45h19l93 4v-83l-93 5h-19l5 -93h-84z" />
    <glyph glyph-name="bullet" unicode="&#x2022;" horiz-adv-x="417" 
d="M208 192q-51 0 -88 36.5t-37 87.5q0 52 37 88.5t88 36.5q52 0 89 -36.5t37 -88.5t-36.5 -88t-89.5 -36z" />
    <glyph glyph-name="ellipsis" unicode="&#x2026;" horiz-adv-x="1000" 
d="M162 -9q-38 0 -64 25.5t-26 62.5t26.5 63t63.5 26t63.5 -26t26.5 -63t-26.5 -62.5t-63.5 -25.5zM496 -9q-38 0 -64 25.5t-26 62.5t26.5 63t63.5 26t63.5 -26t26.5 -63t-26.5 -62.5t-63.5 -25.5zM830 -9q-38 0 -64 25.5t-26 62.5t26.5 63t63.5 26t63.5 -26t26.5 -63
t-26.5 -62.5t-63.5 -25.5z" />
    <glyph glyph-name="perthousand" unicode="&#x2030;" horiz-adv-x="1461" 
d="M404 -26l-112 48l317 705l111 -48zM230 319q-85 0 -143.5 56t-58.5 145q0 84 56.5 142t145.5 58q86 0 144.5 -56t58.5 -144q0 -84 -56.5 -142.5t-146.5 -58.5zM231 423q38 0 62 27.5t24 67.5q0 43 -24.5 69.5t-61.5 26.5q-38 0 -62 -27.5t-24 -68.5t25 -68t61 -27z
M780 -9q-85 0 -143.5 56t-58.5 144q0 84 56.5 142t145.5 58q86 0 144.5 -56t58.5 -144q0 -84 -56.5 -142t-146.5 -58zM1230 -9q-85 0 -144 56t-59 144q0 84 56.5 142t146.5 58q85 0 144 -56t59 -144q0 -84 -57 -142t-146 -58zM781 95q38 0 62 27.5t24 67.5q0 41 -24.5 67.5
t-61.5 26.5q-38 0 -62 -27t-24 -67q0 -41 25 -68t61 -27zM1231 95q38 0 62.5 27.5t24.5 67.5q0 41 -25.5 67.5t-61.5 26.5q-38 0 -62 -27t-24 -67q0 -41 25 -68t61 -27z" />
    <glyph glyph-name="minute" unicode="&#x2032;" horiz-adv-x="281" 
d="M28 440l77 270h154l-115 -270h-116z" />
    <glyph glyph-name="second" unicode="&#x2033;" horiz-adv-x="490" 
d="M28 440l77 270h154l-115 -270h-116zM238 440l77 270h154l-115 -270h-116z" />
    <glyph glyph-name="guilsinglleft" unicode="&#x2039;" horiz-adv-x="304" 
d="M290 452l-117 -201l118 -205h-146l-116 205l114 201h147z" />
    <glyph glyph-name="guilsinglright" unicode="&#x203a;" horiz-adv-x="304" 
d="M14 46l117 201l-118 205h146l116 -205l-114 -201h-147z" />
    <glyph glyph-name="uni203D" unicode="&#x203d;" horiz-adv-x="467" 
d="M219 746q97 0 157.5 -51.5t60.5 -140.5q0 -57 -23.5 -97.5t-65.5 -79.5q-4 -3 -16.5 -14t-16 -15t-13 -13t-13 -14t-9 -12.5t-7.5 -14t-3 -13.5l-4 -40h-129l-26 296h140v-73l2 -1q36 39 36 83q0 68 -76 68q-64 0 -112 -46l-96 86q35 42 92.5 67t121.5 25zM199 168
q37 0 63.5 -26t26.5 -63t-26.5 -62.5t-63.5 -25.5q-38 0 -64 25.5t-26 62.5t26.5 63t63.5 26z" />
    <glyph glyph-name="uni2042" unicode="&#x2042;" horiz-adv-x="821" 
d="M361 379l5 95l-80 -50l-46 78l84 42l-84 44l46 79l80 -51l-5 94h90l-5 -94l80 49l46 -77l-84 -43l84 -43l-46 -79l-78 51l3 -95h-90zM150 44l5 95l-80 -50l-46 78l84 42l-84 44l46 79l80 -51l-5 94h90l-5 -94l80 49l46 -77l-84 -43l84 -43l-46 -79l-78 51l3 -95h-90z
M581 44l5 95l-80 -50l-46 78l84 42l-84 44l46 79l80 -51l-5 94h90l-5 -94l80 49l46 -77l-84 -43l84 -43l-46 -79l-78 51l3 -95h-90z" />
    <glyph glyph-name="fraction" unicode="&#x2044;" horiz-adv-x="236" 
d="M31 -26l-112 48l316 705l112 -48z" />
    <glyph glyph-name="uni2051" unicode="&#x2051;" horiz-adv-x="390" 
d="M150 379l5 95l-80 -50l-46 78l84 42l-84 44l46 79l80 -51l-5 94h90l-5 -94l80 49l46 -77l-84 -43l84 -43l-46 -79l-78 51l3 -95h-90zM150 10l5 96l-80 -51l-46 78l84 42l-84 45l46 78l80 -51l-5 95h90l-5 -95l80 50l46 -77l-84 -44l84 -43l-46 -78l-78 51l3 -96h-90z" />
    <glyph glyph-name="uni2070" unicode="&#x2070;" horiz-adv-x="403" 
d="M201 426q-85 0 -133.5 59t-48.5 157q0 102 50.5 158.5t131.5 56.5q86 0 134.5 -59t48.5 -156q0 -103 -50.5 -159.5t-132.5 -56.5zM201 532q30 0 48 28t18 81q0 52 -17.5 80.5t-48.5 28.5q-30 0 -47.5 -28t-17.5 -81q0 -51 17.5 -80t47.5 -29z" />
    <glyph glyph-name="uni2074" unicode="&#x2074;" horiz-adv-x="344" 
d="M164 436v61h-159v68l184 283h90v-253h53v-98h-53v-61h-115zM107 587h67v106z" />
    <glyph glyph-name="uni2075" unicode="&#x2075;" horiz-adv-x="332" 
d="M189 703q52 0 89 -37t37 -93q0 -65 -44.5 -105t-112.5 -40q-95 0 -153 62l85 69q24 -27 57 -27q20 0 35 12t15 31q0 44 -48 44q-28 0 -50 -23l-62 25l15 227h239v-104h-144l-3 -48q30 7 45 7z" />
    <glyph glyph-name="uni2076" unicode="&#x2076;" horiz-adv-x="348" 
d="M204 701q50 0 87.5 -35t37.5 -95q0 -63 -45.5 -102.5t-110.5 -39.5t-111.5 49t-46.5 125q0 91 61.5 165.5t173.5 95.5l31 -92q-107 -30 -137 -82l2 -1q29 12 58 12zM174 529q20 0 34 12.5t14 32.5q0 18 -13 30t-35 12q-29 0 -50 -22v-2q0 -31 14 -47t36 -16z" />
    <glyph glyph-name="uni2077" unicode="&#x2077;" horiz-adv-x="296" 
d="M16 847h267v-76l-126 -347l-116 21l115 297h-140v105z" />
    <glyph glyph-name="uni2078" unicode="&#x2078;" horiz-adv-x="355" 
d="M177 428q-69 0 -114.5 33t-45.5 90q0 39 20.5 67t51.5 41v2q-20 9 -33.5 32t-13.5 51q0 54 38 82.5t97 28.5q58 0 96.5 -28.5t38.5 -82.5q0 -27 -14 -50t-33 -33v-2q31 -13 51.5 -41t20.5 -67q0 -56 -46 -89.5t-114 -33.5zM176 700q16 0 25.5 9.5t9.5 23.5t-9.5 23.5
t-25.5 9.5q-14 0 -24 -9.5t-10 -23.5t9.5 -23.5t24.5 -9.5zM177 524q20 0 32.5 11.5t12.5 29.5q0 17 -12.5 30t-32.5 13q-19 -1 -31.5 -13.5t-12.5 -29.5q0 -18 12.5 -29.5t31.5 -11.5z" />
    <glyph glyph-name="uni2079" unicode="&#x2079;" horiz-adv-x="346" 
d="M173 855q65 0 111.5 -49t46.5 -125q0 -93 -60 -168t-171 -93l-31 91q106 26 135 84l-1 2q-31 -14 -62 -14q-50 0 -87 34.5t-37 94.5q0 63 45.5 103t110.5 40zM123 710q0 -18 13.5 -30t34.5 -12q29 0 50 21v3q0 30 -14 46.5t-35 16.5t-35 -12.5t-14 -32.5z" />
    <glyph glyph-name="uni207A" unicode="&#x207a;" horiz-adv-x="342" 
d="M310 682v-95h-89v-90h-100v90h-89v95h89v91h100v-91h89z" />
    <glyph glyph-name="uni207B" unicode="&#x207b;" horiz-adv-x="350" 
d="M36 583v104h278v-104h-278z" />
    <glyph glyph-name="uni207C" unicode="&#x207c;" horiz-adv-x="366" 
d="M44 657v91h277v-91h-277zM44 495v92h277v-92h-277z" />
    <glyph glyph-name="uni207D" unicode="&#x207d;" horiz-adv-x="236" 
d="M124 367q-74 130 -74 273q0 159 80 273l88 -36q-21 -32 -40.5 -101t-19.5 -136q0 -138 60 -240z" />
    <glyph glyph-name="uni207E" unicode="&#x207e;" horiz-adv-x="236" 
d="M112 367l-94 33q60 102 60 240q0 67 -19.5 136t-40.5 101l88 36q80 -114 80 -273q0 -143 -74 -273z" />
    <glyph glyph-name="uni207F" unicode="&#x207f;" horiz-adv-x="349" 
d="M19 -66v295h111v-31h2q37 37 88 37q109 0 109 -129v-172h-111v145q0 29 -10 42t-32 13q-46 0 -46 -52v-148h-111z" />
    <glyph glyph-name="uni2080" unicode="&#x2080;" horiz-adv-x="403" 
d="M201 -76q-85 0 -133.5 59t-48.5 157q0 102 50.5 158.5t131.5 56.5q86 0 134.5 -59t48.5 -156q0 -103 -50.5 -159.5t-132.5 -56.5zM201 30q30 0 48 28t18 81q0 52 -17.5 80.5t-48.5 28.5q-30 0 -47.5 -28t-17.5 -81q0 -51 17.5 -80t47.5 -29z" />
    <glyph glyph-name="uni2081" unicode="&#x2081;" horiz-adv-x="281" 
d="M119 -66v269l-56 -39l-57 88l140 94h88v-412h-115z" />
    <glyph glyph-name="uni2082" unicode="&#x2082;" horiz-adv-x="330" 
d="M17 -66l-1 76l122 126q50 50 50 77q0 15 -9.5 24t-24.5 9q-32 0 -57 -32l-86 61q50 78 153 78q59 0 101.5 -34.5t42.5 -90.5q0 -39 -14 -68.5t-58 -69.5l-55 -50l1 -2h129v-104h-294z" />
    <glyph glyph-name="uni2083" unicode="&#x2083;" horiz-adv-x="338" 
d="M168 -74q-58 0 -102.5 29t-59.5 73l104 41q12 -42 50 -42q18 0 29 10.5t11 25.5q0 38 -50 38h-26v84h33q18 0 29 9t11 23q0 15 -10.5 25t-26.5 10q-30 0 -41 -33l-96 50q13 37 51.5 60.5t86.5 23.5q63 0 104 -30t41 -84q0 -59 -49 -92v-1q63 -28 63 -98q0 -56 -42 -89
t-110 -33z" />
    <glyph glyph-name="uni2084" unicode="&#x2084;" horiz-adv-x="344" 
d="M164 -66v61h-159v68l184 283h90v-253h53v-98h-53v-61h-115zM107 85h67v106z" />
    <glyph glyph-name="uni2085" unicode="&#x2085;" horiz-adv-x="332" 
d="M189 201q52 0 89 -37t37 -93q0 -65 -44.5 -105t-112.5 -40q-95 0 -153 62l85 69q24 -27 57 -27q20 0 35 12t15 31q0 44 -48 44q-28 0 -50 -23l-62 25l15 227h239v-104h-144l-3 -48q30 7 45 7z" />
    <glyph glyph-name="uni2086" unicode="&#x2086;" horiz-adv-x="348" 
d="M204 199q50 0 87.5 -35t37.5 -95q0 -63 -45.5 -102.5t-110.5 -39.5t-111.5 49t-46.5 125q0 91 61.5 165.5t173.5 95.5l31 -92q-107 -30 -137 -82l2 -1q28 12 58 12zM174 27q20 0 34 12.5t14 32.5q0 18 -13 30t-35 12q-29 0 -50 -22v-2q0 -31 14 -47t36 -16z" />
    <glyph glyph-name="uni2087" unicode="&#x2087;" horiz-adv-x="296" 
d="M16 346h267v-76l-126 -347l-116 21l115 297h-140v105z" />
    <glyph glyph-name="uni2088" unicode="&#x2088;" horiz-adv-x="355" 
d="M177 -74q-69 0 -114.5 33t-45.5 90q0 39 20.5 67t51.5 41v2q-20 9 -33.5 32t-13.5 51q0 54 38 82.5t97 28.5q58 0 96.5 -28.5t38.5 -82.5q0 -27 -14 -50t-33 -33v-2q31 -13 51.5 -41t20.5 -67q0 -56 -46 -89.5t-114 -33.5zM176 198q16 0 25.5 9.5t9.5 23.5t-9.5 23.5
t-25.5 9.5q-14 0 -24 -9.5t-10 -23.5t9.5 -23.5t24.5 -9.5zM177 22q20 0 32.5 11.5t12.5 29.5q0 17 -12.5 30t-32.5 13q-19 -1 -31.5 -13.5t-12.5 -29.5q0 -18 12.5 -29.5t31.5 -11.5z" />
    <glyph glyph-name="uni2089" unicode="&#x2089;" horiz-adv-x="346" 
d="M173 353q65 0 111.5 -49t46.5 -125q0 -93 -60 -168t-171 -93l-31 91q106 26 135 84l-1 2q-31 -14 -62 -14q-50 0 -87 34.5t-37 94.5q0 63 45.5 103t110.5 40zM123 208q0 -18 13.5 -30t34.5 -12q29 0 50 21v3q0 30 -14 46.5t-35 16.5t-35 -12.5t-14 -32.5z" />
    <glyph glyph-name="uni208A" unicode="&#x208a;" horiz-adv-x="342" 
d="M310 174v-95h-89v-90h-100v90h-89v95h89v91h100v-91h89z" />
    <glyph glyph-name="uni208B" unicode="&#x208b;" horiz-adv-x="350" 
d="M36 74v104h278v-104h-278z" />
    <glyph glyph-name="uni208C" unicode="&#x208c;" horiz-adv-x="365" 
d="M44 168v91h277v-91h-277zM44 6v92h277v-92h-277z" />
    <glyph glyph-name="uni208D" unicode="&#x208d;" horiz-adv-x="239" 
d="M124 -141q-74 135 -74 273q0 156 80 274l90 -38q-21 -30 -40.5 -99.5t-19.5 -136.5q0 -136 59 -240z" />
    <glyph glyph-name="uni208E" unicode="&#x208e;" horiz-adv-x="239" 
d="M115 -141l-95 33q59 104 59 240q0 67 -19.5 136.5t-40.5 99.5l90 38q80 -118 80 -274q0 -138 -74 -273z" />
    <glyph glyph-name="uni2090" unicode="&#x2090;" horiz-adv-x="368" 
d="M152 -73q-61 0 -98.5 43t-37.5 112q0 68 36.5 110.5t93.5 42.5q54 0 91 -42h2v36h106v-295h-106v28h-2q-29 -35 -85 -35zM182 27q23 0 38.5 15t15.5 39t-15.5 39.5t-38.5 15.5q-24 0 -40 -15.5t-16 -39.5t16 -39t40 -15z" />
    <glyph glyph-name="uni2091" unicode="&#x2091;" horiz-adv-x="341" 
d="M328 81q0 -20 -3 -26h-201q14 -40 62 -40q30 0 56 23l74 -56q-48 -55 -141 -55q-69 0 -115 43t-46 111q0 66 45 109.5t114 43.5q67 0 111 -43.5t44 -109.5zM177 151q-40 0 -52 -36h103q-12 36 -51 36z" />
    <glyph glyph-name="uni2092" unicode="&#x2092;" horiz-adv-x="358" 
d="M179 -73q-72 0 -118 42.5t-46 111.5q0 67 46 110t118 43t118 -43t46 -110q0 -69 -46 -111.5t-118 -42.5zM179 25q23 0 38 16t15 40t-15 39.5t-38 15.5t-38 -15t-15 -40t15 -40.5t38 -15.5z" />
    <glyph glyph-name="uni2093" unicode="&#x2093;" horiz-adv-x="321" 
d="M-6 -66l103 153l-100 142h126l36 -58h2l37 58h126l-102 -142l105 -153h-122l-44 59h-2l-44 -59h-121z" />
    <glyph glyph-name="colonmonetary" unicode="&#x20a1;" horiz-adv-x="589" 
d="M366 140q68 0 113 31l90 -119q-85 -60 -203 -60q-50 0 -93 10l-34 -82l-61 24l33 79q-21 9 -39 21l-52 -124l-61 24l60 145q-83 91 -83 250q0 162 85 258.5t245 96.5h6l19 45l61 -23l-12 -29q24 -5 43 -12l27 64l61 -23l-28 -67q4 -3 11 -7.5t11 -6.5l-79 -122l-154 -371
q22 -2 34 -2zM237 201q14 -22 34 -35l155 371q-25 7 -45 8zM206 339q0 -15 2 -39l99 238q-101 -34 -101 -199z" />
    <glyph glyph-name="lira" unicode="&#x20a4;" horiz-adv-x="562" 
d="M267 147h272v-147h-500v147h60v81h-52v83h52v54h-52v83h52v1q0 127 60 186.5t155 59.5q59 0 114 -25.5t92 -71.5l-81 -103q-48 54 -102 54q-70 0 -72 -101h143v-83h-143v-54h143v-83h-141v-81z" />
    <glyph glyph-name="uni20A6" unicode="&#x20a6;" horiz-adv-x="692" 
d="M667 367h-56v-52h56v-83h-56v-232h-166l-108 232h-95v-232h-162v232h-55v83h55v52h-55v83h55v237h162l110 -237h96v237h163v-237h56v-83zM242 315h56l-54 145h-2v-145zM448 224v143h-58l1 -2l55 -142z" />
    <glyph glyph-name="peseta" unicode="&#x20a7;" horiz-adv-x="650" 
d="M632 494v-83h-60q-22 -181 -229 -181h-97v-230h-162v411h-67v83h67v193h251q111 0 169.5 -51t68.5 -142h59zM244 552v-58h167q-17 58 -82 58h-85zM330 354q66 0 81 57h-167v-57h86z" />
    <glyph glyph-name="dong" unicode="&#x20ab;" horiz-adv-x="610" 
d="M606 638v-93h-56v-545h-149v52h-2q-49 -61 -139 -61q-102 0 -166.5 70t-64.5 183q0 111 63.5 182.5t159.5 71.5q87 0 140 -61h1v108h-165v93h165v98h157v-98h56zM292 129q46 0 76.5 31.5t30.5 83.5q0 50 -30 83t-77 33q-45 0 -75 -32t-30 -84q0 -51 29.5 -83t75.5 -32z
M71 -177v131h478v-131h-478z" />
    <glyph glyph-name="Euro" unicode="&#x20ac;" horiz-adv-x="601" 
d="M494 171l90 -119q-85 -60 -191 -60q-117 0 -203.5 59.5t-112.5 182.5h-67v83h56v22q0 21 1 31h-57v83h68q27 115 108.5 178t206.5 63q100 0 186 -59l-94 -118q-44 29 -92 29q-100 0 -139 -93h203v-83h-221q-1 -10 -1 -31q0 -15 1 -22h221v-83h-205q38 -94 141 -94
q55 0 101 31z" />
    <glyph glyph-name="uni20AE" unicode="&#x20ae;" horiz-adv-x="560" 
d="M533 538h-170v-110l108 43l36 -74l-144 -57v-58l104 42l36 -75l-140 -56v-193h-167v126l-104 -42l-36 75l140 56v58l-100 -40l-37 74l137 55v176h-168v149h505v-149z" />
    <glyph glyph-name="uni20B1" unicode="&#x20b1;" horiz-adv-x="649" 
d="M631 550v-81h-56v-14v-15h56v-81h-70q-43 -129 -218 -129h-97v-230h-162v359h-67v81h67v29h-67v81h67v137h251q180 0 226 -137h70zM334 565h-90v-31h161q-22 31 -71 31zM244 469v-29h182v12q0 12 -1 17h-181zM334 341q53 0 75 34h-165v-34h90z" />
    <glyph glyph-name="uni20B2" unicode="&#x20b2;" horiz-adv-x="647" 
d="M600 390v-327q-63 -59 -189 -70v-110h-107v115q-114 21 -184 105.5t-70 235.5q0 141 66 232.5t188 115.5v95h107v-89q103 -8 180 -76l-95 -118q-36 39 -92 46v-155h196zM220 339q0 -149 95 -187v380q-95 -42 -95 -193zM463 159v97h-59v-114q34 4 59 17z" />
    <glyph glyph-name="uni20B4" unicode="&#x20b4;" horiz-adv-x="569" 
d="M448 199l90 -114q-101 -94 -262 -94q-104 0 -168.5 39.5t-64.5 105.5q0 62 54 97h-65v81h112l82 41h-194v81h264q45 37 45 68q0 42 -56 42q-67 0 -145 -61l-90 119q50 41 117 64.5t133 23.5q97 0 157.5 -44t60.5 -109t-62 -103h63v-81h-91l-87 -41h178v-81h-287
q-24 -22 -24 -48q0 -21 21 -36t65 -15q86 0 154 65z" />
    <glyph glyph-name="uni20B5" unicode="&#x20b5;" horiz-adv-x="596" 
d="M585 61q-71 -60 -172 -68v-110h-108v116q-115 22 -185 106.5t-70 233.5q0 141 66.5 233t188.5 115v95h108v-89q94 -8 168 -68l-95 -118q-34 34 -81 38v-404q55 5 90 40zM220 339q0 -147 96 -186v379q-96 -43 -96 -193z" />
    <glyph glyph-name="uni20B8" unicode="&#x20b8;" horiz-adv-x="559" 
d="M28 687h504v-112h-504v112zM28 407v112h504v-112h-170v-407h-166v407h-168z" />
    <glyph glyph-name="uni20B9" unicode="&#x20b9;" horiz-adv-x="574" 
d="M533 575h-139v-2q20 -23 32 -50h107v-104h-92q-7 -70 -54.5 -115.5t-123.5 -60.5v-2l250 -241h-202l-254 247v118h114q76 0 93 63h-207v91h207q-16 61 -90 61h-117v107h476v-112z" />
    <glyph glyph-name="uni20BA" unicode="&#x20ba;" horiz-adv-x="578" 
d="M433 287l126 -43q-35 -132 -102.5 -188t-172.5 -56h-204v185l-61 -29l-34 73l95 45v59l-61 -29l-34 73l95 45v265h169v-184l147 70l34 -74l-181 -86v-58l147 70l34 -74l-181 -86v-138h29q58 0 93.5 37t61.5 123z" />
    <glyph glyph-name="uni20BC" unicode="&#x20bc;" horiz-adv-x="726" 
d="M418 691q127 -14 193 -91t66 -205v-395h-156v381q0 131 -92 158v-442h-132v442q-92 -26 -92 -158v-381h-156v395q0 132 68 207.5t191 88.5v91h110v-91z" />
    <glyph glyph-name="uni20BD" unicode="&#x20bd;" horiz-adv-x="595" 
d="M343 257h-97v-50h217v-86h-217v-121h-162v121h-67v86h67v50h-67v94h67v336h251q121 0 180.5 -59.5t59.5 -158.5q0 -110 -62.5 -161t-169.5 -51zM244 539v-168h70q43 0 65.5 23t22.5 63q0 38 -23 60t-65 22h-70z" />
    <glyph glyph-name="uni2113" unicode="&#x2113;" horiz-adv-x="457" 
d="M394 130l45 -31q-63 -109 -177 -109q-160 0 -181 140q-9 -7 -28 -21.5t-28 -21.5l-28 39q5 4 35.5 28t44.5 36l2 258q1 231 172 231q58 0 88.5 -41t30.5 -105q0 -146 -175 -311v-21q0 -142 92 -142q56 0 107 71zM267 605q-28 0 -50.5 -37.5t-22.5 -115.5l1 -164
q125 133 125 235q0 82 -53 82z" />
    <glyph glyph-name="uni2116" unicode="&#x2116;" horiz-adv-x="1113" 
d="M897 407q-72 0 -117.5 43t-45.5 112q0 68 45.5 110.5t117.5 42.5q73 0 118.5 -42.5t45.5 -110.5q0 -69 -45.5 -112t-118.5 -43zM64 0v710h161l283 -438l2 1v437h165v-710h-166l-278 426h-2v-426h-165zM897 506q23 0 38 16t15 40t-14.5 39.5t-38.5 15.5q-23 0 -37.5 -15.5
t-14.5 -39.5q0 -25 14.5 -40.5t37.5 -15.5zM743 256v105h313v-105h-313z" />
    <glyph glyph-name="uni2117" unicode="&#x2117;" horiz-adv-x="723" 
d="M361 -6q-135 0 -229 95.5t-94 229.5t94.5 230t229.5 96q136 0 229.5 -96t93.5 -230q0 -133 -94.5 -229t-229.5 -96zM361 89q96 0 161.5 67.5t65.5 162.5q0 97 -65 163.5t-161 66.5q-97 0 -162.5 -67.5t-65.5 -163.5t65 -162.5t162 -66.5zM244 159v324h129q58 0 87 -31
t29 -83q0 -54 -32.5 -82t-89.5 -28h-41v-100h-82zM326 333h28q22 0 35 10t13 28q0 16 -12.5 26.5t-35.5 10.5h-28v-75z" />
    <glyph glyph-name="uni2120" unicode="&#x2120;" horiz-adv-x="696" 
d="M156 383q-78 0 -130 46l49 64q41 -36 81 -36q31 0 31 20q0 10 -9.5 16t-39.5 17q-23 8 -36.5 14t-30.5 17.5t-25 29t-8 41.5q0 45 30 72t84 28q64 1 121 -37l-48 -67q-40 28 -68 28q-26 0 -26 -16t48 -33q49 -16 76.5 -38.5t27.5 -61.5q0 -56 -37 -80t-90 -24zM326 387
v323h92l78 -158l76 158h93v-323h-90v156l-51 -97h-58l-52 97v-156h-88z" />
    <glyph glyph-name="trademark" unicode="&#x2122;" horiz-adv-x="678" 
d="M96 387v242h-81v81h252v-81h-80v-242h-91zM308 387v323h92l78 -158l76 158h93v-323h-90v156l-51 -97h-58l-52 97v-156h-88z" />
    <glyph glyph-name="uni2126" unicode="&#x2126;" horiz-adv-x="745" 
d="M46 0v149h107l1 2q-116 94 -116 243q0 142 91.5 234t242.5 92t243 -92t92 -234q0 -148 -116 -243l1 -2h107v-149h-284v149q117 102 117 237q0 80 -44 131t-116 50q-71 0 -115.5 -51t-44.5 -130q0 -134 118 -237v-149h-284z" />
    <glyph glyph-name="estimated" unicode="&#x212e;" horiz-adv-x="786" 
d="M392 -10q-147 0 -249 94t-102 227q0 134 102.5 227.5t248.5 93.5q147 0 250 -94t103 -227v-9h-495v-237q65 -37 143 -37q133 0 211 84h65q-48 -56 -121 -89t-156 -33zM250 347h287v211q-62 35 -144 35q-80 0 -143 -37v-209z" />
    <glyph glyph-name="oneeighth" unicode="&#x215b;" horiz-adv-x="840" 
d="M304 -26l-112 48l316 705l112 -48zM119 298v269l-56 -39l-57 88l140 94h88v-412h-115zM662 -8q-69 0 -114.5 33t-45.5 90q0 39 20.5 67t51.5 41v2q-20 9 -33.5 32t-13.5 51q0 54 38 82.5t97 28.5q58 0 96.5 -28.5t38.5 -82.5q0 -27 -14 -50t-33 -33v-2q31 -13 51.5 -41
t20.5 -67q0 -56 -46 -89.5t-114 -33.5zM661 264q16 0 25.5 9.5t9.5 23.5t-9.5 23.5t-25.5 9.5q-14 0 -24 -9.5t-10 -23.5t9.5 -23.5t24.5 -9.5zM662 88q20 0 32.5 11.5t12.5 29.5q0 17 -12.5 30t-32.5 13q-19 -1 -31.5 -13.5t-12.5 -29.5q0 -18 12.5 -29.5t31.5 -11.5z" />
    <glyph glyph-name="threeeighths" unicode="&#x215c;" horiz-adv-x="872" 
d="M336 -26l-112 48l316 705l112 -48zM168 290q-58 0 -102.5 29t-59.5 73l104 41q12 -42 50 -42q18 0 29 10.5t11 25.5q0 38 -50 38h-26v84h33q18 0 29 9t11 23q0 15 -10.5 25t-26.5 10q-30 0 -41 -33l-96 50q13 37 51.5 60.5t86.5 23.5q63 0 104 -30t41 -84q0 -59 -49 -92
v-1q63 -28 63 -98q0 -56 -42 -89t-110 -33zM694 -8q-69 0 -114.5 33t-45.5 90q0 39 20.5 67t51.5 41v2q-20 9 -33.5 32t-13.5 51q0 54 38 82.5t97 28.5q58 0 96.5 -28.5t38.5 -82.5q0 -27 -14 -50t-33 -33v-2q31 -13 51.5 -41t20.5 -67q0 -56 -46 -89.5t-114 -33.5zM693 264
q16 0 25.5 9.5t9.5 23.5t-9.5 23.5t-25.5 9.5q-14 0 -24 -9.5t-10 -23.5t9.5 -23.5t24.5 -9.5zM694 88q20 0 32.5 11.5t12.5 29.5q0 17 -12.5 30t-32.5 13q-19 -1 -31.5 -13.5t-12.5 -29.5q0 -18 12.5 -29.5t31.5 -11.5z" />
    <glyph glyph-name="fiveeighths" unicode="&#x215d;" horiz-adv-x="861" 
d="M529 727l112 -48l-316 -705l-112 48zM315 436q0 -65 -44.5 -105t-112.5 -40q-95 0 -153 62l85 69q24 -27 57 -27q20 0 35 12t15 31q0 44 -48 44q-28 0 -50 -23l-62 25l15 227h239v-104h-144l-3 -48q30 7 45 7q52 0 89 -37t37 -93zM771 223q31 -13 51.5 -41t20.5 -67
q0 -56 -46 -89.5t-114 -33.5q-69 0 -114.5 33t-45.5 90q0 39 20.5 67t51.5 41v2q-20 9 -33.5 32t-13.5 51q0 54 38 82.5t97 28.5q58 0 96.5 -28.5t38.5 -82.5q0 -27 -14 -50t-33 -33v-2zM682 330q-14 0 -24 -9.5t-10 -23.5t9.5 -23.5t24.5 -9.5q16 0 25.5 9.5t9.5 23.5
t-9.5 23.5t-25.5 9.5zM683 88q20 0 32.5 11.5t12.5 29.5q0 17 -12.5 30t-32.5 13q-19 -1 -31.5 -13.5t-12.5 -29.5q0 -18 12.5 -29.5t31.5 -11.5z" />
    <glyph glyph-name="seveneighths" unicode="&#x215e;" horiz-adv-x="793" 
d="M461 727l112 -48l-316 -705l-112 48zM157 287l-116 21l115 297h-140v105h267v-76zM703 223q31 -13 51.5 -41t20.5 -67q0 -56 -46 -89.5t-114 -33.5q-69 0 -114.5 33t-45.5 90q0 39 20.5 67t51.5 41v2q-20 9 -33.5 32t-13.5 51q0 54 38 82.5t97 28.5q58 0 96.5 -28.5
t38.5 -82.5q0 -27 -14 -50t-33 -33v-2zM614 330q-14 0 -24 -9.5t-10 -23.5t9.5 -23.5t24.5 -9.5q16 0 25.5 9.5t9.5 23.5t-9.5 23.5t-25.5 9.5zM615 88q20 0 32.5 11.5t12.5 29.5q0 17 -12.5 30t-32.5 13q-19 -1 -31.5 -13.5t-12.5 -29.5q0 -18 12.5 -29.5t31.5 -11.5z" />
    <glyph glyph-name="arrowleft" unicode="&#x2190;" horiz-adv-x="625" 
d="M267 73l-267 194l267 195l-1 -124h313v-142h-313z" />
    <glyph glyph-name="arrowup" unicode="&#x2191;" horiz-adv-x="566" 
d="M477 312l-123 1v-313h-142v313l-124 -1l195 267z" />
    <glyph glyph-name="arrowright" unicode="&#x2192;" horiz-adv-x="625" 
d="M358 73l1 123h-313v142h313l-1 124l267 -195z" />
    <glyph glyph-name="arrowdown" unicode="&#x2193;" horiz-adv-x="566" 
d="M477 267l-194 -267l-195 267l124 -1v313h142v-313z" />
    <glyph glyph-name="arrowboth" unicode="&#x2194;" horiz-adv-x="842" 
d="M842 267l-267 -194l1 123h-310l1 -123l-267 194l267 195l-1 -124h310l-1 124z" />
    <glyph glyph-name="arrowupdn" unicode="&#x2195;" horiz-adv-x="565" 
d="M353 423v-311l124 1l-195 -267l-194 267l123 -1v311l-123 -1l194 267l195 -267z" />
    <glyph glyph-name="uni2196" unicode="&#x2196;" horiz-adv-x="572" 
d="M121 168l-52 326l327 -51l-89 -87l221 -222l-100 -100l-221 221z" />
    <glyph glyph-name="uni2197" unicode="&#x2197;" horiz-adv-x="572" 
d="M452 168l-86 87l-221 -221l-100 100l221 222l-89 87l327 51z" />
    <glyph glyph-name="uni2198" unicode="&#x2198;" horiz-adv-x="572" 
d="M178 124l87 86l-221 221l100 100l222 -221l87 89l51 -327z" />
    <glyph glyph-name="uni2199" unicode="&#x2199;" horiz-adv-x="572" 
d="M394 124l-326 -52l51 327l87 -89l222 221l100 -100l-221 -221z" />
    <glyph glyph-name="partialdiff" unicode="&#x2202;" horiz-adv-x="584" 
d="M276 695q56 0 100.5 -19t72.5 -53t47.5 -73t29 -86.5t13 -86t3.5 -79.5q0 -149 -71 -228t-181 -79q-104 0 -176 64t-72 166q0 104 61 163.5t147 59.5q75 0 131 -38l2 1q-21 156 -128 157q-27 0 -132 -29l-42 120q104 40 195 40zM292 135q41 0 69.5 35.5t28.5 93.5v1
q-43 53 -99 53q-42 0 -67 -25t-25 -66q0 -39 25.5 -65.5t67.5 -26.5z" />
    <glyph glyph-name="emptyset" unicode="&#x2205;" horiz-adv-x="729" 
d="M623 508q61 -87 61 -190q0 -132 -93.5 -227t-227.5 -95q-104 0 -190 63l-52 -52l-63 61l53 53q-66 89 -66 197q0 132 93 226.5t227 94.5q112 0 196 -68l49 49l62 -63zM167 316q0 -60 31 -108l275 275q-49 33 -109 33q-83 0 -140 -58.5t-57 -141.5zM363 119q83 0 140 58.5
t57 140.5q0 52 -26 101l-273 -272q47 -28 102 -28z" />
    <glyph glyph-name="uni2206" unicode="&#x2206;" horiz-adv-x="684" 
d="M29 0v128l230 582h165l231 -582v-128h-626zM215 149h252l-124 353h-2z" />
    <glyph glyph-name="product" unicode="&#x220f;" horiz-adv-x="683" 
d="M64 -106v816h555v-816h-168v667h-220v-667h-167z" />
    <glyph glyph-name="summation" unicode="&#x2211;" horiz-adv-x="610" 
d="M43 -72v116l217 275l-217 271v120h528v-149h-308l-1 -3l178 -239l-178 -239l1 -3h308v-149h-528z" />
    <glyph glyph-name="minus" unicode="&#x2212;" horiz-adv-x="560" 
d="M41 212v131h478v-131h-478z" />
    <glyph glyph-name="radical" unicode="&#x221a;" horiz-adv-x="748" 
d="M309 0l-167 500h-115v125h236l135 -422h2l296 619h107l-395 -822h-99z" />
    <glyph glyph-name="infinity" unicode="&#x221e;" horiz-adv-x="752" 
d="M540 456q72 0 121 -50.5t49 -125.5q0 -80 -50 -128t-120 -48q-90 0 -165 93q-73 -93 -163 -93q-73 0 -121.5 50t-48.5 126q0 79 50 127.5t120 48.5q90 0 163 -93q77 93 165 93zM225 219q26 0 45.5 15t43.5 46q-16 21 -26.5 32t-27 20t-35.5 9q-26 0 -42.5 -15.5
t-16.5 -45.5t16.5 -45.5t42.5 -15.5zM527 219q26 0 42 15.5t16 45.5t-16 45.5t-42 15.5q-25 0 -45.5 -15t-44.5 -46q25 -31 44.5 -46t45.5 -15z" />
    <glyph glyph-name="integral" unicode="&#x222b;" horiz-adv-x="443" 
d="M56 -175q-37 -1 -86 8l19 118h8q47 0 59.5 19.5t23.5 89.5l75 491q11 74 57.5 113.5t109.5 41.5q76 0 116 -18l-17 -109q-9 0 -22.5 0.5t-19.5 0.5q-46 0 -58.5 -18.5t-23.5 -90.5l-74 -492q-11 -73 -57.5 -112.5t-109.5 -41.5z" />
    <glyph glyph-name="uni2236" unicode="&#x2236;" horiz-adv-x="279" 
d="M135 379q-38 0 -64 25.5t-26 62.5t26.5 63t63.5 26t63.5 -26t26.5 -63t-26.5 -62.5t-63.5 -25.5zM135 49q-38 0 -64 25.5t-26 62.5t26.5 63t63.5 26t63.5 -26t26.5 -63t-26.5 -62.5t-63.5 -25.5z" />
    <glyph glyph-name="approxequal" unicode="&#x2248;" horiz-adv-x="587" 
d="M408 303q-32 0 -96.5 25t-104.5 25q-51 0 -117 -39l-42 98q17 20 58.5 44.5t84.5 24.5q40 0 104 -25.5t96 -25.5q54 0 104 43l43 -101q-20 -26 -55 -47.5t-75 -21.5zM408 80q-32 0 -96.5 25t-104.5 25q-55 0 -117 -39l-42 99q18 21 59.5 45t83.5 24q40 0 104 -25.5
t96 -25.5q57 0 104 42l43 -101q-20 -26 -55 -47.5t-75 -21.5z" />
    <glyph glyph-name="notequal" unicode="&#x2260;" horiz-adv-x="582" 
d="M530 327h-155l-46 -99h201v-131h-262l-47 -100l-95 36l30 64h-104v131h165l46 99h-211v131h272l52 111l95 -37l-35 -74h94v-131z" />
    <glyph glyph-name="lessequal" unicode="&#x2264;" horiz-adv-x="577" 
d="M528 175l-471 198v108l471 203v-145l-278 -111l278 -112v-141zM528 0h-472v131h472v-131z" />
    <glyph glyph-name="greaterequal" unicode="&#x2265;" horiz-adv-x="577" 
d="M57 175v141l278 112l-278 111v145l471 -203v-108zM57 0v131h472v-131h-472z" />
    <glyph glyph-name="filledbox" unicode="&#x25a0;" horiz-adv-x="643" 
d="M45 0v551h552v-551h-552z" />
    <glyph glyph-name="uni25A1" unicode="&#x25a1;" horiz-adv-x="643" 
d="M45 0v551h552v-551h-552zM160 115h322v321h-322v-321z" />
    <glyph glyph-name="triagup" unicode="&#x25b2;" horiz-adv-x="642" 
d="M7 0l314 580l313 -580h-627z" />
    <glyph glyph-name="uni25B3" unicode="&#x25b3;" horiz-adv-x="642" 
d="M7 0l314 580l313 -580h-627zM189 107h263l-131 245z" />
    <glyph glyph-name="uni25B6" unicode="&#x25b6;" horiz-adv-x="637" 
d="M50 -38v627l579 -314z" />
    </font>
</defs>
</svg>
