<svg xmlns="http://www.w3.org/2000/svg" width="129.421" height="135.738" viewBox="0 0 129.421 135.738"><defs><style>.a{fill:#fff;}</style></defs><g transform="translate(0 0)"><path class="a" d="M-360.249-365.5c-1.4-1.115-.2-5.535-1.435-4.885s-4.918,3.694-5.789,2.768c-1.318-1.4-.483-4.113,1.383-5.375,3.687-2.5.41-2.606-1.435-2.281s-2.588-3.376-.41-4.127c4.1-1.413,6.457-.869,5.738-5.646-.314-2.087-2.829-3.969-6.2-3.261-6.714,1.414-16.5-4.234-20.03-8.8-4.9-6.322-5.941-11.785-8.094-11.62s-3.433,2.825-5.429,3.15-5.482-1.031-7.48-3.8-2.254-5.755-4.405-5.1-2.357,4.509-4.353,4.509-3.536-1.3-2.306-3.585,5.584-4.67,1.435-4.834-4.743-.672-4.353-2.822c.257-1.413,2.406-2.606,4.251-2.28s3.433-.166,2.2-1.468-6.2-4.289-2.716-5.593a3.857,3.857,0,0,1,3.447.711c1.076.671,1.862,1.344,2.188.482.614-1.63-.308-5.428,2.459-5.321,1.679.065,3.944,2.5,3.482,5.431s-.512,7.713,2.869,6.408,5.173-3.586,5.173-8.311-1.588-8.741-1.382-14.826c.075-2.171.1-9.283,5.021-14.007s8.657-11.568,9.27-14.989a12.859,12.859,0,0,0-4.3-12.705c-4.918-4.4-10.347-7.549-15.521-7.929-4.639-.343-9.607-.281-14.65,2.606-4.322,2.475-7.889,5.975-12.294,11.839-6.8,9.049-3.842,18.365-3.826,20.2,0,0-.09.585-.216.562v0c-.048-.009-.1-.1-.156-.354-.039-.175-.081-.365-.125-.569-.768-2.656-2.741-10.478-1.182-16.153,2.153-7.818,6.557-15.475,14.855-20.039,7.251-3.983,18.6-4.288,26.434-1.681s14.753,7.168,20.9,16.726c7.426,11.542,3.262,21.2.308,25.414-2.971,4.234-10.372,9.454-9.426,14.661.512,2.823,2.767,5.646,7.273,5.756,5.84.139,6.864,3.478,10.144,2.716,3.087-.717,4.815-7.819,2.253-9.992-2.595-2.2-6.762-3.475-6.349-5.432.442-2.12,2.66-1.03,4.813-.215s2.511-.435,2.356-2.066-1.23-6.5,2.767-5.971c1.638.218,2.973,1.519,2.458,4.885-.341,2.259.462,5.375,2.613,3.258s4.523-6.766,6.508-5.647c1.534.868.852,3.834-1.284,5.647-1.79,1.522-2.609,4.669-.049,5,3.363.426,5.124,0,4.508,2.008-.513,1.677-2.868,1.413-5.02,1.253s-4.1-1.2-5.636,1.3c-1.4,2.288.462,7.168-.613,9.123s-1.795,4.67-6.355,5.864c-2.042.536-5.247,3.268-1.124,6.515,3.585,2.827,6.453,3.258,6.3,1.52-.2-2.27-.307-7,2.921-8.469s7.2-3.012,5.994-4.888c-.974-1.52-4.071-4.145-1.382-5.213.718-.285,1.457.516,2.281,1.317,1.053,1.025,2.246,2.049,3.711.8,1.366-1.163.982-4.581,3.536-4.939,1.537-.219,3.38.759,2.458,2.657-1.145,2.358-2.565,5.6.821,4.509,2.357-.76,6.043-2.28,6.4-.76.552,2.335-2.56,3.259-5.839,3.423-3.33.163-4.088,3.145-2.1,3.746,2.151.653,3.073,1.413,2.663,2.389s-2.359.619-4.447.252a11.532,11.532,0,0,0-4.363-.252c-2.458.652-3.483,4.78-1.23,6.407,2.79,2.015,5.891-.379,8.506-1.846s7.418-2.251,11.115-2.065c4.354.221,13.37-.324,16.646,2.934a18.587,18.587,0,0,1,2.116,3.063l.034-.023c.747,2.2.366,4.828-1.254,8.26a36.064,36.064,0,0,1-12.6,14.117,11.307,11.307,0,0,1-9.527,1.085c-3.236-1.021-6.353-.431-7.991,1.306a21.507,21.507,0,0,1-4.2,3.8c-1.535.98-5.224,2.063-7.069,4.018s-1.845,3.8.257,4.832c2.705,1.329,4.649,2.8,2.92,5.214-1.128,1.578-2.92,1.141-4.3-.162s-3.228-2.933-3.073-1.628,1.382,3.883.717,5.647c-.459,1.222-1.323,2.2-2.245,2.2A1.48,1.48,0,0,1-360.249-365.5Z" transform="translate(440 500.886)"/></g></svg>